<svg width="33" height="32" viewBox="0 0 33 32" fill="none" xmlns="http://www.w3.org/2000/svg">
<path d="M6.1875 28C5.6375 28 5.15625 27.8 4.74375 27.4C4.33125 27 4.125 26.5333 4.125 26V6.00001C4.125 5.46667 4.33125 5.00001 4.74375 4.60001C5.15625 4.20001 5.6375 4.00001 6.1875 4.00001H13.5094V6.00001H6.1875V26H26.8125V16.9667L28.875 18.9667V26C28.875 26.5333 28.6687 27 28.2562 27.4C27.8437 27.8 27.3625 28 26.8125 28H6.1875ZM8.14688 22.7667L12.1688 17.7333L15.3656 21.9333L19.8344 16.2667L24.8875 22.7667H8.14688ZM30.0781 17.2667L25.5062 12.8333C25.025 13.1445 24.5495 13.3722 24.0797 13.5167C23.6099 13.6611 23.0542 13.7333 22.4125 13.7333C20.8083 13.7333 19.4563 13.2 18.3563 12.1333C17.2563 11.0667 16.7062 9.75556 16.7062 8.20001C16.7062 6.64445 17.2563 5.33334 18.3563 4.26667C19.4563 3.20001 20.8083 2.66667 22.4125 2.66667C24.0167 2.66667 25.3687 3.20001 26.4688 4.26667C27.5688 5.33334 28.1188 6.64445 28.1188 8.20001C28.1188 8.82223 28.0271 9.41112 27.8438 9.96667C27.6604 10.5222 27.4083 11.0333 27.0875 11.5L31.5563 15.8333L30.0781 17.2667ZM22.4125 11.7333C23.4667 11.7333 24.3375 11.4 25.025 10.7333C25.7125 10.0667 26.0563 9.22223 26.0563 8.20001C26.0563 7.17778 25.7125 6.33334 25.025 5.66667C24.3375 5.00001 23.4667 4.66667 22.4125 4.66667C21.3583 4.66667 20.4875 5.00001 19.8 5.66667C19.1125 6.33334 18.7687 7.17778 18.7687 8.20001C18.7687 9.22223 19.1125 10.0667 19.8 10.7333C20.4875 11.4 21.3583 11.7333 22.4125 11.7333Z" fill="white"/>
</svg>
