<svg width="25" height="25" viewBox="0 0 25 25" fill="none" xmlns="http://www.w3.org/2000/svg">
<path d="M14.5573 22.474C14.2448 22.7865 13.8672 22.9427 13.4245 22.9427C12.9818 22.9427 12.6042 22.7865 12.2917 22.474L2.52608 12.7083C2.35247 12.5347 2.23528 12.3524 2.17452 12.1615C2.11376 11.9705 2.08337 11.7708 2.08337 11.5625V3.64584C2.08337 3.19445 2.23094 2.82119 2.52608 2.52605C2.82122 2.23091 3.19449 2.08334 3.64587 2.08334H11.5625C11.7709 2.08334 11.9792 2.11373 12.1875 2.17449C12.3959 2.23525 12.5868 2.35244 12.7605 2.52605L22.474 12.2396C22.8039 12.5695 22.9688 12.9557 22.9688 13.3984C22.9688 13.8412 22.8039 14.2274 22.474 14.5573L14.5573 22.474ZM13.4896 21.4063L21.4063 13.4896L11.5625 3.64584H3.64587V11.5625L13.4896 21.4063ZM6.38025 7.70834C6.74483 7.70834 7.06167 7.57379 7.33077 7.3047C7.59987 7.0356 7.73442 6.71876 7.73442 6.35418C7.73442 5.98959 7.59987 5.67275 7.33077 5.40366C7.06167 5.13456 6.74483 5.00001 6.38025 5.00001C6.01567 5.00001 5.69883 5.13456 5.42973 5.40366C5.16063 5.67275 5.02608 5.98959 5.02608 6.35418C5.02608 6.71876 5.16063 7.0356 5.42973 7.3047C5.69883 7.57379 6.01567 7.70834 6.38025 7.70834Z" fill="#711AC7"/>
</svg>
