<svg width="18" height="19" viewBox="0 0 18 19" fill="none" xmlns="http://www.w3.org/2000/svg">
<path d="M1.5 19C1.1 19 0.75 18.8575 0.45 18.5725C0.15 18.2875 0 17.955 0 17.575V2.85C0 2.47 0.15 2.1375 0.45 1.8525C0.75 1.5675 1.1 1.425 1.5 1.425H3.125V0H4.75V1.425H13.25V0H14.875V1.425H16.5C16.9 1.425 17.25 1.5675 17.55 1.8525C17.85 2.1375 18 2.47 18 2.85V17.575C18 17.955 17.85 18.2875 17.55 18.5725C17.25 18.8575 16.9 19 16.5 19H1.5ZM1.5 17.575H16.5V7.3625H1.5V17.575ZM1.5 5.9375H16.5V2.85H1.5V5.9375ZM1.5 5.9375V2.85V5.9375Z" fill="#711AC7"/>
</svg>
