<svg width="27" height="27" viewBox="0 0 27 27" fill="none" xmlns="http://www.w3.org/2000/svg">
<g clip-path="url(#clip0_17_314)">
<path d="M13.5 23.5969L12.3469 22.5563C10.3594 20.7375 8.71875 19.1672 7.425 17.8453C6.13125 16.5235 5.1 15.3422 4.33125 14.3016C3.5625 13.261 3.02344 12.3188 2.71406 11.475C2.40469 10.6313 2.25 9.77814 2.25 8.91564C2.25 7.22814 2.81719 5.8172 3.95156 4.68282C5.08594 3.54845 6.4875 2.98126 8.15625 2.98126C9.225 2.98126 10.2141 3.23439 11.1234 3.74064C12.0328 4.24689 12.825 4.97814 13.5 5.93439C14.2875 4.92189 15.1219 4.17657 16.0031 3.69845C16.8844 3.22032 17.8313 2.98126 18.8438 2.98126C20.5125 2.98126 21.9141 3.54845 23.0484 4.68282C24.1828 5.8172 24.75 7.22814 24.75 8.91564C24.75 9.77814 24.5953 10.6313 24.2859 11.475C23.9766 12.3188 23.4375 13.261 22.6688 14.3016C21.9 15.3422 20.8688 16.5235 19.575 17.8453C18.2813 19.1672 16.6406 20.7375 14.6531 22.5563L13.5 23.5969ZM13.5 21.375C15.3938 19.6313 16.9547 18.136 18.1828 16.8891C19.4109 15.6422 20.3859 14.55 21.1078 13.6125C21.8297 12.675 22.3359 11.8406 22.6266 11.1094C22.9172 10.3781 23.0625 9.64689 23.0625 8.91564C23.0625 7.67814 22.6688 6.66095 21.8813 5.86407C21.0938 5.0672 20.0813 4.66876 18.8438 4.66876C17.8875 4.66876 16.9969 4.96407 16.1719 5.5547C15.3469 6.14532 14.6813 6.97501 14.175 8.04376H12.7969C12.3094 6.99376 11.6531 6.16876 10.8281 5.56876C10.0031 4.96876 9.1125 4.66876 8.15625 4.66876C6.91875 4.66876 5.90625 5.0672 5.11875 5.86407C4.33125 6.66095 3.9375 7.67814 3.9375 8.91564C3.9375 9.64689 4.08281 10.3828 4.37344 11.1235C4.66406 11.8641 5.17031 12.7078 5.89219 13.6547C6.61406 14.6016 7.59375 15.6938 8.83125 16.9313C10.0688 18.1688 11.625 19.65 13.5 21.375Z" fill="#711AC7"/>
<path d="M13.5 23.5969L12.3469 22.5563C10.3594 20.7375 8.71875 19.1672 7.425 17.8453C6.13125 16.5235 5.1 15.3422 4.33125 14.3016C3.5625 13.261 3.02344 12.3188 2.71406 11.475C2.40469 10.6313 2.25 9.77814 2.25 8.91564C2.25 7.22814 2.81719 5.8172 3.95156 4.68282C5.08594 3.54845 6.4875 2.98126 8.15625 2.98126C9.225 2.98126 10.2141 3.23439 11.1234 3.74064C12.0328 4.24689 12.825 4.97814 13.5 5.93439C14.2875 4.92189 15.1219 4.17657 16.0031 3.69845C16.8844 3.22032 17.8313 2.98126 18.8438 2.98126C20.5125 2.98126 21.9141 3.54845 23.0484 4.68282C24.1828 5.8172 24.75 7.22814 24.75 8.91564C24.75 9.77814 24.5953 10.6313 24.2859 11.475C23.9766 12.3188 23.4375 13.261 22.6688 14.3016C21.9 15.3422 20.8688 16.5235 19.575 17.8453C18.2813 19.1672 16.6406 20.7375 14.6531 22.5563L13.5 23.5969ZM13.5 21.375C15.3938 19.6313 16.9547 18.136 18.1828 16.8891C19.4109 15.6422 20.3859 14.55 21.1078 13.6125C21.8297 12.675 22.3359 11.8406 22.6266 11.1094C22.9172 10.3781 23.0625 9.64689 23.0625 8.91564C23.0625 7.67814 22.6688 6.66095 21.8813 5.86407C21.0938 5.0672 20.0813 4.66876 18.8438 4.66876C17.8875 4.66876 16.9969 4.96407 16.1719 5.5547C15.3469 6.14532 14.6813 6.97501 14.175 8.04376H12.7969C12.3094 6.99376 11.6531 6.16876 10.8281 5.56876C10.0031 4.96876 9.1125 4.66876 8.15625 4.66876C6.91875 4.66876 5.90625 5.0672 5.11875 5.86407C4.33125 6.66095 3.9375 7.67814 3.9375 8.91564C3.9375 9.64689 4.08281 10.3828 4.37344 11.1235C4.66406 11.8641 5.17031 12.7078 5.89219 13.6547C6.61406 14.6016 7.59375 15.6938 8.83125 16.9313C10.0688 18.1688 11.625 19.65 13.5 21.375Z" fill="#711AC7"/>
<path d="M13.5 21.2372L12.3469 20.3006C10.3594 18.6638 8.71875 17.2505 7.425 16.0608C6.13125 14.8711 5.1 13.808 4.33125 12.8714C3.5625 11.9349 3.02344 11.0869 2.71406 10.3275C2.40469 9.56814 2.25 8.80032 2.25 8.02407C2.25 6.50532 2.81719 5.23548 3.95156 4.21454C5.08594 3.1936 6.4875 2.68314 8.15625 2.68314C9.225 2.68314 10.2141 2.91095 11.1234 3.36657C12.0328 3.8222 12.825 4.48032 13.5 5.34095C14.2875 4.4297 15.1219 3.75892 16.0031 3.3286C16.8844 2.89829 17.8313 2.68314 18.8438 2.68314C20.5125 2.68314 21.9141 3.1936 23.0484 4.21454C24.1828 5.23548 24.75 6.50532 24.75 8.02407C24.75 8.80032 24.5953 9.56814 24.2859 10.3275C23.9766 11.0869 23.4375 11.9349 22.6687 12.8714C21.9 13.808 20.8687 14.8711 19.575 16.0608C18.2812 17.2505 16.6406 18.6638 14.6531 20.3006L13.5 21.2372Z" fill="#711AC7"/>
</g>
<defs>
<clipPath id="clip0_17_314">
<rect width="27" height="27" fill="white"/>
</clipPath>
</defs>
</svg>
