<svg width="30" height="30" viewBox="0 0 30 30" fill="none" xmlns="http://www.w3.org/2000/svg">
<path d="M20.0938 26.75L16.8438 21.25H12.9062C12.6354 21.25 12.4115 21.1615 12.2344 20.9844C12.0573 20.8073 11.9688 20.5833 11.9688 20.3125C11.9688 20.0417 12.0573 19.8177 12.2344 19.6406C12.4115 19.4635 12.6354 19.375 12.9062 19.375H16.8438L20.0938 13.875H20.875L19.25 19.375H23.375L24.3125 18.125H25L24.3438 20.3125L25 22.5H24.3125L23.375 21.25H19.25L20.875 26.75H20.0938ZM9.125 16.125L10.75 10.625H6.625L5.6875 11.875H5L5.65625 9.6875L5 7.5H5.6875L6.625 8.75H10.75L9.125 3.25H9.90625L13.1562 8.75H17.0938C17.3646 8.75 17.5885 8.83854 17.7656 9.01562C17.9427 9.19271 18.0312 9.41667 18.0312 9.6875C18.0312 9.95833 17.9427 10.1823 17.7656 10.3594C17.5885 10.5365 17.3646 10.625 17.0938 10.625H13.1562L9.90625 16.125H9.125Z" fill="#711AC7"/>
</svg>
