<svg width="29" height="29" viewBox="0 0 29 29" fill="none" xmlns="http://www.w3.org/2000/svg">
<path d="M13.6843 20.5417H15.4968V13.2917H13.6843V20.5417ZM14.5 11.0562C14.7819 11.0562 15.0185 10.9656 15.2099 10.7844C15.4012 10.6031 15.4968 10.3715 15.4968 10.0896C15.4968 9.80763 15.4012 9.56596 15.2099 9.36457C15.0185 9.16318 14.7819 9.06249 14.5 9.06249C14.218 9.06249 13.9814 9.16318 13.7901 9.36457C13.5987 9.56596 13.5031 9.80763 13.5031 10.0896C13.5031 10.3715 13.5987 10.6031 13.7901 10.7844C13.9814 10.9656 14.218 11.0562 14.5 11.0562ZM14.5 26.5833C12.8486 26.5833 11.2878 26.2661 9.81767 25.6318C8.34753 24.9974 7.06367 24.1314 5.9661 23.0338C4.86854 21.9363 4.00256 20.6524 3.36819 19.1823C2.73381 17.7121 2.41663 16.1413 2.41663 14.4698C2.41663 12.8184 2.73381 11.2576 3.36819 9.78749C4.00256 8.31735 4.86854 7.03853 5.9661 5.95103C7.06367 4.86353 8.34753 4.00259 9.81767 3.36822C11.2878 2.73384 12.8586 2.41666 14.5302 2.41666C16.1816 2.41666 17.7423 2.73384 19.2125 3.36822C20.6826 4.00259 21.9614 4.86353 23.0489 5.95103C24.1364 7.03853 24.9974 8.31735 25.6317 9.78749C26.2661 11.2576 26.5833 12.8285 26.5833 14.5C26.5833 16.1514 26.2661 17.7121 25.6317 19.1823C24.9974 20.6524 24.1364 21.9363 23.0489 23.0338C21.9614 24.1314 20.6826 24.9974 19.2125 25.6318C17.7423 26.2661 16.1715 26.5833 14.5 26.5833ZM14.5302 24.7708C17.3697 24.7708 19.7864 23.7689 21.7802 21.7651C23.7739 19.7613 24.7708 17.3295 24.7708 14.4698C24.7708 11.6302 23.7739 9.21353 21.7802 7.21978C19.7864 5.22603 17.3597 4.22916 14.5 4.22916C11.6604 4.22916 9.23867 5.22603 7.23486 7.21978C5.23104 9.21353 4.22913 11.6403 4.22913 14.5C4.22913 17.3396 5.23104 19.7613 7.23486 21.7651C9.23867 23.7689 11.6704 24.7708 14.5302 24.7708Z" fill="#711AC7"/>
</svg>
