<svg width="29" height="29" viewBox="0 0 29 29" fill="none" xmlns="http://www.w3.org/2000/svg">
<path d="M14.5 14.1979C15.0841 14.1979 15.5825 13.9915 15.9954 13.5786C16.4082 13.1658 16.6146 12.6674 16.6146 12.0833C16.6146 11.4993 16.4082 11.0009 15.9954 10.588C15.5825 10.1752 15.0841 9.96875 14.5 9.96875C13.916 9.96875 13.4176 10.1752 13.0047 10.588C12.5919 11.0009 12.3855 11.4993 12.3855 12.0833C12.3855 12.6674 12.5919 13.1658 13.0047 13.5786C13.4176 13.9915 13.916 14.1979 14.5 14.1979ZM14.5 24.1969C17.1785 21.7601 19.1572 19.5498 20.436 17.5661C21.7148 15.5825 22.3542 13.8354 22.3542 12.325C22.3542 9.94861 21.594 8.00521 20.0735 6.49479C18.553 4.98438 16.6952 4.22917 14.5 4.22917C12.3049 4.22917 10.4471 4.98438 8.9266 6.49479C7.40612 8.00521 6.64587 9.94861 6.64587 12.325C6.64587 13.8354 7.30039 15.5825 8.60942 17.5661C9.91844 19.5498 11.882 21.7601 14.5 24.1969ZM14.5 26.5833C11.2577 23.8243 8.83598 21.2616 7.23494 18.8953C5.6339 16.529 4.83337 14.3389 4.83337 12.325C4.83337 9.30417 5.80508 6.89757 7.74848 5.10521C9.69188 3.31285 11.9424 2.41667 14.5 2.41667C17.0577 2.41667 19.3082 3.31285 21.2516 5.10521C23.195 6.89757 24.1667 9.30417 24.1667 12.325C24.1667 14.3389 23.3662 16.529 21.7651 18.8953C20.1641 21.2616 17.7424 23.8243 14.5 26.5833Z" fill="#A164DE"/>
</svg>
