<svg width="30" height="27" viewBox="0 0 30 27" fill="none" xmlns="http://www.w3.org/2000/svg">
<path d="M1.25 21.375V4.92188H3.125V16.0031H14.1562V7.3125H24.2188C25.4688 7.3125 26.5365 7.71094 27.4219 8.50781C28.3073 9.30469 28.75 10.2656 28.75 11.3906V21.375H26.875V17.6906H3.125V21.375H1.25ZM8.4375 14.3719C7.5 14.3719 6.71354 14.0859 6.07812 13.5141C5.44271 12.9422 5.125 12.2344 5.125 11.3906C5.125 10.5469 5.44271 9.83906 6.07812 9.26719C6.71354 8.69531 7.5 8.40937 8.4375 8.40937C9.375 8.40937 10.1615 8.69531 10.7969 9.26719C11.4323 9.83906 11.75 10.5469 11.75 11.3906C11.75 12.2344 11.4323 12.9422 10.7969 13.5141C10.1615 14.0859 9.375 14.3719 8.4375 14.3719ZM16.0312 16.0031H26.875V11.3906C26.875 10.7344 26.6146 10.1719 26.0938 9.70312C25.5729 9.23438 24.9479 9 24.2188 9H16.0312V16.0031ZM8.4375 12.6844C8.83333 12.6844 9.17188 12.5578 9.45312 12.3047C9.73438 12.0516 9.875 11.7469 9.875 11.3906C9.875 11.0344 9.73438 10.7297 9.45312 10.4766C9.17188 10.2234 8.83333 10.0969 8.4375 10.0969C8.04167 10.0969 7.70312 10.2234 7.42188 10.4766C7.14062 10.7297 7 11.0344 7 11.3906C7 11.7469 7.14062 12.0516 7.42188 12.3047C7.70312 12.5578 8.04167 12.6844 8.4375 12.6844ZM16.0312 9V16.0031V9Z" fill="#711AC7"/>
</svg>
