<svg width="27" height="27" viewBox="0 0 27 27" fill="none" xmlns="http://www.w3.org/2000/svg">
<path d="M12.4031 12.9375C11.2219 12.9375 10.2188 12.525 9.39375 11.7C8.56875 10.875 8.15625 9.88125 8.15625 8.71875C8.15625 7.5375 8.56875 6.53906 9.39375 5.72344C10.2188 4.90781 11.2125 4.5 12.375 4.5C13.5562 4.5 14.5547 4.90781 15.3703 5.72344C16.1859 6.53906 16.5938 7.52812 16.5938 8.69062C16.5938 9.87187 16.1859 10.875 15.3703 11.7C14.5547 12.525 13.5656 12.9375 12.4031 12.9375ZM12.375 11.25C13.0875 11.25 13.6875 11.0016 14.175 10.5047C14.6625 10.0078 14.9062 9.4125 14.9062 8.71875C14.9062 8.00625 14.6625 7.40625 14.175 6.91875C13.6875 6.43125 13.0969 6.1875 12.4031 6.1875C11.6906 6.1875 11.0859 6.43125 10.5891 6.91875C10.0922 7.40625 9.84375 7.99687 9.84375 8.69062C9.84375 9.40312 10.0922 10.0078 10.5891 10.5047C11.0859 11.0016 11.6812 11.25 12.375 11.25ZM25.2563 26.4375L21.3188 22.5C20.8875 22.8188 20.4422 23.0391 19.9828 23.1609C19.5234 23.2828 19.05 23.3438 18.5625 23.3438C17.2312 23.3438 16.1016 22.8797 15.1734 21.9516C14.2453 21.0234 13.7812 19.8938 13.7812 18.5625C13.7812 17.2312 14.2453 16.1016 15.1734 15.1734C16.1016 14.2453 17.2312 13.7812 18.5625 13.7812C19.8937 13.7812 21.0234 14.2453 21.9516 15.1734C22.8797 16.1016 23.3438 17.2312 23.3438 18.5625C23.3438 19.05 23.2828 19.5234 23.1609 19.9828C23.0391 20.4422 22.8188 20.8875 22.5 21.3188L26.4375 25.2563L25.2563 26.4375ZM18.5625 21.6562C19.4438 21.6562 20.1797 21.3609 20.7703 20.7703C21.3609 20.1797 21.6562 19.4438 21.6562 18.5625C21.6562 17.6812 21.3609 16.9453 20.7703 16.3547C20.1797 15.7641 19.4438 15.4688 18.5625 15.4688C17.6812 15.4688 16.9453 15.7641 16.3547 16.3547C15.7641 16.9453 15.4688 17.6812 15.4688 18.5625C15.4688 19.4438 15.7641 20.1797 16.3547 20.7703C16.9453 21.3609 17.6812 21.6562 18.5625 21.6562ZM3.375 22.5V19.8562C3.375 19.1625 3.53906 18.5719 3.86719 18.0844C4.19531 17.5969 4.66875 17.1938 5.2875 16.875C6.16875 16.4438 7.31719 16.0359 8.73281 15.6516C10.1484 15.2672 11.5875 15.1219 13.05 15.2156C12.9 15.4594 12.7594 15.7266 12.6281 16.0172C12.4969 16.3078 12.3938 16.5938 12.3187 16.875C10.8562 16.8562 9.58125 17.0297 8.49375 17.3953C7.40625 17.7609 6.5625 18.0938 5.9625 18.3938C5.7 18.5438 5.48438 18.7453 5.31562 18.9984C5.14687 19.2516 5.0625 19.5375 5.0625 19.8562V20.8125H12.3187C12.525 21.1313 12.7125 21.4266 12.8812 21.6984C13.05 21.9703 13.2375 22.2375 13.4437 22.5H3.375Z" fill="#711AC7"/>
</svg>
