<svg width="18" height="18" viewBox="0 0 18 18" fill="none" xmlns="http://www.w3.org/2000/svg">
<path d="M1.56657 6.57407L2.3101 6.55603L3.40665 7.9465L7.85013 7.8387L5.87638 1.68684L6.90316 1.66193L10.7003 7.76954L14.8783 7.66818C15.1261 7.66216 15.3377 7.74265 15.513 7.90962C15.6882 8.0766 15.7789 8.28401 15.7849 8.53186C15.7909 8.7797 15.7104 8.99126 15.5435 9.16655C15.3765 9.34183 15.1691 9.43248 14.9212 9.43849L10.7433 9.53986L7.24678 15.8244L6.21999 15.8493L7.89308 9.60901L3.4496 9.71682L2.42177 11.1588L1.67824 11.1769L2.27742 8.85958L1.56657 6.57407Z" fill="#711AC7"/>
</svg>
