<svg  width="38" height="39" viewBox="0 0 38 39" fill="none" xmlns="http://www.w3.org/2000/svg">
<path d="M13.0625 27.3L19 21.2063L24.9375 27.3L26.6 25.5938L20.6625 19.5L26.6 13.4062L24.9375 11.7L19 17.7937L13.0625 11.7L11.4 13.4062L17.3375 19.5L11.4 25.5938L13.0625 27.3ZM19 35.75C16.8361 35.75 14.791 35.3234 12.8646 34.4703C10.9382 33.6172 9.25589 32.4526 7.8177 30.9766C6.3795 29.5005 5.24478 27.774 4.41353 25.7969C3.58228 23.8198 3.16666 21.7208 3.16666 19.5C3.16666 17.2521 3.58228 15.1396 4.41353 13.1625C5.24478 11.1854 6.3795 9.46563 7.8177 8.00313C9.25589 6.54063 10.9382 5.38281 12.8646 4.52969C14.791 3.67656 16.8361 3.25 19 3.25C21.1903 3.25 23.2486 3.67656 25.175 4.52969C27.1014 5.38281 28.7771 6.54063 30.2021 8.00313C31.6271 9.46563 32.7552 11.1854 33.5864 13.1625C34.4177 15.1396 34.8333 17.2521 34.8333 19.5C34.8333 21.7208 34.4177 23.8198 33.5864 25.7969C32.7552 27.774 31.6271 29.5005 30.2021 30.9766C28.7771 32.4526 27.1014 33.6172 25.175 34.4703C23.2486 35.3234 21.1903 35.75 19 35.75ZM19 33.3125C22.7472 33.3125 25.9271 31.9651 28.5396 29.2703C31.1521 26.5755 32.4583 23.3187 32.4583 19.5C32.4583 15.6542 31.1521 12.3906 28.5396 9.70937C25.9271 7.02812 22.7472 5.6875 19 5.6875C15.2792 5.6875 12.1059 7.02812 9.4802 9.70937C6.8545 12.3906 5.54166 15.6542 5.54166 19.5C5.54166 23.3187 6.8545 26.5755 9.4802 29.2703C12.1059 31.9651 15.2792 33.3125 19 33.3125Z" fill="white"/>
</svg>
