<svg width="37" height="36" viewBox="0 0 37 36" fill="none" xmlns="http://www.w3.org/2000/svg">
<path d="M0 27V25.0125C0 24.0375 0.539583 23.25 1.61875 22.65C2.69792 22.05 4.08542 21.75 5.78125 21.75C6.11528 21.75 6.42361 21.7562 6.70625 21.7687C6.98889 21.7812 7.27153 21.8125 7.55417 21.8625C7.34861 22.2875 7.19444 22.7188 7.09167 23.1562C6.98889 23.5938 6.9375 24.0625 6.9375 24.5625V27H0ZM9.25 27V24.5625C9.25 22.9375 10.1043 21.625 11.813 20.625C13.5217 19.625 15.7507 19.125 18.5 19.125C21.275 19.125 23.5104 19.625 25.2062 20.625C26.9021 21.625 27.75 22.9375 27.75 24.5625V27H9.25ZM30.0625 27V24.5625C30.0625 24.0625 30.0175 23.5938 29.9276 23.1562C29.8377 22.7188 29.6899 22.2875 29.4844 21.8625C29.767 21.8125 30.0497 21.7812 30.3323 21.7687C30.6149 21.7562 30.9104 21.75 31.2188 21.75C32.966 21.75 34.3663 22.05 35.4198 22.65C36.4733 23.25 37 24.0375 37 25.0125V27H30.0625ZM18.5 21.375C16.4444 21.375 14.7743 21.675 13.4896 22.275C12.2049 22.875 11.5625 23.6375 11.5625 24.5625V24.75H25.4375V24.525C25.4375 23.625 24.8016 22.875 23.5297 22.275C22.2578 21.675 20.5812 21.375 18.5 21.375ZM5.78125 20.625C5.03611 20.625 4.40017 20.3688 3.87344 19.8563C3.3467 19.3438 3.08333 18.725 3.08333 18C3.08333 17.275 3.3467 16.6562 3.87344 16.1437C4.40017 15.6312 5.03611 15.375 5.78125 15.375C6.52639 15.375 7.16233 15.6312 7.68906 16.1437C8.2158 16.6562 8.47917 17.275 8.47917 18C8.47917 18.725 8.2158 19.3438 7.68906 19.8563C7.16233 20.3688 6.52639 20.625 5.78125 20.625ZM31.2188 20.625C30.4736 20.625 29.8377 20.3688 29.3109 19.8563C28.7842 19.3438 28.5208 18.725 28.5208 18C28.5208 17.275 28.7842 16.6562 29.3109 16.1437C29.8377 15.6312 30.4736 15.375 31.2188 15.375C31.9639 15.375 32.5998 15.6312 33.1266 16.1437C33.6533 16.6562 33.9167 17.275 33.9167 18C33.9167 18.725 33.6533 19.3438 33.1266 19.8563C32.5998 20.3688 31.9639 20.625 31.2188 20.625ZM18.5 18C17.2153 18 16.1233 17.5625 15.224 16.6875C14.3247 15.8125 13.875 14.75 13.875 13.5C13.875 12.225 14.3247 11.1563 15.224 10.2938C16.1233 9.43125 17.2153 9 18.5 9C19.8104 9 20.9089 9.43125 21.7953 10.2938C22.6818 11.1563 23.125 12.225 23.125 13.5C23.125 14.75 22.6818 15.8125 21.7953 16.6875C20.9089 17.5625 19.8104 18 18.5 18ZM18.5 11.25C17.8576 11.25 17.3116 11.4625 16.862 11.8875C16.4123 12.3125 16.1875 12.85 16.1875 13.5C16.1875 14.125 16.4123 14.6562 16.862 15.0938C17.3116 15.5312 17.8576 15.75 18.5 15.75C19.1681 15.75 19.7205 15.5312 20.1573 15.0938C20.5941 14.6562 20.8125 14.125 20.8125 13.5C20.8125 12.85 20.5941 12.3125 20.1573 11.8875C19.7205 11.4625 19.1681 11.25 18.5 11.25Z" fill="#711AC7"/>
</svg>
