<svg width="28" height="26" viewBox="0 0 28 26" fill="none" xmlns="http://www.w3.org/2000/svg">
<path d="M6.47498 19.0937C7.69998 18.2993 8.91526 17.6899 10.1208 17.2656C11.3264 16.8413 12.6194 16.6292 14 16.6292C15.3805 16.6292 16.6785 16.8413 17.8937 17.2656C19.109 17.6899 20.3291 18.2993 21.5541 19.0937C22.4097 18.1187 23.0173 17.1347 23.3771 16.1417C23.7368 15.1486 23.9166 14.1014 23.9166 13C23.9166 10.3819 22.9687 8.1927 21.0729 6.43228C19.1771 4.67186 16.8194 3.79166 14 3.79166C11.1805 3.79166 8.8229 4.67186 6.92706 6.43228C5.03123 8.1927 4.08331 10.3819 4.08331 13C4.08331 14.1014 4.26804 15.1486 4.63748 16.1417C5.00692 17.1347 5.61942 18.1187 6.47498 19.0937ZM14 13.8125C12.8722 13.8125 11.9243 13.4559 11.1562 12.7427C10.3882 12.0295 10.0041 11.1493 10.0041 10.1021C10.0041 9.05485 10.3882 8.17464 11.1562 7.46145C11.9243 6.74825 12.8722 6.39166 14 6.39166C15.1278 6.39166 16.0757 6.74825 16.8437 7.46145C17.6118 8.17464 17.9958 9.05485 17.9958 10.1021C17.9958 11.1493 17.6118 12.0295 16.8437 12.7427C16.0757 13.4559 15.1278 13.8125 14 13.8125ZM14 23.8333C12.4055 23.8333 10.8986 23.5489 9.47915 22.9802C8.0597 22.4114 6.82012 21.6351 5.7604 20.651C4.70067 19.667 3.86456 18.516 3.25206 17.1979C2.63956 15.8798 2.33331 14.4805 2.33331 13C2.33331 11.5014 2.63956 10.0976 3.25206 8.78853C3.86456 7.4795 4.70067 6.33298 5.7604 5.34895C6.82012 4.36492 8.0597 3.58853 9.47915 3.01978C10.8986 2.45103 12.4055 2.16666 14 2.16666C15.6139 2.16666 17.1257 2.45103 18.5354 3.01978C19.9451 3.58853 21.1798 4.36492 22.2396 5.34895C23.2993 6.33298 24.1354 7.4795 24.7479 8.78853C25.3604 10.0976 25.6666 11.5014 25.6666 13C25.6666 14.4805 25.3604 15.8798 24.7479 17.1979C24.1354 18.516 23.2993 19.667 22.2396 20.651C21.1798 21.6351 19.9451 22.4114 18.5354 22.9802C17.1257 23.5489 15.6139 23.8333 14 23.8333ZM14 22.2083C15.0694 22.2083 16.1146 22.0639 17.1354 21.775C18.1562 21.4861 19.1625 20.9805 20.1541 20.2583C19.1625 19.6083 18.1514 19.1118 17.1208 18.7687C16.0903 18.4257 15.05 18.2542 14 18.2542C12.95 18.2542 11.9097 18.4257 10.8791 18.7687C9.84859 19.1118 8.83748 19.6083 7.84581 20.2583C8.83748 20.9805 9.84373 21.4861 10.8646 21.775C11.8854 22.0639 12.9305 22.2083 14 22.2083ZM14 12.1875C14.6611 12.1875 15.2007 11.9934 15.6187 11.6052C16.0368 11.217 16.2458 10.716 16.2458 10.1021C16.2458 9.48818 16.0368 8.98714 15.6187 8.59895C15.2007 8.21075 14.6611 8.01666 14 8.01666C13.3389 8.01666 12.7993 8.21075 12.3812 8.59895C11.9632 8.98714 11.7541 9.48818 11.7541 10.1021C11.7541 10.716 11.9632 11.217 12.3812 11.6052C12.7993 11.9934 13.3389 12.1875 14 12.1875Z" fill="#711AC7"/>
</svg>
