<svg width="33" height="33" viewBox="0 0 33 33" fill="none" xmlns="http://www.w3.org/2000/svg">
<path d="M3.05937 24.4406L1.375 23.2031L7.8375 12.8906L11.9625 17.7031L17.4281 8.83438L21.175 14.4031C20.8083 14.449 20.4531 14.5234 20.1094 14.6266C19.7656 14.7297 19.4219 14.85 19.0781 14.9875L17.5312 12.6156L12.2719 21.175L8.1125 16.3281L3.05937 24.4406ZM30.1469 31.625L25.5406 27.0187C25.0594 27.3625 24.538 27.626 23.9766 27.8094C23.4151 27.9927 22.8365 28.0844 22.2406 28.0844C20.6135 28.0844 19.2328 27.5172 18.0984 26.3828C16.9641 25.2484 16.3969 23.8677 16.3969 22.2406C16.3969 20.6135 16.9641 19.2328 18.0984 18.0984C19.2328 16.9641 20.6135 16.3969 22.2406 16.3969C23.8677 16.3969 25.2484 16.9641 26.3828 18.0984C27.5172 19.2328 28.0844 20.6135 28.0844 22.2406C28.0844 22.8365 27.987 23.4151 27.7922 23.9766C27.5974 24.538 27.3396 25.0708 27.0187 25.575L31.625 30.1469L30.1469 31.625ZM22.2406 26.0219C23.2948 26.0219 24.1885 25.6552 24.9219 24.9219C25.6552 24.1885 26.0219 23.2948 26.0219 22.2406C26.0219 21.1865 25.6552 20.2927 24.9219 19.5594C24.1885 18.826 23.2948 18.4594 22.2406 18.4594C21.1865 18.4594 20.2927 18.826 19.5594 19.5594C18.826 20.2927 18.4594 21.1865 18.4594 22.2406C18.4594 23.2948 18.826 24.1885 19.5594 24.9219C20.2927 25.6552 21.1865 26.0219 22.2406 26.0219ZM24.7844 14.7469C24.4406 14.6094 24.0854 14.5177 23.7188 14.4719C23.3521 14.426 22.974 14.3802 22.5844 14.3344L29.9406 2.75L31.625 3.9875L24.7844 14.7469Z" fill="#711AC7"/>
</svg>
