<svg width="24" height="24" viewBox="0 0 24 24" fill="none" xmlns="http://www.w3.org/2000/svg">
<path d="M12 20.975L10.975 20.05C9.20833 18.4333 7.75 17.0375 6.6 15.8625C5.45 14.6875 4.53333 13.6375 3.85 12.7125C3.16667 11.7875 2.6875 10.95 2.4125 10.2C2.1375 9.44999 2 8.69166 2 7.92499C2 6.42499 2.50417 5.17083 3.5125 4.16249C4.52083 3.15416 5.76667 2.64999 7.25 2.64999C8.2 2.64999 9.07917 2.87499 9.8875 3.32499C10.6958 3.77499 11.4 4.42499 12 5.27499C12.7 4.37499 13.4417 3.71249 14.225 3.28749C15.0083 2.86249 15.85 2.64999 16.75 2.64999C18.2333 2.64999 19.4792 3.15416 20.4875 4.16249C21.4958 5.17083 22 6.42499 22 7.92499C22 8.69166 21.8625 9.44999 21.5875 10.2C21.3125 10.95 20.8333 11.7875 20.15 12.7125C19.4667 13.6375 18.55 14.6875 17.4 15.8625C16.25 17.0375 14.7917 18.4333 13.025 20.05L12 20.975ZM12 19C13.6833 17.45 15.0708 16.1208 16.1625 15.0125C17.2542 13.9042 18.1208 12.9333 18.7625 12.1C19.4042 11.2667 19.8542 10.525 20.1125 9.87499C20.3708 9.22499 20.5 8.57499 20.5 7.92499C20.5 6.82499 20.15 5.92083 19.45 5.21249C18.75 4.50416 17.85 4.14999 16.75 4.14999C15.9 4.14999 15.1083 4.41249 14.375 4.93749C13.6417 5.46249 13.05 6.19999 12.6 7.14999H11.375C10.9417 6.21666 10.3583 5.48333 9.625 4.94999C8.89167 4.41666 8.1 4.14999 7.25 4.14999C6.15 4.14999 5.25 4.50416 4.55 5.21249C3.85 5.92083 3.5 6.82499 3.5 7.92499C3.5 8.57499 3.62917 9.22916 3.8875 9.88749C4.14583 10.5458 4.59583 11.2958 5.2375 12.1375C5.87917 12.9792 6.75 13.95 7.85 15.05C8.95 16.15 10.3333 17.4667 12 19Z" fill="#711AC7"/>
</svg>
