<svg width="10" height="10" viewBox="0 0 10 10" fill="none" xmlns="http://www.w3.org/2000/svg">
<path d="M4.99998 8.73958L4.5729 8.35416C3.83679 7.68055 3.22915 7.09896 2.74998 6.60937C2.27081 6.11979 1.88887 5.68229 1.60415 5.29687C1.31942 4.91146 1.11977 4.5625 1.00519 4.25C0.890605 3.9375 0.833313 3.62153 0.833313 3.30208C0.833313 2.67708 1.04338 2.15451 1.46352 1.73437C1.88366 1.31423 2.40276 1.10416 3.02081 1.10416C3.41665 1.10416 3.78297 1.19791 4.11977 1.38541C4.45658 1.57291 4.74998 1.84375 4.99998 2.19791C5.29165 1.82291 5.60067 1.54687 5.92706 1.36979C6.25345 1.19271 6.60415 1.10416 6.97915 1.10416C7.5972 1.10416 8.1163 1.31423 8.53644 1.73437C8.95658 2.15451 9.16665 2.67708 9.16665 3.30208C9.16665 3.62153 9.10935 3.9375 8.99477 4.25C8.88019 4.5625 8.68054 4.91146 8.39581 5.29687C8.11109 5.68229 7.72915 6.11979 7.24998 6.60937C6.77081 7.09896 6.16317 7.68055 5.42706 8.35416L4.99998 8.73958ZM4.99998 7.91666C5.70137 7.27083 6.27949 6.71701 6.73435 6.25521C7.18922 5.7934 7.55033 5.38889 7.81769 5.04166C8.08505 4.69444 8.27255 4.38541 8.38019 4.11458C8.48783 3.84375 8.54165 3.57291 8.54165 3.30208C8.54165 2.84375 8.39581 2.46701 8.10415 2.17187C7.81248 1.87673 7.43748 1.72916 6.97915 1.72916C6.62498 1.72916 6.29512 1.83854 5.98956 2.05729C5.68401 2.27604 5.43748 2.58333 5.24998 2.97916H4.73956C4.55901 2.59028 4.31595 2.28472 4.0104 2.0625C3.70484 1.84028 3.37498 1.72916 3.02081 1.72916C2.56248 1.72916 2.18748 1.87673 1.89581 2.17187C1.60415 2.46701 1.45831 2.84375 1.45831 3.30208C1.45831 3.57291 1.51213 3.84548 1.61977 4.11979C1.72741 4.39409 1.91491 4.70659 2.18227 5.05729C2.44963 5.40798 2.81248 5.8125 3.27081 6.27083C3.72915 6.72916 4.30554 7.27778 4.99998 7.91666Z" fill="#711AC7"/>
</svg>
