<svg width="31" height="31" viewBox="0 0 31 31" fill="none" xmlns="http://www.w3.org/2000/svg">
<path d="M4.52084 22.0552V25.1875H26.4792V22.0552H4.52084ZM9.46147 7.75001V4.52084C9.46147 4.00418 9.65522 3.55209 10.0427 3.16459C10.4302 2.77709 10.8823 2.58334 11.399 2.58334H19.5688C20.0854 2.58334 20.5375 2.77709 20.925 3.16459C21.3125 3.55209 21.5063 4.00418 21.5063 4.52084V7.75001H26.4792C26.9958 7.75001 27.4479 7.94376 27.8354 8.33126C28.2229 8.71876 28.4167 9.17084 28.4167 9.68751V25.1875C28.4167 25.7042 28.2229 26.1563 27.8354 26.5438C27.4479 26.9313 26.9958 27.125 26.4792 27.125H4.52084C4.00418 27.125 3.55209 26.9313 3.16459 26.5438C2.77709 26.1563 2.58334 25.7042 2.58334 25.1875V9.68751C2.58334 9.17084 2.77709 8.71876 3.16459 8.33126C3.55209 7.94376 4.00418 7.75001 4.52084 7.75001H9.46147ZM4.52084 18.5677H26.4792V9.68751H21.5063V12.1094H19.5688V9.68751H11.399V12.1094H9.46147V9.68751H4.52084V18.5677ZM11.399 7.75001H19.5688V4.52084H11.399V7.75001ZM4.52084 25.1875V9.68751V12.1094V9.68751V12.1094V9.68751V25.1875Z" fill="#711AC7"/>
</svg>
