<svg width="27" height="25" viewBox="0 0 27 25" fill="none" xmlns="http://www.w3.org/2000/svg">
<g clip-path="url(#clip0_6_47)">
<path d="M17.4375 14.5833H16.5487L16.2338 14.3021C17.3363 13.1146 18 11.5729 18 9.89583C18 6.15625 14.7262 3.125 10.6875 3.125C6.64875 3.125 3.375 6.15625 3.375 9.89583C3.375 13.6354 6.64875 16.6667 10.6875 16.6667C12.4987 16.6667 14.1637 16.0521 15.4462 15.0312L15.75 15.3229V16.1458L21.375 21.3438L23.0513 19.7917L17.4375 14.5833ZM10.6875 14.5833C7.88625 14.5833 5.625 12.4896 5.625 9.89583C5.625 7.30208 7.88625 5.20833 10.6875 5.20833C13.4888 5.20833 15.75 7.30208 15.75 9.89583C15.75 12.4896 13.4888 14.5833 10.6875 14.5833Z" fill="#711AC7"/>
</g>
<defs>
<clipPath id="clip0_6_47">
<rect width="27" height="25" fill="white"/>
</clipPath>
</defs>
</svg>
