<svg width="33" height="34" viewBox="0 0 33 34" fill="none" xmlns="http://www.w3.org/2000/svg">
<path d="M15.7437 31.1312C13.9333 31.0368 12.2375 30.6 10.6562 29.8208C9.075 29.0417 7.7 28.0205 6.53125 26.7573C5.3625 25.4941 4.4401 24.0243 3.76406 22.3479C3.08802 20.6715 2.75 18.8889 2.75 17C2.75 15.0403 3.11094 13.1986 3.83281 11.475C4.55469 9.75138 5.53438 8.25208 6.77188 6.97708C8.00938 5.70208 9.46458 4.6927 11.1375 3.94895C12.8104 3.2052 14.5979 2.83333 16.5 2.83333C19.9146 2.83333 22.8823 3.94305 25.4031 6.16249C27.924 8.38194 29.4708 11.1681 30.0438 14.5208H27.9469C27.5573 12.5375 26.7437 10.7667 25.5062 9.20833C24.2687 7.64999 22.7219 6.48125 20.8656 5.70208V6.33958C20.8656 7.16597 20.5906 7.88611 20.0406 8.49999C19.4906 9.11388 18.8146 9.42083 18.0125 9.42083H15.0219V12.5021C15.0219 12.9035 14.8672 13.234 14.5578 13.4937C14.2484 13.7535 13.899 13.8833 13.5094 13.8833H10.6562V17H14.4375V21.4271H12.1344L5.12187 14.2021C5.00729 14.6743 4.92708 15.1406 4.88125 15.601C4.83542 16.0615 4.8125 16.5278 4.8125 17C4.8125 20.1875 5.85521 22.9382 7.94063 25.2521C10.026 27.566 12.6271 28.8174 15.7437 29.0062V31.1312ZM29.2188 30.2104L24.6125 25.4646C24.1313 25.8187 23.6099 26.0903 23.0484 26.2792C22.487 26.468 21.9083 26.5625 21.3125 26.5625C19.6854 26.5625 18.3047 25.9781 17.1703 24.8094C16.0359 23.6406 15.4688 22.2181 15.4688 20.5417C15.4688 18.8653 16.0359 17.4427 17.1703 16.274C18.3047 15.1052 19.6854 14.5208 21.3125 14.5208C22.9396 14.5208 24.3203 15.1052 25.4547 16.274C26.5891 17.4427 27.1562 18.8653 27.1562 20.5417C27.1562 21.1556 27.0589 21.7517 26.8641 22.3302C26.6693 22.9087 26.4115 23.4576 26.0906 23.9771L30.6969 28.6875L29.2188 30.2104ZM21.3125 24.4375C22.3667 24.4375 23.2604 24.0597 23.9938 23.3042C24.7271 22.5486 25.0938 21.6278 25.0938 20.5417C25.0938 19.4555 24.7271 18.5347 23.9938 17.7792C23.2604 17.0236 22.3667 16.6458 21.3125 16.6458C20.2583 16.6458 19.3646 17.0236 18.6313 17.7792C17.8979 18.5347 17.5312 19.4555 17.5312 20.5417C17.5312 21.6278 17.8979 22.5486 18.6313 23.3042C19.3646 24.0597 20.2583 24.4375 21.3125 24.4375Z" fill="#711AC7"/>
</svg>
