<svg width="25" height="24" viewBox="0 0 25 24" fill="none" xmlns="http://www.w3.org/2000/svg">
<path d="M12.5 16.55C14.3056 15.15 15.6684 13.8042 16.5885 12.5125C17.5087 11.2208 17.9688 10.0167 17.9688 8.9C17.9688 7.91667 17.7821 7.08333 17.4089 6.4C17.0356 5.71667 16.5755 5.15833 16.0286 4.725C15.4818 4.29167 14.8872 3.97917 14.2448 3.7875C13.6024 3.59583 13.0208 3.5 12.5 3.5C11.9792 3.5 11.3976 3.59583 10.7552 3.7875C10.1128 3.97917 9.51823 4.29167 8.97135 4.725C8.42448 5.15833 7.96441 5.71667 7.59115 6.4C7.21788 7.08333 7.03125 7.91667 7.03125 8.9C7.03125 10.0167 7.49132 11.2208 8.41146 12.5125C9.3316 13.8042 10.6944 15.15 12.5 16.55ZM12.5 18.45C10.1215 16.7333 8.35503 15.0917 7.20052 13.525C6.04601 11.9583 5.46875 10.4167 5.46875 8.9C5.46875 7.76667 5.68142 6.77083 6.10677 5.9125C6.53212 5.05417 7.08333 4.33333 7.76042 3.75C8.4375 3.16667 9.19271 2.72917 10.026 2.4375C10.8594 2.14583 11.684 2 12.5 2C13.316 2 14.1406 2.14583 14.974 2.4375C15.8073 2.72917 16.5625 3.16667 17.2396 3.75C17.9167 4.33333 18.4679 5.05417 18.8932 5.9125C19.3186 6.77083 19.5312 7.76667 19.5312 8.9C19.5312 10.4167 18.954 11.9583 17.7995 13.525C16.645 15.0917 14.8785 16.7333 12.5 18.45ZM12.5 10.5C13.0035 10.5 13.4332 10.3292 13.7891 9.9875C14.145 9.64583 14.3229 9.23333 14.3229 8.75C14.3229 8.26667 14.145 7.85417 13.7891 7.5125C13.4332 7.17083 13.0035 7 12.5 7C11.9965 7 11.5668 7.17083 11.2109 7.5125C10.855 7.85417 10.6771 8.26667 10.6771 8.75C10.6771 9.23333 10.855 9.64583 11.2109 9.9875C11.5668 10.3292 11.9965 10.5 12.5 10.5ZM5.46875 22V20.5H19.5312V22H5.46875Z" fill="#711AC7"/>
</svg>
