<svg width="170" height="91" viewBox="0 0 170 91" fill="none" xmlns="http://www.w3.org/2000/svg">
<g filter="url(#filter0_d_1_24)">
<path d="M25.44 58.89C24.6933 58.89 24.32 58.26 24.32 57C24.2733 55.8333 24.2967 53.99 24.39 51.47C24.4833 48.95 24.53 46.1267 24.53 43C24.53 40.48 24.46 37.89 24.32 35.23C24.2267 32.5233 23.9933 29.9333 23.62 27.46C23.2933 24.94 22.8033 22.7 22.15 20.74C21.4967 18.78 20.6333 17.2167 19.56 16.05C18.5333 14.8833 17.2733 14.3 15.78 14.3C14.1933 14.3 12.7933 14.6967 11.58 15.49C10.4133 16.2367 9.31667 17.17 8.29 18.29C7.31 19.41 6.30667 20.5067 5.28 21.58C5 21.9067 4.81333 22 4.72 21.86C4.58 21.72 4.53333 21.5567 4.58 21.37C5 20.4367 5.7 19.3867 6.68 18.22C7.70667 17.0533 8.85 15.9567 10.11 14.93C11.4167 13.8567 12.7467 12.9933 14.1 12.34C15.5 11.64 16.76 11.29 17.88 11.29C19.6533 11.29 21.17 12.1067 22.43 13.74C23.69 15.3733 24.6933 17.5667 25.44 20.32C26.2333 23.0733 26.7933 26.1767 27.12 29.63C27.4933 33.0367 27.68 36.56 27.68 40.2C27.68 45.66 27.3533 50.7933 26.7 55.6C27.54 52.7533 28.5433 49.6033 29.71 46.15C30.8767 42.65 32.23 39.0333 33.77 35.3C35.31 31.52 37.0133 27.81 38.88 24.17C40.7933 20.53 42.87 17.1467 45.11 14.02C47.3967 10.8467 49.87 8.11666 52.53 5.83C55.2367 3.49667 58.1067 1.79333 61.14 0.719999C62.3533 0.346665 63.45 0.159997 64.43 0.159997C66.0633 0.159997 67.4867 0.603331 68.7 1.49C69.96 2.33 70.73 3.61333 71.01 5.34V5.48C71.01 5.9 70.9167 6.32 70.73 6.74C70.59 7.16 70.4267 7.37 70.24 7.37C69.96 7.37 69.82 6.88 69.82 5.9C69.82 4.78 69.5167 3.82333 68.91 3.03C68.3033 2.19 67.3 1.77 65.9 1.77C65.06 1.77 64.0333 1.98 62.82 2.4C59.2733 3.61333 55.82 5.87667 52.46 9.19C49.1467 12.5033 45.9967 16.5867 43.01 21.44C40.0233 26.2933 37.2467 31.7067 34.68 37.68C32.1133 43.6067 29.8267 49.86 27.82 56.44C27.6333 57.0933 27.2833 57.6533 26.77 58.12C26.3033 58.6333 25.86 58.89 25.44 58.89ZM45.2735 33.62C44.8535 33.62 44.5502 33.41 44.3635 32.99C44.2235 32.5233 44.1535 32.1967 44.1535 32.01C44.1535 31.2633 44.3635 30.5633 44.7835 29.91C45.2502 29.21 45.7635 28.8367 46.3235 28.79H46.5335C47.0935 28.79 47.4668 28.93 47.6535 29.21C47.8868 29.4433 48.0035 29.7467 48.0035 30.12C48.0035 30.82 47.7002 31.59 47.0935 32.43C46.4868 33.2233 45.8802 33.62 45.2735 33.62ZM41.7035 58.68C40.1168 58.68 39.0435 58.0733 38.4835 56.86C37.9235 55.6467 37.6435 54.2467 37.6435 52.66C37.6435 51.0733 37.8068 49.4167 38.1335 47.69C38.5068 45.9167 38.9035 44.3067 39.3235 42.86C39.7902 41.4133 40.1402 40.3867 40.3735 39.78C40.8868 38.7067 41.4002 37.7967 41.9135 37.05C42.4268 36.2567 42.9868 35.86 43.5935 35.86C44.0135 35.86 44.3168 36.0233 44.5035 36.35C44.7368 36.63 44.8535 37.0033 44.8535 37.47C44.8535 38.4033 44.5968 39.36 44.0835 40.34C43.5702 41.2733 43.1035 42.16 42.6835 43C41.7502 44.9133 41.0035 46.6167 40.4435 48.11C39.9302 49.6033 39.6735 51.47 39.6735 53.71C39.6735 55.1567 39.8135 56.2067 40.0935 56.86C40.4202 57.5133 40.8635 57.84 41.4235 57.84C42.1702 57.84 43.0335 57.42 44.0135 56.58C44.9935 55.6933 45.9968 54.5267 47.0235 53.08C48.0502 51.6333 48.9602 50.07 49.7535 48.39C50.2668 47.3167 50.6635 46.78 50.9435 46.78C51.1302 46.78 51.2235 46.9667 51.2235 47.34C51.2235 47.8533 51.0135 48.6 50.5935 49.58C50.2202 50.5133 49.7535 51.47 49.1935 52.45C48.6802 53.43 48.1902 54.2 47.7235 54.76C46.9302 55.7867 46.0202 56.6967 44.9935 57.49C43.9668 58.2833 42.8702 58.68 41.7035 58.68ZM51.8579 56.44C51.0179 56.44 50.4112 56.09 50.0379 55.39C49.6646 54.6433 49.4779 53.78 49.4779 52.8C49.4779 51.54 49.6879 50.07 50.1079 48.39C50.5746 46.71 51.1812 44.9833 51.9279 43.21C52.6746 41.39 53.5146 39.7333 54.4479 38.24C55.4279 36.7 56.4546 35.4633 57.5279 34.53C58.6012 33.55 59.6512 33.06 60.6779 33.06C61.6112 33.06 62.4046 33.48 63.0579 34.32C63.7579 35.1133 64.1079 36.0233 64.1079 37.05C64.1079 37.6567 64.0146 38.17 63.8279 38.59C63.6412 38.9633 63.4312 39.15 63.1979 39.15C63.0112 39.15 62.8479 39.01 62.7079 38.73C62.2412 37.6567 61.7279 36.8867 61.1679 36.42C60.6546 35.9533 60.1179 35.72 59.5579 35.72C58.6246 35.72 57.6912 36.2567 56.7579 37.33C55.8712 38.3567 55.1479 39.5467 54.5879 40.9C54.1212 41.9267 53.6779 43.1633 53.2579 44.61C52.8846 46.01 52.5579 47.41 52.2779 48.81C52.0446 50.1633 51.9279 51.2833 51.9279 52.17C51.9279 53.7567 52.3012 54.55 53.0479 54.55C53.9812 54.55 55.1712 53.5233 56.6179 51.47C57.6912 49.9767 58.6479 48.25 59.4879 46.29C60.3746 44.33 61.1212 42.6267 61.7279 41.18C61.9612 40.7133 62.2179 40.41 62.4979 40.27C62.7779 40.13 63.0346 40.06 63.2679 40.06C63.8279 40.06 64.1779 40.2933 64.3179 40.76C64.5046 41.2267 64.5979 41.6233 64.5979 41.95C64.5979 43.1633 64.4812 44.26 64.2479 45.24C64.0146 46.1733 63.8979 47.3167 63.8979 48.67C63.8979 49.65 63.9679 50.56 64.1079 51.4C64.2946 52.1933 64.5979 52.59 65.0179 52.59C65.5312 52.59 66.1846 51.9367 66.9779 50.63C67.1646 50.2567 67.4446 50.07 67.8179 50.07C68.2379 50.07 68.4479 50.28 68.4479 50.7C68.4479 51.3067 68.0279 51.96 67.1879 52.66C66.3479 53.3133 65.5079 53.64 64.6679 53.64C63.5479 53.64 62.7546 53.1733 62.2879 52.24C61.4946 50.7 61.0979 49.3233 61.0979 48.11C61.0979 46.85 61.0746 45.9867 61.0279 45.52C60.7946 46.08 60.3512 46.9667 59.6979 48.18C59.0446 49.3467 58.2746 50.5833 57.3879 51.89C56.5012 53.15 55.5679 54.2233 54.5879 55.11C53.6079 55.9967 52.6979 56.44 51.8579 56.44ZM69.4066 34.39C69.0799 34.39 68.7999 34.2267 68.5666 33.9C68.3799 33.5267 68.2866 33.13 68.2866 32.71C68.2866 32.01 68.4966 31.3333 68.9166 30.68C69.3832 29.98 69.8966 29.6067 70.4566 29.56H70.6666C71.2266 29.56 71.5999 29.6767 71.7866 29.91C72.0199 30.1433 72.1366 30.4467 72.1366 30.82C72.1366 31.52 71.8099 32.29 71.1566 33.13C70.5499 33.97 69.9666 34.39 69.4066 34.39ZM57.7166 82.55C55.9899 82.55 54.5432 82.1067 53.3766 81.22C52.1632 80.3333 51.5566 79.0967 51.5566 77.51C51.5566 76.0167 52.2566 74.29 53.6566 72.33C55.0099 70.37 57.3666 68.3167 60.7266 66.17C61.5199 65.6567 62.3366 65.19 63.1766 64.77C63.9699 64.3967 64.8099 63.9767 65.6966 63.51C65.8366 63.4167 66.0232 63.37 66.2566 63.37C66.3499 63.37 66.3966 63.4167 66.3966 63.51C66.3966 63.8367 66.1399 64.0933 65.6266 64.28C63.1999 65.4933 61.2866 66.8 59.8866 68.2C58.4866 69.6 57.2732 71.0467 56.2466 72.54C55.2666 73.9867 54.5899 75.1533 54.2166 76.04C53.8432 76.9733 53.6566 77.8133 53.6566 78.56C53.6566 80.3333 54.5432 81.22 56.3166 81.22C57.1566 81.22 58.1366 81.01 59.2566 80.59C60.3766 80.17 61.5666 79.4933 62.8266 78.56C65.2066 76.74 67.0266 74.6867 68.2866 72.4C69.5932 70.16 70.5032 67.78 71.0166 65.26C71.5299 62.74 71.7866 60.22 71.7866 57.7C71.7866 55.2733 71.6232 52.9167 71.2966 50.63C71.0166 48.2967 70.6899 46.1267 70.3166 44.12C69.9899 42.1133 69.7566 40.3867 69.6166 38.94V38.87C69.6166 38.4967 69.7799 38.2167 70.1066 38.03C70.4332 37.7967 70.7832 37.68 71.1566 37.68C71.4832 37.68 71.7632 37.7733 71.9966 37.96C72.2766 38.1467 72.4399 38.4733 72.4866 38.94C72.5799 39.6867 72.6732 40.83 72.7666 42.37C72.9066 43.91 73.1166 46.1267 73.3966 49.02C73.6766 51.5867 73.8166 53.99 73.8166 56.23C73.8166 61.0367 73.3032 65.12 72.2766 68.48C71.2499 71.84 69.8966 74.5467 68.2166 76.6C66.5832 78.7 64.8566 80.2167 63.0366 81.15C61.1699 82.0833 59.3966 82.55 57.7166 82.55ZM81.2524 56.44C80.4124 56.44 79.8058 56.09 79.4324 55.39C79.0591 54.6433 78.8724 53.78 78.8724 52.8C78.8724 51.54 79.0824 50.07 79.5024 48.39C79.9691 46.71 80.5758 44.9833 81.3224 43.21C82.0691 41.39 82.9091 39.7333 83.8424 38.24C84.8224 36.7 85.8491 35.4633 86.9224 34.53C87.9958 33.55 89.0458 33.06 90.0724 33.06C91.0058 33.06 91.7991 33.48 92.4524 34.32C93.1524 35.1133 93.5024 36.0233 93.5024 37.05C93.5024 37.6567 93.4091 38.17 93.2224 38.59C93.0358 38.9633 92.8258 39.15 92.5924 39.15C92.4058 39.15 92.2424 39.01 92.1024 38.73C91.6358 37.6567 91.1224 36.8867 90.5624 36.42C90.0491 35.9533 89.5124 35.72 88.9524 35.72C88.0191 35.72 87.0858 36.2567 86.1524 37.33C85.2658 38.3567 84.5424 39.5467 83.9824 40.9C83.5158 41.9267 83.0724 43.1633 82.6524 44.61C82.2791 46.01 81.9524 47.41 81.6724 48.81C81.4391 50.1633 81.3224 51.2833 81.3224 52.17C81.3224 53.7567 81.6958 54.55 82.4424 54.55C83.3758 54.55 84.5658 53.5233 86.0124 51.47C87.0858 49.9767 88.0424 48.25 88.8824 46.29C89.7691 44.33 90.5158 42.6267 91.1224 41.18C91.3558 40.7133 91.6124 40.41 91.8924 40.27C92.1724 40.13 92.4291 40.06 92.6624 40.06C93.2224 40.06 93.5724 40.2933 93.7124 40.76C93.8991 41.2267 93.9924 41.6233 93.9924 41.95C93.9924 43.1633 93.8758 44.26 93.6424 45.24C93.4091 46.1733 93.2924 47.3167 93.2924 48.67C93.2924 49.65 93.3624 50.56 93.5024 51.4C93.6891 52.1933 93.9924 52.59 94.4124 52.59C94.9258 52.59 95.5791 51.9367 96.3724 50.63C96.5591 50.2567 96.8391 50.07 97.2124 50.07C97.6324 50.07 97.8424 50.28 97.8424 50.7C97.8424 51.3067 97.4224 51.96 96.5824 52.66C95.7424 53.3133 94.9024 53.64 94.0624 53.64C92.9424 53.64 92.1491 53.1733 91.6824 52.24C90.8891 50.7 90.4924 49.3233 90.4924 48.11C90.4924 46.85 90.4691 45.9867 90.4224 45.52C90.1891 46.08 89.7458 46.9667 89.0924 48.18C88.4391 49.3467 87.6691 50.5833 86.7824 51.89C85.8958 53.15 84.9624 54.2233 83.9824 55.11C83.0024 55.9967 82.0924 56.44 81.2524 56.44ZM117.841 64.98C114.248 64.98 111.051 64.07 108.251 62.25C105.451 60.4767 103.071 58.0967 101.111 55.11C99.1978 52.1233 97.7278 48.81 96.7011 45.17C95.7211 41.4833 95.2311 37.7733 95.2311 34.04C95.2311 30.7733 95.6278 27.6233 96.4211 24.59C97.2144 21.5567 98.4511 18.85 100.131 16.47C101.811 14.0433 103.911 12.13 106.431 10.73C108.998 9.33 112.031 8.63 115.531 8.63C118.891 8.63 121.621 9.23666 123.721 10.45C125.868 11.6633 127.454 13.2267 128.481 15.14C129.508 17.0533 130.021 19.06 130.021 21.16C130.021 23.26 129.531 25.3133 128.551 27.32C127.571 29.28 126.148 30.9133 124.281 32.22C122.461 33.48 120.221 34.1567 117.561 34.25C117.141 34.25 116.931 34.1567 116.931 33.97C116.931 33.5967 117.374 33.3633 118.261 33.27C120.174 33.2233 121.808 32.6633 123.161 31.59C124.514 30.47 125.541 29.07 126.241 27.39C126.941 25.6633 127.291 23.8667 127.291 22C127.291 19.9933 126.848 18.0567 125.961 16.19C125.121 14.3233 123.791 12.7833 121.971 11.57C120.151 10.3567 117.818 9.75 114.971 9.75C112.124 9.75 109.674 10.38 107.621 11.64C105.568 12.9 103.864 14.6267 102.511 16.82C101.204 18.9667 100.224 21.4167 99.5711 24.17C98.9178 26.9233 98.5911 29.8167 98.5911 32.85C98.5911 36.5367 99.0344 40.2 99.9211 43.84C100.854 47.48 102.184 50.8167 103.911 53.85C105.638 56.8367 107.738 59.2167 110.211 60.99C112.684 62.81 115.508 63.72 118.681 63.72C120.828 63.72 122.811 63.23 124.631 62.25C126.451 61.3167 127.921 59.87 129.041 57.91C130.208 55.9967 130.791 53.5933 130.791 50.7C130.791 49.6733 130.721 48.6 130.581 47.48C130.441 46.36 130.184 45.17 129.811 43.91C129.764 43.77 129.741 43.6067 129.741 43.42C129.741 43.0933 129.834 42.93 130.021 42.93C130.254 42.93 130.464 43.1633 130.651 43.63C131.538 46.29 131.981 48.7867 131.981 51.12C131.981 53.8733 131.398 56.2767 130.231 58.33C129.064 60.43 127.431 62.0633 125.331 63.23C123.231 64.3967 120.734 64.98 117.841 64.98ZM142.002 33.62C141.582 33.62 141.279 33.41 141.092 32.99C140.952 32.5233 140.882 32.1967 140.882 32.01C140.882 31.2633 141.092 30.5633 141.512 29.91C141.979 29.21 142.492 28.8367 143.052 28.79H143.262C143.822 28.79 144.195 28.93 144.382 29.21C144.615 29.4433 144.732 29.7467 144.732 30.12C144.732 30.82 144.429 31.59 143.822 32.43C143.215 33.2233 142.609 33.62 142.002 33.62ZM138.432 58.68C136.845 58.68 135.772 58.0733 135.212 56.86C134.652 55.6467 134.372 54.2467 134.372 52.66C134.372 51.0733 134.535 49.4167 134.862 47.69C135.235 45.9167 135.632 44.3067 136.052 42.86C136.519 41.4133 136.869 40.3867 137.102 39.78C137.615 38.7067 138.129 37.7967 138.642 37.05C139.155 36.2567 139.715 35.86 140.322 35.86C140.742 35.86 141.045 36.0233 141.232 36.35C141.465 36.63 141.582 37.0033 141.582 37.47C141.582 38.4033 141.325 39.36 140.812 40.34C140.299 41.2733 139.832 42.16 139.412 43C138.479 44.9133 137.732 46.6167 137.172 48.11C136.659 49.6033 136.402 51.47 136.402 53.71C136.402 55.1567 136.542 56.2067 136.822 56.86C137.149 57.5133 137.592 57.84 138.152 57.84C138.899 57.84 139.762 57.42 140.742 56.58C141.722 55.6933 142.725 54.5267 143.752 53.08C144.779 51.6333 145.689 50.07 146.482 48.39C146.995 47.3167 147.392 46.78 147.672 46.78C147.859 46.78 147.952 46.9667 147.952 47.34C147.952 47.8533 147.742 48.6 147.322 49.58C146.949 50.5133 146.482 51.47 145.922 52.45C145.409 53.43 144.919 54.2 144.452 54.76C143.659 55.7867 142.749 56.6967 141.722 57.49C140.695 58.2833 139.599 58.68 138.432 58.68ZM148.586 56.44C147.746 56.44 147.14 56.09 146.766 55.39C146.393 54.6433 146.206 53.78 146.206 52.8C146.206 51.54 146.416 50.07 146.836 48.39C147.303 46.71 147.91 44.9833 148.656 43.21C149.403 41.39 150.243 39.7333 151.176 38.24C152.156 36.7 153.183 35.4633 154.256 34.53C155.33 33.55 156.38 33.06 157.406 33.06C158.34 33.06 159.133 33.48 159.786 34.32C160.486 35.1133 160.836 36.0233 160.836 37.05C160.836 37.6567 160.743 38.17 160.556 38.59C160.37 38.9633 160.16 39.15 159.926 39.15C159.74 39.15 159.576 39.01 159.436 38.73C158.97 37.6567 158.456 36.8867 157.896 36.42C157.383 35.9533 156.846 35.72 156.286 35.72C155.353 35.72 154.42 36.2567 153.486 37.33C152.6 38.3567 151.876 39.5467 151.316 40.9C150.85 41.9267 150.406 43.1633 149.986 44.61C149.613 46.01 149.286 47.41 149.006 48.81C148.773 50.1633 148.656 51.2833 148.656 52.17C148.656 53.7567 149.03 54.55 149.776 54.55C150.71 54.55 151.9 53.5233 153.346 51.47C154.42 49.9767 155.376 48.25 156.216 46.29C157.103 44.33 157.85 42.6267 158.456 41.18C158.69 40.7133 158.946 40.41 159.226 40.27C159.506 40.13 159.763 40.06 159.996 40.06C160.556 40.06 160.906 40.2933 161.046 40.76C161.233 41.2267 161.326 41.6233 161.326 41.95C161.326 43.1633 161.21 44.26 160.976 45.24C160.743 46.1733 160.626 47.3167 160.626 48.67C160.626 49.65 160.696 50.56 160.836 51.4C161.023 52.1933 161.326 52.59 161.746 52.59C162.26 52.59 162.913 51.9367 163.706 50.63C163.893 50.2567 164.173 50.07 164.546 50.07C164.966 50.07 165.176 50.28 165.176 50.7C165.176 51.3067 164.756 51.96 163.916 52.66C163.076 53.3133 162.236 53.64 161.396 53.64C160.276 53.64 159.483 53.1733 159.016 52.24C158.223 50.7 157.826 49.3233 157.826 48.11C157.826 46.85 157.803 45.9867 157.756 45.52C157.523 46.08 157.08 46.9667 156.426 48.18C155.773 49.3467 155.003 50.5833 154.116 51.89C153.23 53.15 152.296 54.2233 151.316 55.11C150.336 55.9967 149.426 56.44 148.586 56.44Z" fill="#711AC7"/>
</g>
<defs>
<filter id="filter0_d_1_24" x="0.51001" y="0.160004" width="168.666" height="90.39" filterUnits="userSpaceOnUse" color-interpolation-filters="sRGB">
<feFlood flood-opacity="0" result="BackgroundImageFix"/>
<feColorMatrix in="SourceAlpha" type="matrix" values="0 0 0 0 0 0 0 0 0 0 0 0 0 0 0 0 0 0 127 0" result="hardAlpha"/>
<feOffset dy="4"/>
<feGaussianBlur stdDeviation="2"/>
<feComposite in2="hardAlpha" operator="out"/>
<feColorMatrix type="matrix" values="0 0 0 0 0 0 0 0 0 0 0 0 0 0 0 0 0 0 0.25 0"/>
<feBlend mode="normal" in2="BackgroundImageFix" result="effect1_dropShadow_1_24"/>
<feBlend mode="normal" in="SourceGraphic" in2="effect1_dropShadow_1_24" result="shape"/>
</filter>
</defs>
</svg>
