<svg width="165" height="23" viewBox="0 0 165 23" fill="none" xmlns="http://www.w3.org/2000/svg">
<g clip-path="url(#clip0_199_2)">
<path d="M11.5001 20.101L10.5178 19.2146C8.82473 17.6653 7.42717 16.3276 6.32508 15.2016C5.223 14.0755 4.34453 13.0693 3.68966 12.1828C3.0348 11.2964 2.5756 10.4937 2.31206 9.775C2.04852 9.05625 1.91675 8.32951 1.91675 7.59479C1.91675 6.15729 2.39991 4.95538 3.36623 3.98906C4.33255 3.02274 5.52647 2.53958 6.948 2.53958C7.85842 2.53958 8.70095 2.75521 9.4756 3.18646C10.2503 3.61771 10.9251 4.24062 11.5001 5.05521C12.1709 4.19271 12.8817 3.55781 13.6324 3.15052C14.3831 2.74323 15.1897 2.53958 16.0522 2.53958C17.4737 2.53958 18.6676 3.02274 19.6339 3.98906C20.6003 4.95538 21.0834 6.15729 21.0834 7.59479C21.0834 8.32951 20.9516 9.05625 20.6881 9.775C20.4246 10.4937 19.9654 11.2964 19.3105 12.1828C18.6556 13.0693 17.7772 14.0755 16.6751 15.2016C15.573 16.3276 14.1754 17.6653 12.4824 19.2146L11.5001 20.101ZM11.5001 18.2083C13.1133 16.7229 14.443 15.4491 15.4891 14.387C16.5353 13.3248 17.3659 12.3944 17.9808 11.5958C18.5957 10.7972 19.027 10.0865 19.2746 9.46354C19.5221 8.84062 19.6459 8.21771 19.6459 7.59479C19.6459 6.54062 19.3105 5.67413 18.6397 4.99531C17.9688 4.31649 17.1063 3.97708 16.0522 3.97708C15.2376 3.97708 14.4789 4.22864 13.7761 4.73177C13.0733 5.23489 12.5063 5.94166 12.0751 6.85208H10.9011C10.4858 5.95764 9.92682 5.25486 9.22404 4.74375C8.52126 4.23264 7.76258 3.97708 6.948 3.97708C5.89383 3.97708 5.03133 4.31649 4.3605 4.99531C3.68966 5.67413 3.35425 6.54062 3.35425 7.59479C3.35425 8.21771 3.47803 8.84462 3.7256 9.47552C3.97317 10.1064 4.40442 10.8252 5.01935 11.6318C5.63428 12.4384 6.46883 13.3687 7.523 14.4229C8.57717 15.4771 9.90286 16.7389 11.5001 18.2083Z" fill="#711AC7"/>
<path d="M11.5001 20.101L10.5178 19.2146C8.82473 17.6653 7.42717 16.3276 6.32508 15.2016C5.223 14.0755 4.34453 13.0693 3.68966 12.1828C3.0348 11.2964 2.5756 10.4937 2.31206 9.775C2.04852 9.05625 1.91675 8.32951 1.91675 7.59479C1.91675 6.15729 2.39991 4.95538 3.36623 3.98906C4.33255 3.02274 5.52647 2.53958 6.948 2.53958C7.85842 2.53958 8.70095 2.75521 9.4756 3.18646C10.2503 3.61771 10.9251 4.24062 11.5001 5.05521C12.1709 4.19271 12.8817 3.55781 13.6324 3.15052C14.3831 2.74323 15.1897 2.53958 16.0522 2.53958C17.4737 2.53958 18.6676 3.02274 19.6339 3.98906C20.6003 4.95538 21.0834 6.15729 21.0834 7.59479C21.0834 8.32951 20.9516 9.05625 20.6881 9.775C20.4246 10.4937 19.9654 11.2964 19.3105 12.1828C18.6556 13.0693 17.7772 14.0755 16.6751 15.2016C15.573 16.3276 14.1754 17.6653 12.4824 19.2146L11.5001 20.101ZM11.5001 18.2083C13.1133 16.7229 14.443 15.4491 15.4891 14.387C16.5353 13.3248 17.3659 12.3944 17.9808 11.5958C18.5957 10.7972 19.027 10.0865 19.2746 9.46354C19.5221 8.84062 19.6459 8.21771 19.6459 7.59479C19.6459 6.54062 19.3105 5.67413 18.6397 4.99531C17.9688 4.31649 17.1063 3.97708 16.0522 3.97708C15.2376 3.97708 14.4789 4.22864 13.7761 4.73177C13.0733 5.23489 12.5063 5.94166 12.0751 6.85208H10.9011C10.4858 5.95764 9.92682 5.25486 9.22404 4.74375C8.52126 4.23264 7.76258 3.97708 6.948 3.97708C5.89383 3.97708 5.03133 4.31649 4.3605 4.99531C3.68966 5.67413 3.35425 6.54062 3.35425 7.59479C3.35425 8.21771 3.47803 8.84462 3.7256 9.47552C3.97317 10.1064 4.40442 10.8252 5.01935 11.6318C5.63428 12.4384 6.46883 13.3687 7.523 14.4229C8.57717 15.4771 9.90286 16.7389 11.5001 18.2083Z" fill="#711AC7"/>
<path d="M11.5001 18.0909L10.5178 17.2931C8.82473 15.8987 7.42716 14.6948 6.32508 13.6814C5.223 12.668 4.34453 11.7623 3.68966 10.9645C3.0348 10.1667 2.5756 9.44436 2.31206 8.79749C2.04852 8.15061 1.91675 7.49655 1.91675 6.8353C1.91675 5.54155 2.39991 4.45983 3.36623 3.59014C4.33255 2.72046 5.52647 2.28561 6.948 2.28561C7.85841 2.28561 8.70095 2.47968 9.4756 2.8678C10.2503 3.25593 10.9251 3.81655 11.5001 4.54968C12.1709 3.77343 12.8817 3.20202 13.6324 2.83546C14.3831 2.4689 15.1897 2.28561 16.0522 2.28561C17.4737 2.28561 18.6676 2.72046 19.6339 3.59014C20.6003 4.45983 21.0834 5.54155 21.0834 6.8353C21.0834 7.49655 20.9516 8.15061 20.6881 8.79749C20.4246 9.44436 19.9654 10.1667 19.3105 10.9645C18.6556 11.7623 17.7772 12.668 16.6751 13.6814C15.573 14.6948 14.1754 15.8987 12.4824 17.2931L11.5001 18.0909Z" fill="#711AC7"/>
</g>
<path d="M31.5327 18H30.3324L33.804 8.54545H34.9858L38.4574 18H37.2571L34.4318 10.0412H34.358L31.5327 18ZM31.9759 14.3068H36.8139V15.3224H31.9759V14.3068ZM42.4599 18.1477C41.869 18.1477 41.3473 17.9985 40.8949 17.6999C40.4425 17.3983 40.0885 16.9736 39.8331 16.4258C39.5777 15.8749 39.4499 15.224 39.4499 14.473C39.4499 13.7282 39.5777 13.0819 39.8331 12.5341C40.0885 11.9863 40.444 11.5631 40.8995 11.2646C41.355 10.966 41.8813 10.8168 42.4783 10.8168C42.94 10.8168 43.3047 10.8937 43.5724 11.0476C43.8433 11.1984 44.0495 11.3707 44.1911 11.5646C44.3357 11.7554 44.448 11.9124 44.5281 12.0355H44.6204V8.54545H45.7099V18H44.6573V16.9105H44.5281C44.448 17.0398 44.3342 17.2029 44.1864 17.3999C44.0387 17.5937 43.8279 17.7676 43.554 17.9215C43.2801 18.0723 42.9154 18.1477 42.4599 18.1477ZM42.6076 17.169C43.0446 17.169 43.4139 17.0552 43.7156 16.8274C44.0172 16.5966 44.2464 16.2781 44.4034 15.8718C44.5604 15.4625 44.6388 14.9901 44.6388 14.4545C44.6388 13.9252 44.5619 13.462 44.408 13.065C44.2541 12.6649 44.0264 12.354 43.7248 12.1325C43.4232 11.9078 43.0508 11.7955 42.6076 11.7955C42.146 11.7955 41.7612 11.9139 41.4535 12.1509C41.1488 12.3848 40.9195 12.7034 40.7656 13.1065C40.6148 13.5066 40.5394 13.956 40.5394 14.4545C40.5394 14.9593 40.6164 15.4179 40.7702 15.8303C40.9272 16.2396 41.158 16.5658 41.4627 16.8089C41.7705 17.049 42.1521 17.169 42.6076 17.169ZM47.8565 18V10.9091H48.946V18H47.8565ZM48.4105 9.72727C48.1982 9.72727 48.015 9.65495 47.8612 9.5103C47.7103 9.36565 47.6349 9.19176 47.6349 8.98864C47.6349 8.78551 47.7103 8.61162 47.8612 8.46697C48.015 8.32232 48.1982 8.25 48.4105 8.25C48.6229 8.25 48.8045 8.32232 48.9553 8.46697C49.1091 8.61162 49.1861 8.78551 49.1861 8.98864C49.1861 9.19176 49.1091 9.36565 48.9553 9.5103C48.8045 9.65495 48.6229 9.72727 48.4105 9.72727ZM53.8222 18.1477C53.1574 18.1477 52.585 17.9908 52.1048 17.6768C51.6247 17.3629 51.2554 16.9305 50.9969 16.3796C50.7384 15.8287 50.6091 15.1993 50.6091 14.4915C50.6091 13.7713 50.7414 13.1358 51.0061 12.5849C51.2739 12.0309 51.6463 11.5985 52.1233 11.2876C52.6034 10.9737 53.1636 10.8168 53.8037 10.8168C54.3023 10.8168 54.7516 10.9091 55.1517 11.0938C55.5518 11.2784 55.8796 11.5369 56.135 11.8693C56.3905 12.2017 56.549 12.5895 56.6105 13.0327H55.521C55.4379 12.7095 55.2533 12.4233 54.9671 12.174C54.6839 11.9216 54.3023 11.7955 53.8222 11.7955C53.3975 11.7955 53.0251 11.9062 52.705 12.1278C52.388 12.3464 52.1402 12.6557 51.9617 13.0558C51.7863 13.4528 51.6986 13.919 51.6986 14.4545C51.6986 15.0024 51.7848 15.4794 51.9571 15.8857C52.1325 16.2919 52.3788 16.6074 52.6958 16.832C53.0158 17.0567 53.3913 17.169 53.8222 17.169C54.1053 17.169 54.3623 17.1198 54.5931 17.0213C54.824 16.9228 55.0194 16.7812 55.1794 16.5966C55.3395 16.4119 55.4533 16.1903 55.521 15.9318H56.6105C56.549 16.3504 56.3966 16.7274 56.1535 17.0629C55.9134 17.3952 55.5949 17.6599 55.1979 17.8569C54.8039 18.0508 54.3454 18.1477 53.8222 18.1477ZM58.2032 18V10.9091H59.2927V18H58.2032ZM58.7572 9.72727C58.5448 9.72727 58.3617 9.65495 58.2078 9.5103C58.057 9.36565 57.9816 9.19176 57.9816 8.98864C57.9816 8.78551 58.057 8.61162 58.2078 8.46697C58.3617 8.32232 58.5448 8.25 58.7572 8.25C58.9695 8.25 59.1511 8.32232 59.3019 8.46697C59.4558 8.61162 59.5328 8.78551 59.5328 8.98864C59.5328 9.19176 59.4558 9.36565 59.3019 9.5103C59.1511 9.65495 58.9695 9.72727 58.7572 9.72727ZM64.1689 18.1477C63.5287 18.1477 62.967 17.9954 62.4838 17.6907C62.0037 17.386 61.6283 16.9598 61.3574 16.4119C61.0897 15.8641 60.9558 15.224 60.9558 14.4915C60.9558 13.7528 61.0897 13.1081 61.3574 12.5572C61.6283 12.0063 62.0037 11.5785 62.4838 11.2738C62.967 10.9691 63.5287 10.8168 64.1689 10.8168C64.809 10.8168 65.3691 10.9691 65.8493 11.2738C66.3324 11.5785 66.7079 12.0063 66.9757 12.5572C67.2465 13.1081 67.3819 13.7528 67.3819 14.4915C67.3819 15.224 67.2465 15.8641 66.9757 16.4119C66.7079 16.9598 66.3324 17.386 65.8493 17.6907C65.3691 17.9954 64.809 18.1477 64.1689 18.1477ZM64.1689 17.169C64.6551 17.169 65.0552 17.0444 65.3691 16.7951C65.6831 16.5458 65.9154 16.218 66.0662 15.8118C66.217 15.4055 66.2924 14.9654 66.2924 14.4915C66.2924 14.0175 66.217 13.5759 66.0662 13.1665C65.9154 12.7572 65.6831 12.4264 65.3691 12.174C65.0552 11.9216 64.6551 11.7955 64.1689 11.7955C63.6826 11.7955 63.2825 11.9216 62.9686 12.174C62.6547 12.4264 62.4223 12.7572 62.2715 13.1665C62.1207 13.5759 62.0453 14.0175 62.0453 14.4915C62.0453 14.9654 62.1207 15.4055 62.2715 15.8118C62.4223 16.218 62.6547 16.5458 62.9686 16.7951C63.2825 17.0444 63.6826 17.169 64.1689 17.169ZM70.1345 13.7344V18H69.045V10.9091H70.0976V12.017H70.1899C70.3561 11.657 70.6085 11.3677 70.947 11.1491C71.2855 10.9276 71.7226 10.8168 72.2581 10.8168C72.7382 10.8168 73.1583 10.9152 73.5184 11.1122C73.8785 11.3061 74.1585 11.6016 74.3586 11.9986C74.5586 12.3925 74.6586 12.8911 74.6586 13.4943V18H73.5692V13.5682C73.5692 13.0111 73.4245 12.5772 73.1352 12.2663C72.8459 11.9524 72.4489 11.7955 71.9442 11.7955C71.5964 11.7955 71.2855 11.8709 71.0116 12.0217C70.7408 12.1725 70.5269 12.3925 70.3699 12.6818C70.213 12.9711 70.1345 13.322 70.1345 13.7344ZM78.7362 18.1662C78.2868 18.1662 77.879 18.0816 77.5128 17.9123C77.1465 17.7399 76.8557 17.4922 76.6403 17.169C76.4248 16.8428 76.3171 16.4489 76.3171 15.9872C76.3171 15.581 76.3971 15.2517 76.5572 14.9993C76.7172 14.7438 76.9311 14.5438 77.1989 14.3991C77.4666 14.2545 77.7621 14.1468 78.0852 14.076C78.4115 14.0021 78.7392 13.9437 79.0685 13.9006C79.4994 13.8452 79.8487 13.8036 80.1165 13.7759C80.3873 13.7451 80.5843 13.6944 80.7074 13.6236C80.8336 13.5528 80.8967 13.4297 80.8967 13.2543V13.2173C80.8967 12.7618 80.772 12.4079 80.5227 12.1555C80.2765 11.9032 79.9026 11.777 79.4009 11.777C78.8808 11.777 78.473 11.8909 78.1776 12.1186C77.8821 12.3464 77.6744 12.5895 77.5543 12.848L76.5202 12.4787C76.7049 12.0478 76.9511 11.7124 77.2589 11.4723C77.5697 11.2292 77.9083 11.0599 78.2745 10.9645C78.6438 10.866 79.007 10.8168 79.364 10.8168C79.5917 10.8168 79.8533 10.8445 80.1488 10.8999C80.4473 10.9522 80.7351 11.0614 81.0121 11.2276C81.2921 11.3938 81.5245 11.6446 81.7092 11.9801C81.8938 12.3156 81.9862 12.7649 81.9862 13.3281V18H80.8967V17.0398H80.8413C80.7674 17.1937 80.6443 17.3583 80.4719 17.5337C80.2996 17.7092 80.0703 17.8584 79.7841 17.9815C79.4979 18.1046 79.1486 18.1662 78.7362 18.1662ZM78.9023 17.1875C79.3332 17.1875 79.6964 17.1029 79.9918 16.9336C80.2904 16.7643 80.515 16.5458 80.6658 16.2781C80.8197 16.0103 80.8967 15.7287 80.8967 15.4332V14.4361C80.8505 14.4915 80.7489 14.5423 80.592 14.5884C80.4381 14.6315 80.2596 14.67 80.0565 14.7038C79.8564 14.7346 79.661 14.7623 79.4702 14.7869C79.2824 14.8085 79.1301 14.8269 79.0131 14.8423C78.73 14.8793 78.4653 14.9393 78.2191 15.0224C77.976 15.1024 77.779 15.224 77.6282 15.3871C77.4805 15.5471 77.4066 15.7656 77.4066 16.0426C77.4066 16.4212 77.5466 16.7074 77.8267 16.9013C78.1098 17.0921 78.4684 17.1875 78.9023 17.1875ZM83.9747 18V10.9091H85.0273V11.9801H85.1011C85.2304 11.6293 85.4643 11.3446 85.8028 11.1261C86.1414 10.9076 86.523 10.7983 86.9477 10.7983C87.0277 10.7983 87.1278 10.7998 87.2478 10.8029C87.3678 10.806 87.4586 10.8106 87.5202 10.8168V11.9247C87.4832 11.9155 87.3986 11.9016 87.2662 11.8832C87.137 11.8616 87 11.8509 86.8554 11.8509C86.5107 11.8509 86.2029 11.9232 85.9321 12.0678C85.6643 12.2094 85.452 12.4064 85.295 12.6587C85.1411 12.908 85.0642 13.1927 85.0642 13.5128V18H83.9747ZM95.6255 10.9091V11.8324H91.8031V10.9091H95.6255ZM92.948 18V9.9304C92.948 9.52415 93.0434 9.18561 93.2342 8.91477C93.425 8.64394 93.6728 8.44081 93.9775 8.3054C94.2821 8.16998 94.6038 8.10227 94.9423 8.10227C95.21 8.10227 95.4286 8.12382 95.5978 8.1669C95.7671 8.20999 95.8933 8.25 95.9764 8.28693L95.6625 9.22869C95.6071 9.21023 95.5301 9.18714 95.4316 9.15945C95.3362 9.13175 95.21 9.1179 95.0531 9.1179C94.693 9.1179 94.4329 9.20869 94.2729 9.39027C94.1159 9.57185 94.0375 9.83807 94.0375 10.1889V18H92.948ZM99.036 18.1662C98.5866 18.1662 98.1788 18.0816 97.8126 17.9123C97.4463 17.7399 97.1555 17.4922 96.9401 17.169C96.7246 16.8428 96.6169 16.4489 96.6169 15.9872C96.6169 15.581 96.6969 15.2517 96.857 14.9993C97.017 14.7438 97.2309 14.5438 97.4987 14.3991C97.7664 14.2545 98.0619 14.1468 98.385 14.076C98.7113 14.0021 99.039 13.9437 99.3683 13.9006C99.7992 13.8452 100.149 13.8036 100.416 13.7759C100.687 13.7451 100.884 13.6944 101.007 13.6236C101.133 13.5528 101.196 13.4297 101.196 13.2543V13.2173C101.196 12.7618 101.072 12.4079 100.823 12.1555C100.576 11.9032 100.202 11.777 99.7007 11.777C99.1806 11.777 98.7728 11.8909 98.4774 12.1186C98.1819 12.3464 97.9742 12.5895 97.8541 12.848L96.82 12.4787C97.0047 12.0478 97.2509 11.7124 97.5587 11.4723C97.8695 11.2292 98.2081 11.0599 98.5743 10.9645C98.9436 10.866 99.3068 10.8168 99.6638 10.8168C99.8915 10.8168 100.153 10.8445 100.449 10.8999C100.747 10.9522 101.035 11.0614 101.312 11.2276C101.592 11.3938 101.824 11.6446 102.009 11.9801C102.194 12.3156 102.286 12.7649 102.286 13.3281V18H101.196V17.0398H101.141C101.067 17.1937 100.944 17.3583 100.772 17.5337C100.599 17.7092 100.37 17.8584 100.084 17.9815C99.7977 18.1046 99.4484 18.1662 99.036 18.1662ZM99.2021 17.1875C99.633 17.1875 99.9962 17.1029 100.292 16.9336C100.59 16.7643 100.815 16.5458 100.966 16.2781C101.12 16.0103 101.196 15.7287 101.196 15.4332V14.4361C101.15 14.4915 101.049 14.5423 100.892 14.5884C100.738 14.6315 100.559 14.67 100.356 14.7038C100.156 14.7346 99.9608 14.7623 99.77 14.7869C99.5822 14.8085 99.4299 14.8269 99.3129 14.8423C99.0298 14.8793 98.7651 14.9393 98.5189 15.0224C98.2758 15.1024 98.0788 15.224 97.928 15.3871C97.7803 15.5471 97.7064 15.7656 97.7064 16.0426C97.7064 16.4212 97.8464 16.7074 98.1265 16.9013C98.4097 17.0921 98.7682 17.1875 99.2021 17.1875ZM109.819 10.9091L107.197 18H106.089L103.467 10.9091H104.648L106.606 16.5597H106.68L108.637 10.9091H109.819ZM113.884 18.1477C113.244 18.1477 112.682 17.9954 112.199 17.6907C111.719 17.386 111.343 16.9598 111.072 16.4119C110.805 15.8641 110.671 15.224 110.671 14.4915C110.671 13.7528 110.805 13.1081 111.072 12.5572C111.343 12.0063 111.719 11.5785 112.199 11.2738C112.682 10.9691 113.244 10.8168 113.884 10.8168C114.524 10.8168 115.084 10.9691 115.564 11.2738C116.047 11.5785 116.423 12.0063 116.691 12.5572C116.961 13.1081 117.097 13.7528 117.097 14.4915C117.097 15.224 116.961 15.8641 116.691 16.4119C116.423 16.9598 116.047 17.386 115.564 17.6907C115.084 17.9954 114.524 18.1477 113.884 18.1477ZM113.884 17.169C114.37 17.169 114.77 17.0444 115.084 16.7951C115.398 16.5458 115.63 16.218 115.781 15.8118C115.932 15.4055 116.007 14.9654 116.007 14.4915C116.007 14.0175 115.932 13.5759 115.781 13.1665C115.63 12.7572 115.398 12.4264 115.084 12.174C114.77 11.9216 114.37 11.7955 113.884 11.7955C113.397 11.7955 112.997 11.9216 112.683 12.174C112.369 12.4264 112.137 12.7572 111.986 13.1665C111.836 13.5759 111.76 14.0175 111.76 14.4915C111.76 14.9654 111.836 15.4055 111.986 15.8118C112.137 16.218 112.369 16.5458 112.683 16.7951C112.997 17.0444 113.397 17.169 113.884 17.169ZM118.76 18V10.9091H119.812V11.9801H119.886C120.016 11.6293 120.249 11.3446 120.588 11.1261C120.927 10.9076 121.308 10.7983 121.733 10.7983C121.813 10.7983 121.913 10.7998 122.033 10.8029C122.153 10.806 122.244 10.8106 122.305 10.8168V11.9247C122.268 11.9155 122.184 11.9016 122.051 11.8832C121.922 11.8616 121.785 11.8509 121.641 11.8509C121.296 11.8509 120.988 11.9232 120.717 12.0678C120.449 12.2094 120.237 12.4064 120.08 12.6587C119.926 12.908 119.849 13.1927 119.849 13.5128V18H118.76ZM123.597 18V10.9091H124.686V18H123.597ZM124.151 9.72727C123.938 9.72727 123.755 9.65495 123.601 9.5103C123.451 9.36565 123.375 9.19176 123.375 8.98864C123.375 8.78551 123.451 8.61162 123.601 8.46697C123.755 8.32232 123.938 8.25 124.151 8.25C124.363 8.25 124.545 8.32232 124.695 8.46697C124.849 8.61162 124.926 8.78551 124.926 8.98864C124.926 9.19176 124.849 9.36565 124.695 9.5103C124.545 9.65495 124.363 9.72727 124.151 9.72727ZM129.766 10.9091V11.8324H126.091V10.9091H129.766ZM127.162 9.21023H128.251V15.9688C128.251 16.2765 128.296 16.5073 128.385 16.6612C128.478 16.812 128.594 16.9136 128.736 16.9659C128.881 17.0152 129.033 17.0398 129.193 17.0398C129.313 17.0398 129.412 17.0336 129.489 17.0213C129.565 17.0059 129.627 16.9936 129.673 16.9844L129.895 17.9631C129.821 17.9908 129.718 18.0185 129.585 18.0462C129.453 18.0769 129.285 18.0923 129.082 18.0923C128.775 18.0923 128.473 18.0262 128.177 17.8938C127.885 17.7615 127.642 17.5599 127.448 17.2891C127.257 17.0182 127.162 16.6766 127.162 16.2642V9.21023ZM134.209 18.1477C133.569 18.1477 133.007 17.9954 132.524 17.6907C132.044 17.386 131.668 16.9598 131.397 16.4119C131.13 15.8641 130.996 15.224 130.996 14.4915C130.996 13.7528 131.13 13.1081 131.397 12.5572C131.668 12.0063 132.044 11.5785 132.524 11.2738C133.007 10.9691 133.569 10.8168 134.209 10.8168C134.849 10.8168 135.409 10.9691 135.889 11.2738C136.372 11.5785 136.748 12.0063 137.016 12.5572C137.287 13.1081 137.422 13.7528 137.422 14.4915C137.422 15.224 137.287 15.8641 137.016 16.4119C136.748 16.9598 136.372 17.386 135.889 17.6907C135.409 17.9954 134.849 18.1477 134.209 18.1477ZM134.209 17.169C134.695 17.169 135.095 17.0444 135.409 16.7951C135.723 16.5458 135.955 16.218 136.106 15.8118C136.257 15.4055 136.332 14.9654 136.332 14.4915C136.332 14.0175 136.257 13.5759 136.106 13.1665C135.955 12.7572 135.723 12.4264 135.409 12.174C135.095 11.9216 134.695 11.7955 134.209 11.7955C133.723 11.7955 133.323 11.9216 133.009 12.174C132.695 12.4264 132.462 12.7572 132.312 13.1665C132.161 13.5759 132.085 14.0175 132.085 14.4915C132.085 14.9654 132.161 15.4055 132.312 15.8118C132.462 16.218 132.695 16.5458 133.009 16.7951C133.323 17.0444 133.723 17.169 134.209 17.169Z" fill="#711AC7"/>
<defs>
<clipPath id="clip0_199_2">
<rect width="23" height="23" fill="white"/>
</clipPath>
</defs>
</svg>
