<svg width="149" height="24" viewBox="0 0 149 24" fill="none" xmlns="http://www.w3.org/2000/svg">
<path d="M11.85 11.85C12.2833 11.3167 12.6042 10.7667 12.8125 10.2C13.0208 9.63332 13.125 8.97499 13.125 8.22499C13.125 7.47499 13.0208 6.81666 12.8125 6.24999C12.6042 5.68332 12.2833 5.13332 11.85 4.59999C13.1167 4.31666 14.2292 4.50832 15.1875 5.17499C16.1458 5.84166 16.625 6.85832 16.625 8.22499C16.625 9.59166 16.1458 10.6083 15.1875 11.275C14.2292 11.9417 13.1167 12.1333 11.85 11.85ZM17.25 20V17.65C17.25 16.8 17.0333 16.0083 16.6 15.275C16.1667 14.5417 15.4167 13.925 14.35 13.425C17.2333 13.7917 19.2042 14.325 20.2625 15.025C21.3208 15.725 21.85 16.6 21.85 17.65V20H17.25ZM20 12.775V10.275H17.5V8.77499H20V6.27499H21.5V8.77499H24V10.275H21.5V12.775H20ZM7.875 11.975C6.775 11.975 5.875 11.625 5.175 10.925C4.475 10.225 4.125 9.32499 4.125 8.22499C4.125 7.12499 4.475 6.22499 5.175 5.52499C5.875 4.82499 6.775 4.47499 7.875 4.47499C8.975 4.47499 9.875 4.82499 10.575 5.52499C11.275 6.22499 11.625 7.12499 11.625 8.22499C11.625 9.32499 11.275 10.225 10.575 10.925C9.875 11.625 8.975 11.975 7.875 11.975ZM0 20V17.65C0 17.0667 0.154167 16.5375 0.4625 16.0625C0.770833 15.5875 1.18333 15.2333 1.7 15C2.9 14.4667 3.97083 14.0833 4.9125 13.85C5.85417 13.6167 6.84167 13.5 7.875 13.5C8.90833 13.5 9.89167 13.6167 10.825 13.85C11.7583 14.0833 12.825 14.4667 14.025 15C14.5417 15.2333 14.9583 15.5875 15.275 16.0625C15.5917 16.5375 15.75 17.0667 15.75 17.65V20H0ZM7.875 10.475C8.525 10.475 9.0625 10.2625 9.4875 9.83749C9.9125 9.41249 10.125 8.87499 10.125 8.22499C10.125 7.57499 9.9125 7.03749 9.4875 6.61249C9.0625 6.18749 8.525 5.97499 7.875 5.97499C7.225 5.97499 6.6875 6.18749 6.2625 6.61249C5.8375 7.03749 5.625 7.57499 5.625 8.22499C5.625 8.87499 5.8375 9.41249 6.2625 9.83749C6.6875 10.2625 7.225 10.475 7.875 10.475ZM1.5 18.5H14.25V17.65C14.25 17.3833 14.1833 17.1333 14.05 16.9C13.9167 16.6667 13.7083 16.4833 13.425 16.35C12.275 15.8167 11.3 15.4583 10.5 15.275C9.7 15.0917 8.825 15 7.875 15C6.925 15 6.05417 15.0917 5.2625 15.275C4.47083 15.4583 3.48333 15.8167 2.3 16.35C2.05 16.4667 1.85417 16.6458 1.7125 16.8875C1.57083 17.1292 1.5 17.3833 1.5 17.65V18.5Z" fill="#711AC7"/>
<path d="M35.5327 17H34.3324L37.804 7.54545H38.9858L42.4574 17H41.2571L38.4318 9.04119H38.358L35.5327 17ZM35.9759 13.3068H40.8139V14.3224H35.9759V13.3068ZM46.4599 17.1477C45.869 17.1477 45.3473 16.9985 44.8949 16.6999C44.4425 16.3983 44.0885 15.9736 43.8331 15.4258C43.5777 14.8749 43.4499 14.224 43.4499 13.473C43.4499 12.7282 43.5777 12.0819 43.8331 11.5341C44.0885 10.9863 44.444 10.5631 44.8995 10.2646C45.355 9.96603 45.8813 9.81676 46.4783 9.81676C46.94 9.81676 47.3047 9.8937 47.5724 10.0476C47.8433 10.1984 48.0495 10.3707 48.1911 10.5646C48.3357 10.7554 48.448 10.9124 48.5281 11.0355H48.6204V7.54545H49.7099V17H48.6573V15.9105H48.5281C48.448 16.0398 48.3342 16.2029 48.1864 16.3999C48.0387 16.5937 47.8279 16.7676 47.554 16.9215C47.2801 17.0723 46.9154 17.1477 46.4599 17.1477ZM46.6076 16.169C47.0446 16.169 47.4139 16.0552 47.7156 15.8274C48.0172 15.5966 48.2464 15.2781 48.4034 14.8718C48.5604 14.4625 48.6388 13.9901 48.6388 13.4545C48.6388 12.9252 48.5619 12.462 48.408 12.065C48.2541 11.6649 48.0264 11.354 47.7248 11.1325C47.4232 10.9078 47.0508 10.7955 46.6076 10.7955C46.146 10.7955 45.7612 10.9139 45.4535 11.1509C45.1488 11.3848 44.9195 11.7034 44.7656 12.1065C44.6148 12.5066 44.5394 12.956 44.5394 13.4545C44.5394 13.9593 44.6164 14.4179 44.7702 14.8303C44.9272 15.2396 45.158 15.5658 45.4627 15.8089C45.7705 16.049 46.1521 16.169 46.6076 16.169ZM51.8565 17V9.90909H52.946V17H51.8565ZM52.4105 8.72727C52.1982 8.72727 52.015 8.65495 51.8612 8.5103C51.7103 8.36565 51.6349 8.19176 51.6349 7.98864C51.6349 7.78551 51.7103 7.61162 51.8612 7.46697C52.015 7.32232 52.1982 7.25 52.4105 7.25C52.6229 7.25 52.8045 7.32232 52.9553 7.46697C53.1091 7.61162 53.1861 7.78551 53.1861 7.98864C53.1861 8.19176 53.1091 8.36565 52.9553 8.5103C52.8045 8.65495 52.6229 8.72727 52.4105 8.72727ZM57.8222 17.1477C57.1574 17.1477 56.585 16.9908 56.1048 16.6768C55.6247 16.3629 55.2554 15.9305 54.9969 15.3796C54.7384 14.8287 54.6091 14.1993 54.6091 13.4915C54.6091 12.7713 54.7414 12.1358 55.0061 11.5849C55.2739 11.0309 55.6463 10.5985 56.1233 10.2876C56.6034 9.97372 57.1636 9.81676 57.8037 9.81676C58.3023 9.81676 58.7516 9.90909 59.1517 10.0938C59.5518 10.2784 59.8796 10.5369 60.135 10.8693C60.3905 11.2017 60.549 11.5895 60.6105 12.0327H59.521C59.4379 11.7095 59.2533 11.4233 58.9671 11.174C58.6839 10.9216 58.3023 10.7955 57.8222 10.7955C57.3975 10.7955 57.0251 10.9062 56.705 11.1278C56.388 11.3464 56.1402 11.6557 55.9617 12.0558C55.7863 12.4528 55.6986 12.919 55.6986 13.4545C55.6986 14.0024 55.7848 14.4794 55.9571 14.8857C56.1325 15.2919 56.3788 15.6074 56.6958 15.832C57.0158 16.0567 57.3913 16.169 57.8222 16.169C58.1053 16.169 58.3623 16.1198 58.5931 16.0213C58.824 15.9228 59.0194 15.7812 59.1794 15.5966C59.3395 15.4119 59.4533 15.1903 59.521 14.9318H60.6105C60.549 15.3504 60.3966 15.7274 60.1535 16.0629C59.9134 16.3952 59.5949 16.6599 59.1979 16.8569C58.8039 17.0508 58.3454 17.1477 57.8222 17.1477ZM62.2032 17V9.90909H63.2927V17H62.2032ZM62.7572 8.72727C62.5448 8.72727 62.3617 8.65495 62.2078 8.5103C62.057 8.36565 61.9816 8.19176 61.9816 7.98864C61.9816 7.78551 62.057 7.61162 62.2078 7.46697C62.3617 7.32232 62.5448 7.25 62.7572 7.25C62.9695 7.25 63.1511 7.32232 63.3019 7.46697C63.4558 7.61162 63.5328 7.78551 63.5328 7.98864C63.5328 8.19176 63.4558 8.36565 63.3019 8.5103C63.1511 8.65495 62.9695 8.72727 62.7572 8.72727ZM68.1689 17.1477C67.5287 17.1477 66.967 16.9954 66.4838 16.6907C66.0037 16.386 65.6283 15.9598 65.3574 15.4119C65.0897 14.8641 64.9558 14.224 64.9558 13.4915C64.9558 12.7528 65.0897 12.1081 65.3574 11.5572C65.6283 11.0063 66.0037 10.5785 66.4838 10.2738C66.967 9.96911 67.5287 9.81676 68.1689 9.81676C68.809 9.81676 69.3691 9.96911 69.8493 10.2738C70.3324 10.5785 70.7079 11.0063 70.9757 11.5572C71.2465 12.1081 71.3819 12.7528 71.3819 13.4915C71.3819 14.224 71.2465 14.8641 70.9757 15.4119C70.7079 15.9598 70.3324 16.386 69.8493 16.6907C69.3691 16.9954 68.809 17.1477 68.1689 17.1477ZM68.1689 16.169C68.6551 16.169 69.0552 16.0444 69.3691 15.7951C69.6831 15.5458 69.9154 15.218 70.0662 14.8118C70.217 14.4055 70.2924 13.9654 70.2924 13.4915C70.2924 13.0175 70.217 12.5759 70.0662 12.1665C69.9154 11.7572 69.6831 11.4264 69.3691 11.174C69.0552 10.9216 68.6551 10.7955 68.1689 10.7955C67.6826 10.7955 67.2825 10.9216 66.9686 11.174C66.6547 11.4264 66.4223 11.7572 66.2715 12.1665C66.1207 12.5759 66.0453 13.0175 66.0453 13.4915C66.0453 13.9654 66.1207 14.4055 66.2715 14.8118C66.4223 15.218 66.6547 15.5458 66.9686 15.7951C67.2825 16.0444 67.6826 16.169 68.1689 16.169ZM74.1345 12.7344V17H73.045V9.90909H74.0976V11.017H74.1899C74.3561 10.657 74.6085 10.3677 74.947 10.1491C75.2855 9.92756 75.7226 9.81676 76.2581 9.81676C76.7382 9.81676 77.1583 9.91525 77.5184 10.1122C77.8785 10.3061 78.1585 10.6016 78.3586 10.9986C78.5586 11.3925 78.6586 11.8911 78.6586 12.4943V17H77.5692V12.5682C77.5692 12.0111 77.4245 11.5772 77.1352 11.2663C76.8459 10.9524 76.4489 10.7955 75.9442 10.7955C75.5964 10.7955 75.2855 10.8709 75.0116 11.0217C74.7408 11.1725 74.5269 11.3925 74.3699 11.6818C74.213 11.9711 74.1345 12.322 74.1345 12.7344ZM82.7362 17.1662C82.2868 17.1662 81.879 17.0816 81.5128 16.9123C81.1465 16.7399 80.8557 16.4922 80.6403 16.169C80.4248 15.8428 80.3171 15.4489 80.3171 14.9872C80.3171 14.581 80.3971 14.2517 80.5572 13.9993C80.7172 13.7438 80.9311 13.5438 81.1989 13.3991C81.4666 13.2545 81.7621 13.1468 82.0852 13.076C82.4115 13.0021 82.7392 12.9437 83.0685 12.9006C83.4994 12.8452 83.8487 12.8036 84.1165 12.7759C84.3873 12.7451 84.5843 12.6944 84.7074 12.6236C84.8336 12.5528 84.8967 12.4297 84.8967 12.2543V12.2173C84.8967 11.7618 84.772 11.4079 84.5227 11.1555C84.2765 10.9032 83.9026 10.777 83.4009 10.777C82.8808 10.777 82.473 10.8909 82.1776 11.1186C81.8821 11.3464 81.6744 11.5895 81.5543 11.848L80.5202 11.4787C80.7049 11.0478 80.9511 10.7124 81.2589 10.4723C81.5697 10.2292 81.9083 10.0599 82.2745 9.96449C82.6438 9.866 83.007 9.81676 83.364 9.81676C83.5917 9.81676 83.8533 9.84446 84.1488 9.89986C84.4473 9.95218 84.7351 10.0614 85.0121 10.2276C85.2921 10.3938 85.5245 10.6446 85.7092 10.9801C85.8938 11.3156 85.9862 11.7649 85.9862 12.3281V17H84.8967V16.0398H84.8413C84.7674 16.1937 84.6443 16.3583 84.4719 16.5337C84.2996 16.7092 84.0703 16.8584 83.7841 16.9815C83.4979 17.1046 83.1486 17.1662 82.7362 17.1662ZM82.9023 16.1875C83.3332 16.1875 83.6964 16.1029 83.9918 15.9336C84.2904 15.7643 84.515 15.5458 84.6658 15.2781C84.8197 15.0103 84.8967 14.7287 84.8967 14.4332V13.4361C84.8505 13.4915 84.7489 13.5423 84.592 13.5884C84.4381 13.6315 84.2596 13.67 84.0565 13.7038C83.8564 13.7346 83.661 13.7623 83.4702 13.7869C83.2824 13.8085 83.1301 13.8269 83.0131 13.8423C82.73 13.8793 82.4653 13.9393 82.2191 14.0224C81.976 14.1024 81.779 14.224 81.6282 14.3871C81.4805 14.5471 81.4066 14.7656 81.4066 15.0426C81.4066 15.4212 81.5466 15.7074 81.8267 15.9013C82.1098 16.0921 82.4684 16.1875 82.9023 16.1875ZM87.9747 17V9.90909H89.0273V10.9801H89.1011C89.2304 10.6293 89.4643 10.3446 89.8028 10.1261C90.1414 9.90755 90.523 9.79829 90.9477 9.79829C91.0277 9.79829 91.1278 9.79983 91.2478 9.80291C91.3678 9.80599 91.4586 9.81061 91.5202 9.81676V10.9247C91.4832 10.9155 91.3986 10.9016 91.2662 10.8832C91.137 10.8616 91 10.8509 90.8554 10.8509C90.5107 10.8509 90.2029 10.9232 89.9321 11.0678C89.6643 11.2094 89.452 11.4064 89.295 11.6587C89.1411 11.908 89.0642 12.1927 89.0642 12.5128V17H87.9747ZM99.3301 19.8068C98.8038 19.8068 98.3514 19.7391 97.9728 19.6037C97.5943 19.4714 97.2788 19.2959 97.0265 19.0774C96.7772 18.862 96.5787 18.6312 96.4309 18.3849L97.2988 17.7756C97.3973 17.9048 97.522 18.0526 97.6728 18.2188C97.8236 18.388 98.0298 18.5342 98.2914 18.6573C98.556 18.7835 98.9023 18.8466 99.3301 18.8466C99.9025 18.8466 100.375 18.7081 100.747 18.4311C101.12 18.1541 101.306 17.7202 101.306 17.1293V15.6889H101.214C101.134 15.8182 101.02 15.9782 100.872 16.169C100.727 16.3568 100.518 16.5245 100.244 16.6722C99.9733 16.8169 99.6071 16.8892 99.1454 16.8892C98.573 16.8892 98.059 16.7538 97.6035 16.483C97.1511 16.2121 96.7926 15.8182 96.5279 15.3011C96.2663 14.7841 96.1355 14.1562 96.1355 13.4176C96.1355 12.6913 96.2632 12.0588 96.5186 11.5202C96.7741 10.9786 97.1296 10.56 97.585 10.2646C98.0405 9.96603 98.5668 9.81676 99.1639 9.81676C99.6255 9.81676 99.9918 9.8937 100.263 10.0476C100.537 10.1984 100.746 10.3707 100.89 10.5646C101.038 10.7554 101.152 10.9124 101.232 11.0355H101.343V9.90909H102.395V17.2031C102.395 17.8125 102.257 18.308 101.98 18.6896C101.706 19.0743 101.337 19.3559 100.872 19.5344C100.41 19.716 99.8964 19.8068 99.3301 19.8068ZM99.2931 15.9105C99.7302 15.9105 100.099 15.8105 100.401 15.6104C100.703 15.4104 100.932 15.1226 101.089 14.7472C101.246 14.3717 101.324 13.9223 101.324 13.3991C101.324 12.8883 101.247 12.4374 101.094 12.0465C100.94 11.6557 100.712 11.3494 100.41 11.1278C100.109 10.9062 99.7363 10.7955 99.2931 10.7955C98.8315 10.7955 98.4468 10.9124 98.139 11.1463C97.8343 11.3802 97.6051 11.6941 97.4512 12.0881C97.3004 12.482 97.225 12.919 97.225 13.3991C97.225 13.8916 97.3019 14.3271 97.4558 14.7056C97.6127 15.0811 97.8436 15.3765 98.1483 15.592C98.456 15.8043 98.8377 15.9105 99.2931 15.9105ZM104.39 17V9.90909H105.442V10.9801H105.516C105.645 10.6293 105.879 10.3446 106.218 10.1261C106.556 9.90755 106.938 9.79829 107.363 9.79829C107.443 9.79829 107.543 9.79983 107.663 9.80291C107.783 9.80599 107.874 9.81061 107.935 9.81676V10.9247C107.898 10.9155 107.814 10.9016 107.681 10.8832C107.552 10.8616 107.415 10.8509 107.27 10.8509C106.926 10.8509 106.618 10.9232 106.347 11.0678C106.079 11.2094 105.867 11.4064 105.71 11.6587C105.556 11.908 105.479 12.1927 105.479 12.5128V17H104.39ZM113.695 14.1009V9.90909H114.785V17H113.695V15.7997H113.622C113.455 16.1598 113.197 16.466 112.846 16.7184C112.495 16.9677 112.052 17.0923 111.516 17.0923C111.073 17.0923 110.679 16.9954 110.335 16.8015C109.99 16.6045 109.719 16.3091 109.522 15.9151C109.325 15.5181 109.227 15.018 109.227 14.4148V9.90909H110.316V14.3409C110.316 14.858 110.461 15.2704 110.75 15.5781C111.042 15.8859 111.415 16.0398 111.867 16.0398C112.138 16.0398 112.414 15.9705 112.694 15.832C112.977 15.6935 113.214 15.4812 113.405 15.195C113.598 14.9087 113.695 14.544 113.695 14.1009ZM116.78 19.6591V9.90909H117.833V11.0355H117.962C118.042 10.9124 118.153 10.7554 118.295 10.5646C118.439 10.3707 118.645 10.1984 118.913 10.0476C119.184 9.8937 119.55 9.81676 120.012 9.81676C120.609 9.81676 121.135 9.96603 121.591 10.2646C122.046 10.5631 122.402 10.9863 122.657 11.5341C122.913 12.0819 123.04 12.7282 123.04 13.473C123.04 14.224 122.913 14.8749 122.657 15.4258C122.402 15.9736 122.048 16.3983 121.595 16.6999C121.143 16.9985 120.621 17.1477 120.03 17.1477C119.575 17.1477 119.21 17.0723 118.936 16.9215C118.662 16.7676 118.452 16.5937 118.304 16.3999C118.156 16.2029 118.042 16.0398 117.962 15.9105H117.87V19.6591H116.78ZM117.851 13.4545C117.851 13.9901 117.93 14.4625 118.087 14.8718C118.244 15.2781 118.473 15.5966 118.775 15.8274C119.076 16.0552 119.446 16.169 119.883 16.169C120.338 16.169 120.718 16.049 121.023 15.8089C121.331 15.5658 121.561 15.2396 121.715 14.8303C121.872 14.4179 121.951 13.9593 121.951 13.4545C121.951 12.956 121.874 12.5066 121.72 12.1065C121.569 11.7034 121.34 11.3848 121.032 11.1509C120.727 10.9139 120.344 10.7955 119.883 10.7955C119.439 10.7955 119.067 10.9078 118.765 11.1325C118.464 11.354 118.236 11.6649 118.082 12.065C117.928 12.462 117.851 12.9252 117.851 13.4545ZM127.583 17.1477C126.943 17.1477 126.381 16.9954 125.898 16.6907C125.418 16.386 125.042 15.9598 124.771 15.4119C124.504 14.8641 124.37 14.224 124.37 13.4915C124.37 12.7528 124.504 12.1081 124.771 11.5572C125.042 11.0063 125.418 10.5785 125.898 10.2738C126.381 9.96911 126.943 9.81676 127.583 9.81676C128.223 9.81676 128.783 9.96911 129.263 10.2738C129.747 10.5785 130.122 11.0063 130.39 11.5572C130.661 12.1081 130.796 12.7528 130.796 13.4915C130.796 14.224 130.661 14.8641 130.39 15.4119C130.122 15.9598 129.747 16.386 129.263 16.6907C128.783 16.9954 128.223 17.1477 127.583 17.1477ZM127.583 16.169C128.069 16.169 128.469 16.0444 128.783 15.7951C129.097 15.5458 129.329 15.218 129.48 14.8118C129.631 14.4055 129.706 13.9654 129.706 13.4915C129.706 13.0175 129.631 12.5759 129.48 12.1665C129.329 11.7572 129.097 11.4264 128.783 11.174C128.469 10.9216 128.069 10.7955 127.583 10.7955C127.097 10.7955 126.697 10.9216 126.383 11.174C126.069 11.4264 125.836 11.7572 125.686 12.1665C125.535 12.5759 125.459 13.0175 125.459 13.4915C125.459 13.9654 125.535 14.4055 125.686 14.8118C125.836 15.218 126.069 15.5458 126.383 15.7951C126.697 16.0444 127.097 16.169 127.583 16.169Z" fill="#711AC7"/>
</svg>
