<svg width="150" height="24" viewBox="0 0 150 24" fill="none" xmlns="http://www.w3.org/2000/svg">
<path d="M18.25 14V10.75H15V9.25001H18.25V6.00001H19.75V9.25001H23V10.75H19.75V14H18.25ZM9 11.975C7.9 11.975 7 11.625 6.3 10.925C5.6 10.225 5.25 9.32501 5.25 8.22501C5.25 7.12501 5.6 6.22501 6.3 5.52501C7 4.82501 7.9 4.47501 9 4.47501C10.1 4.47501 11 4.82501 11.7 5.52501C12.4 6.22501 12.75 7.12501 12.75 8.22501C12.75 9.32501 12.4 10.225 11.7 10.925C11 11.625 10.1 11.975 9 11.975ZM1 20V17.65C1 17.0667 1.14583 16.5375 1.4375 16.0625C1.72917 15.5875 2.15 15.2333 2.7 15C3.95 14.45 5.0625 14.0625 6.0375 13.8375C7.0125 13.6125 8 13.5 9 13.5C10 13.5 10.9833 13.6125 11.95 13.8375C12.9167 14.0625 14.025 14.45 15.275 15C15.825 15.25 16.25 15.6083 16.55 16.075C16.85 16.5417 17 17.0667 17 17.65V20H1ZM2.5 18.5H15.5V17.65C15.5 17.3833 15.425 17.1292 15.275 16.8875C15.125 16.6458 14.925 16.4667 14.675 16.35C13.4917 15.8 12.4917 15.4375 11.675 15.2625C10.8583 15.0875 9.96667 15 9 15C8.03333 15 7.1375 15.0875 6.3125 15.2625C5.4875 15.4375 4.48333 15.8 3.3 16.35C3.05 16.4667 2.85417 16.6458 2.7125 16.8875C2.57083 17.1292 2.5 17.3833 2.5 17.65V18.5ZM9 10.475C9.65 10.475 10.1875 10.2625 10.6125 9.83751C11.0375 9.41251 11.25 8.87501 11.25 8.22501C11.25 7.57501 11.0375 7.03751 10.6125 6.61251C10.1875 6.18751 9.65 5.97501 9 5.97501C8.35 5.97501 7.8125 6.18751 7.3875 6.61251C6.9625 7.03751 6.75 7.57501 6.75 8.22501C6.75 8.87501 6.9625 9.41251 7.3875 9.83751C7.8125 10.2625 8.35 10.475 9 10.475Z" fill="#711AC7"/>
<path d="M36.5327 17H35.3324L38.804 7.54545H39.9858L43.4574 17H42.2571L39.4318 9.04119H39.358L36.5327 17ZM36.9759 13.3068H41.8139V14.3224H36.9759V13.3068ZM47.4599 17.1477C46.869 17.1477 46.3473 16.9985 45.8949 16.6999C45.4425 16.3983 45.0885 15.9736 44.8331 15.4258C44.5777 14.8749 44.4499 14.224 44.4499 13.473C44.4499 12.7282 44.5777 12.0819 44.8331 11.5341C45.0885 10.9863 45.444 10.5631 45.8995 10.2646C46.355 9.96603 46.8813 9.81676 47.4783 9.81676C47.94 9.81676 48.3047 9.8937 48.5724 10.0476C48.8433 10.1984 49.0495 10.3707 49.1911 10.5646C49.3357 10.7554 49.448 10.9124 49.5281 11.0355H49.6204V7.54545H50.7099V17H49.6573V15.9105H49.5281C49.448 16.0398 49.3342 16.2029 49.1864 16.3999C49.0387 16.5937 48.8279 16.7676 48.554 16.9215C48.2801 17.0723 47.9154 17.1477 47.4599 17.1477ZM47.6076 16.169C48.0446 16.169 48.4139 16.0552 48.7156 15.8274C49.0172 15.5966 49.2464 15.2781 49.4034 14.8718C49.5604 14.4625 49.6388 13.9901 49.6388 13.4545C49.6388 12.9252 49.5619 12.462 49.408 12.065C49.2541 11.6649 49.0264 11.354 48.7248 11.1325C48.4232 10.9078 48.0508 10.7955 47.6076 10.7955C47.146 10.7955 46.7612 10.9139 46.4535 11.1509C46.1488 11.3848 45.9195 11.7034 45.7656 12.1065C45.6148 12.5066 45.5394 12.956 45.5394 13.4545C45.5394 13.9593 45.6164 14.4179 45.7702 14.8303C45.9272 15.2396 46.158 15.5658 46.4627 15.8089C46.7705 16.049 47.1521 16.169 47.6076 16.169ZM52.8565 17V9.90909H53.946V17H52.8565ZM53.4105 8.72727C53.1982 8.72727 53.015 8.65495 52.8612 8.5103C52.7103 8.36565 52.6349 8.19176 52.6349 7.98864C52.6349 7.78551 52.7103 7.61162 52.8612 7.46697C53.015 7.32232 53.1982 7.25 53.4105 7.25C53.6229 7.25 53.8045 7.32232 53.9553 7.46697C54.1091 7.61162 54.1861 7.78551 54.1861 7.98864C54.1861 8.19176 54.1091 8.36565 53.9553 8.5103C53.8045 8.65495 53.6229 8.72727 53.4105 8.72727ZM58.8222 17.1477C58.1574 17.1477 57.585 16.9908 57.1048 16.6768C56.6247 16.3629 56.2554 15.9305 55.9969 15.3796C55.7384 14.8287 55.6091 14.1993 55.6091 13.4915C55.6091 12.7713 55.7414 12.1358 56.0061 11.5849C56.2739 11.0309 56.6463 10.5985 57.1233 10.2876C57.6034 9.97372 58.1636 9.81676 58.8037 9.81676C59.3023 9.81676 59.7516 9.90909 60.1517 10.0938C60.5518 10.2784 60.8796 10.5369 61.135 10.8693C61.3905 11.2017 61.549 11.5895 61.6105 12.0327H60.521C60.4379 11.7095 60.2533 11.4233 59.9671 11.174C59.6839 10.9216 59.3023 10.7955 58.8222 10.7955C58.3975 10.7955 58.0251 10.9062 57.705 11.1278C57.388 11.3464 57.1402 11.6557 56.9617 12.0558C56.7863 12.4528 56.6986 12.919 56.6986 13.4545C56.6986 14.0024 56.7848 14.4794 56.9571 14.8857C57.1325 15.2919 57.3788 15.6074 57.6958 15.832C58.0158 16.0567 58.3913 16.169 58.8222 16.169C59.1053 16.169 59.3623 16.1198 59.5931 16.0213C59.824 15.9228 60.0194 15.7812 60.1794 15.5966C60.3395 15.4119 60.4533 15.1903 60.521 14.9318H61.6105C61.549 15.3504 61.3966 15.7274 61.1535 16.0629C60.9134 16.3952 60.5949 16.6599 60.1979 16.8569C59.8039 17.0508 59.3454 17.1477 58.8222 17.1477ZM63.2032 17V9.90909H64.2927V17H63.2032ZM63.7572 8.72727C63.5448 8.72727 63.3617 8.65495 63.2078 8.5103C63.057 8.36565 62.9816 8.19176 62.9816 7.98864C62.9816 7.78551 63.057 7.61162 63.2078 7.46697C63.3617 7.32232 63.5448 7.25 63.7572 7.25C63.9695 7.25 64.1511 7.32232 64.3019 7.46697C64.4558 7.61162 64.5328 7.78551 64.5328 7.98864C64.5328 8.19176 64.4558 8.36565 64.3019 8.5103C64.1511 8.65495 63.9695 8.72727 63.7572 8.72727ZM69.1689 17.1477C68.5287 17.1477 67.967 16.9954 67.4838 16.6907C67.0037 16.386 66.6283 15.9598 66.3574 15.4119C66.0897 14.8641 65.9558 14.224 65.9558 13.4915C65.9558 12.7528 66.0897 12.1081 66.3574 11.5572C66.6283 11.0063 67.0037 10.5785 67.4838 10.2738C67.967 9.96911 68.5287 9.81676 69.1689 9.81676C69.809 9.81676 70.3691 9.96911 70.8493 10.2738C71.3324 10.5785 71.7079 11.0063 71.9757 11.5572C72.2465 12.1081 72.3819 12.7528 72.3819 13.4915C72.3819 14.224 72.2465 14.8641 71.9757 15.4119C71.7079 15.9598 71.3324 16.386 70.8493 16.6907C70.3691 16.9954 69.809 17.1477 69.1689 17.1477ZM69.1689 16.169C69.6551 16.169 70.0552 16.0444 70.3691 15.7951C70.6831 15.5458 70.9154 15.218 71.0662 14.8118C71.217 14.4055 71.2924 13.9654 71.2924 13.4915C71.2924 13.0175 71.217 12.5759 71.0662 12.1665C70.9154 11.7572 70.6831 11.4264 70.3691 11.174C70.0552 10.9216 69.6551 10.7955 69.1689 10.7955C68.6826 10.7955 68.2825 10.9216 67.9686 11.174C67.6547 11.4264 67.4223 11.7572 67.2715 12.1665C67.1207 12.5759 67.0453 13.0175 67.0453 13.4915C67.0453 13.9654 67.1207 14.4055 67.2715 14.8118C67.4223 15.218 67.6547 15.5458 67.9686 15.7951C68.2825 16.0444 68.6826 16.169 69.1689 16.169ZM75.1345 12.7344V17H74.045V9.90909H75.0976V11.017H75.1899C75.3561 10.657 75.6085 10.3677 75.947 10.1491C76.2855 9.92756 76.7226 9.81676 77.2581 9.81676C77.7382 9.81676 78.1583 9.91525 78.5184 10.1122C78.8785 10.3061 79.1585 10.6016 79.3586 10.9986C79.5586 11.3925 79.6586 11.8911 79.6586 12.4943V17H78.5692V12.5682C78.5692 12.0111 78.4245 11.5772 78.1352 11.2663C77.8459 10.9524 77.4489 10.7955 76.9442 10.7955C76.5964 10.7955 76.2855 10.8709 76.0116 11.0217C75.7408 11.1725 75.5269 11.3925 75.3699 11.6818C75.213 11.9711 75.1345 12.322 75.1345 12.7344ZM83.7362 17.1662C83.2868 17.1662 82.879 17.0816 82.5128 16.9123C82.1465 16.7399 81.8557 16.4922 81.6403 16.169C81.4248 15.8428 81.3171 15.4489 81.3171 14.9872C81.3171 14.581 81.3971 14.2517 81.5572 13.9993C81.7172 13.7438 81.9311 13.5438 82.1989 13.3991C82.4666 13.2545 82.7621 13.1468 83.0852 13.076C83.4115 13.0021 83.7392 12.9437 84.0685 12.9006C84.4994 12.8452 84.8487 12.8036 85.1165 12.7759C85.3873 12.7451 85.5843 12.6944 85.7074 12.6236C85.8336 12.5528 85.8967 12.4297 85.8967 12.2543V12.2173C85.8967 11.7618 85.772 11.4079 85.5227 11.1555C85.2765 10.9032 84.9026 10.777 84.4009 10.777C83.8808 10.777 83.473 10.8909 83.1776 11.1186C82.8821 11.3464 82.6744 11.5895 82.5543 11.848L81.5202 11.4787C81.7049 11.0478 81.9511 10.7124 82.2589 10.4723C82.5697 10.2292 82.9083 10.0599 83.2745 9.96449C83.6438 9.866 84.007 9.81676 84.364 9.81676C84.5917 9.81676 84.8533 9.84446 85.1488 9.89986C85.4473 9.95218 85.7351 10.0614 86.0121 10.2276C86.2921 10.3938 86.5245 10.6446 86.7092 10.9801C86.8938 11.3156 86.9862 11.7649 86.9862 12.3281V17H85.8967V16.0398H85.8413C85.7674 16.1937 85.6443 16.3583 85.4719 16.5337C85.2996 16.7092 85.0703 16.8584 84.7841 16.9815C84.4979 17.1046 84.1486 17.1662 83.7362 17.1662ZM83.9023 16.1875C84.3332 16.1875 84.6964 16.1029 84.9918 15.9336C85.2904 15.7643 85.515 15.5458 85.6658 15.2781C85.8197 15.0103 85.8967 14.7287 85.8967 14.4332V13.4361C85.8505 13.4915 85.7489 13.5423 85.592 13.5884C85.4381 13.6315 85.2596 13.67 85.0565 13.7038C84.8564 13.7346 84.661 13.7623 84.4702 13.7869C84.2824 13.8085 84.1301 13.8269 84.0131 13.8423C83.73 13.8793 83.4653 13.9393 83.2191 14.0224C82.976 14.1024 82.779 14.224 82.6282 14.3871C82.4805 14.5471 82.4066 14.7656 82.4066 15.0426C82.4066 15.4212 82.5466 15.7074 82.8267 15.9013C83.1098 16.0921 83.4684 16.1875 83.9023 16.1875ZM88.9747 17V9.90909H90.0273V10.9801H90.1011C90.2304 10.6293 90.4643 10.3446 90.8028 10.1261C91.1414 9.90755 91.523 9.79829 91.9477 9.79829C92.0277 9.79829 92.1278 9.79983 92.2478 9.80291C92.3678 9.80599 92.4586 9.81061 92.5202 9.81676V10.9247C92.4832 10.9155 92.3986 10.9016 92.2662 10.8832C92.137 10.8616 92 10.8509 91.8554 10.8509C91.5107 10.8509 91.2029 10.9232 90.9321 11.0678C90.6643 11.2094 90.452 11.4064 90.295 11.6587C90.1411 11.908 90.0642 12.1927 90.0642 12.5128V17H88.9747ZM100.349 17.1477C99.6838 17.1477 99.1113 16.9908 98.6312 16.6768C98.1511 16.3629 97.7818 15.9305 97.5233 15.3796C97.2647 14.8287 97.1355 14.1993 97.1355 13.4915C97.1355 12.7713 97.2678 12.1358 97.5325 11.5849C97.8002 11.0309 98.1726 10.5985 98.6497 10.2876C99.1298 9.97372 99.6899 9.81676 100.33 9.81676C100.829 9.81676 101.278 9.90909 101.678 10.0938C102.078 10.2784 102.406 10.5369 102.661 10.8693C102.917 11.2017 103.075 11.5895 103.137 12.0327H102.047C101.964 11.7095 101.78 11.4233 101.493 11.174C101.21 10.9216 100.829 10.7955 100.349 10.7955C99.9238 10.7955 99.5514 10.9062 99.2314 11.1278C98.9144 11.3464 98.6666 11.6557 98.4881 12.0558C98.3127 12.4528 98.225 12.919 98.225 13.4545C98.225 14.0024 98.3111 14.4794 98.4835 14.8857C98.6589 15.2919 98.9051 15.6074 99.2221 15.832C99.5422 16.0567 99.9177 16.169 100.349 16.169C100.632 16.169 100.889 16.1198 101.119 16.0213C101.35 15.9228 101.546 15.7812 101.706 15.5966C101.866 15.4119 101.98 15.1903 102.047 14.9318H103.137C103.075 15.3504 102.923 15.7274 102.68 16.0629C102.44 16.3952 102.121 16.6599 101.724 16.8569C101.33 17.0508 100.872 17.1477 100.349 17.1477ZM105.819 12.7344V17H104.73V7.54545H105.819V11.017H105.911C106.078 10.6508 106.327 10.36 106.659 10.1445C106.995 9.92602 107.441 9.81676 107.998 9.81676C108.481 9.81676 108.904 9.91371 109.268 10.1076C109.631 10.2984 109.912 10.5923 110.112 10.9893C110.316 11.3833 110.417 11.8849 110.417 12.4943V17H109.328V12.5682C109.328 12.005 109.181 11.5695 108.889 11.2617C108.6 10.9509 108.198 10.7955 107.684 10.7955C107.327 10.7955 107.007 10.8709 106.724 11.0217C106.444 11.1725 106.222 11.3925 106.059 11.6818C105.899 11.9711 105.819 12.322 105.819 12.7344ZM114.497 17.1662C114.048 17.1662 113.64 17.0816 113.274 16.9123C112.907 16.7399 112.616 16.4922 112.401 16.169C112.186 15.8428 112.078 15.4489 112.078 14.9872C112.078 14.581 112.158 14.2517 112.318 13.9993C112.478 13.7438 112.692 13.5438 112.96 13.3991C113.227 13.2545 113.523 13.1468 113.846 13.076C114.172 13.0021 114.5 12.9437 114.829 12.9006C115.26 12.8452 115.609 12.8036 115.877 12.7759C116.148 12.7451 116.345 12.6944 116.468 12.6236C116.594 12.5528 116.657 12.4297 116.657 12.2543V12.2173C116.657 11.7618 116.533 11.4079 116.283 11.1555C116.037 10.9032 115.663 10.777 115.162 10.777C114.642 10.777 114.234 10.8909 113.938 11.1186C113.643 11.3464 113.435 11.5895 113.315 11.848L112.281 11.4787C112.466 11.0478 112.712 10.7124 113.02 10.4723C113.33 10.2292 113.669 10.0599 114.035 9.96449C114.405 9.866 114.768 9.81676 115.125 9.81676C115.352 9.81676 115.614 9.84446 115.91 9.89986C116.208 9.95218 116.496 10.0614 116.773 10.2276C117.053 10.3938 117.285 10.6446 117.47 10.9801C117.655 11.3156 117.747 11.7649 117.747 12.3281V17H116.657V16.0398H116.602C116.528 16.1937 116.405 16.3583 116.233 16.5337C116.06 16.7092 115.831 16.8584 115.545 16.9815C115.259 17.1046 114.909 17.1662 114.497 17.1662ZM114.663 16.1875C115.094 16.1875 115.457 16.1029 115.753 15.9336C116.051 15.7643 116.276 15.5458 116.427 15.2781C116.58 15.0103 116.657 14.7287 116.657 14.4332V13.4361C116.611 13.4915 116.51 13.5423 116.353 13.5884C116.199 13.6315 116.02 13.67 115.817 13.7038C115.617 13.7346 115.422 13.7623 115.231 13.7869C115.043 13.8085 114.891 13.8269 114.774 13.8423C114.491 13.8793 114.226 13.9393 113.98 14.0224C113.737 14.1024 113.54 14.224 113.389 14.3871C113.241 14.5471 113.167 14.7656 113.167 15.0426C113.167 15.4212 113.307 15.7074 113.587 15.9013C113.871 16.0921 114.229 16.1875 114.663 16.1875ZM122.819 9.90909V10.8324H119.145V9.90909H122.819ZM120.216 8.21023H121.305V14.9688C121.305 15.2765 121.35 15.5073 121.439 15.6612C121.531 15.812 121.648 15.9136 121.79 15.9659C121.934 16.0152 122.087 16.0398 122.247 16.0398C122.367 16.0398 122.465 16.0336 122.542 16.0213C122.619 16.0059 122.681 15.9936 122.727 15.9844L122.949 16.9631C122.875 16.9908 122.772 17.0185 122.639 17.0462C122.507 17.0769 122.339 17.0923 122.136 17.0923C121.828 17.0923 121.527 17.0262 121.231 16.8938C120.939 16.7615 120.696 16.5599 120.502 16.2891C120.311 16.0182 120.216 15.6766 120.216 15.2642V8.21023Z" fill="#711AC7"/>
</svg>
