<svg width="40" height="40" viewBox="0 0 40 40" fill="none" xmlns="http://www.w3.org/2000/svg">
<path d="M20 19.9583C18.1666 19.9583 16.6666 19.375 15.5 18.2083C14.3333 17.0417 13.75 15.5417 13.75 13.7083C13.75 11.875 14.3333 10.375 15.5 9.20834C16.6666 8.04167 18.1666 7.45834 20 7.45834C21.8333 7.45834 23.3333 8.04167 24.5 9.20834C25.6666 10.375 26.25 11.875 26.25 13.7083C26.25 15.5417 25.6666 17.0417 24.5 18.2083C23.3333 19.375 21.8333 19.9583 20 19.9583ZM6.66663 33.3333V29.4167C6.66663 28.3611 6.93051 27.4583 7.45829 26.7083C7.98607 25.9583 8.66663 25.3889 9.49996 25C11.3611 24.1667 13.1458 23.5417 14.8541 23.125C16.5625 22.7083 18.2777 22.5 20 22.5C21.7222 22.5 23.4305 22.7153 25.125 23.1458C26.8194 23.5764 28.5972 24.1944 30.4583 25C31.3194 25.3889 32.0138 25.9583 32.5416 26.7083C33.0694 27.4583 33.3333 28.3611 33.3333 29.4167V33.3333H6.66663ZM9.16663 30.8333H30.8333V29.4167C30.8333 28.9722 30.7013 28.5486 30.4375 28.1458C30.1736 27.7431 29.8472 27.4444 29.4583 27.25C27.6805 26.3889 26.0555 25.7986 24.5833 25.4792C23.1111 25.1597 21.5833 25 20 25C18.4166 25 16.875 25.1597 15.375 25.4792C13.875 25.7986 12.25 26.3889 10.5 27.25C10.1111 27.4444 9.79163 27.7431 9.54163 28.1458C9.29163 28.5486 9.16663 28.9722 9.16663 29.4167V30.8333ZM20 17.4583C21.0833 17.4583 21.9791 17.1042 22.6875 16.3958C23.3958 15.6875 23.75 14.7917 23.75 13.7083C23.75 12.625 23.3958 11.7292 22.6875 11.0208C21.9791 10.3125 21.0833 9.95834 20 9.95834C18.9166 9.95834 18.0208 10.3125 17.3125 11.0208C16.6041 11.7292 16.25 12.625 16.25 13.7083C16.25 14.7917 16.6041 15.6875 17.3125 16.3958C18.0208 17.1042 18.9166 17.4583 20 17.4583Z" fill="#711AC7"/>
</svg>
