<svg width="189" height="27" viewBox="0 0 189 27" fill="none" xmlns="http://www.w3.org/2000/svg">
<path d="M14 24.75C12.3862 24.75 10.8695 24.4547 9.45004 23.8641C8.0306 23.2734 6.79587 22.4719 5.74587 21.4594C4.69587 20.4469 3.86462 19.2563 3.25212 17.8875C2.63962 16.5187 2.33337 15.0562 2.33337 13.5C2.33337 11.9438 2.63962 10.4813 3.25212 9.1125C3.86462 7.74375 4.69587 6.55313 5.74587 5.54063C6.79587 4.52813 8.0306 3.72656 9.45004 3.13594C10.8695 2.54531 12.3862 2.25 14 2.25C15.6139 2.25 17.1306 2.54531 18.55 3.13594C19.9695 3.72656 21.2042 4.52813 22.2542 5.54063C23.3042 6.55313 24.1355 7.74375 24.748 9.1125C25.3605 10.4813 25.6667 11.9438 25.6667 13.5C25.6667 15.0562 25.3605 16.5187 24.748 17.8875C24.1355 19.2563 23.3042 20.4469 22.2542 21.4594C21.2042 22.4719 19.9695 23.2734 18.55 23.8641C17.1306 24.4547 15.6139 24.75 14 24.75ZM12.7459 23.0344V20.7281C12.0653 20.7281 11.4917 20.4844 11.025 19.9969C10.5584 19.5094 10.325 18.9375 10.325 18.2812V17.0437L4.34587 11.2781C4.24865 11.6531 4.1806 12.0234 4.14171 12.3891C4.10282 12.7547 4.08337 13.125 4.08337 13.5C4.08337 15.9375 4.9049 18.0656 6.54796 19.8844C8.19101 21.7031 10.257 22.7531 12.7459 23.0344ZM21.3209 19.9969C21.7487 19.5469 22.123 19.0688 22.4438 18.5625C22.7646 18.0562 23.0368 17.5266 23.2605 16.9734C23.4841 16.4203 23.6493 15.8531 23.7563 15.2719C23.8632 14.6906 23.9167 14.1 23.9167 13.5C23.9167 11.5125 23.3528 9.70781 22.225 8.08594C21.0973 6.46406 19.5903 5.27813 17.7042 4.52813V5.03437C17.7042 5.69062 17.4709 6.2625 17.0042 6.75C16.5375 7.2375 15.9639 7.48125 15.2834 7.48125H12.7459V9.92812C12.7459 10.2469 12.6146 10.5094 12.3521 10.7156C12.0896 10.9219 11.7931 11.025 11.4625 11.025H9.04171V13.5H16.5667C16.8973 13.5 17.1695 13.6219 17.3834 13.8656C17.5973 14.1094 17.7042 14.3906 17.7042 14.7094V18.2812H18.9584C19.5223 18.2812 20.0181 18.4406 20.4459 18.7594C20.8737 19.0781 21.1653 19.4906 21.3209 19.9969Z" fill="#711AC7"/>
<path d="M51.0994 11.5H49.7784C49.7003 11.12 49.5636 10.7862 49.3683 10.4986C49.1765 10.2109 48.9421 9.96946 48.6651 9.77415C48.3917 9.57528 48.0881 9.42614 47.7543 9.3267C47.4205 9.22727 47.0724 9.17756 46.7102 9.17756C46.0497 9.17756 45.4513 9.34446 44.9151 9.67827C44.3825 10.0121 43.9581 10.5039 43.642 11.1538C43.3295 11.8036 43.1733 12.6009 43.1733 13.5455C43.1733 14.4901 43.3295 15.2873 43.642 15.9371C43.9581 16.587 44.3825 17.0788 44.9151 17.4126C45.4513 17.7464 46.0497 17.9134 46.7102 17.9134C47.0724 17.9134 47.4205 17.8636 47.7543 17.7642C48.0881 17.6648 48.3917 17.5174 48.6651 17.3221C48.9421 17.1232 49.1765 16.88 49.3683 16.5923C49.5636 16.3011 49.7003 15.9673 49.7784 15.5909H51.0994C51 16.1484 50.8189 16.6474 50.5561 17.0877C50.2933 17.5281 49.9666 17.9027 49.576 18.2116C49.1854 18.517 48.7468 18.7496 48.2603 18.9094C47.7773 19.0692 47.2607 19.1491 46.7102 19.1491C45.7798 19.1491 44.9524 18.9219 44.228 18.4673C43.5036 18.0128 42.9336 17.3665 42.5181 16.5284C42.1026 15.6903 41.8949 14.696 41.8949 13.5455C41.8949 12.3949 42.1026 11.4006 42.5181 10.5625C42.9336 9.72443 43.5036 9.07812 44.228 8.62358C44.9524 8.16903 45.7798 7.94176 46.7102 7.94176C47.2607 7.94176 47.7773 8.02166 48.2603 8.18146C48.7468 8.34126 49.1854 8.57564 49.576 8.88459C49.9666 9.18999 50.2933 9.56285 50.5561 10.0032C50.8189 10.44 51 10.9389 51.0994 11.5ZM56.3875 19.1705C55.6489 19.1705 55.0008 18.9947 54.4433 18.6431C53.8893 18.2915 53.4561 17.7997 53.1436 17.1676C52.8346 16.5355 52.6801 15.7969 52.6801 14.9517C52.6801 14.0994 52.8346 13.3555 53.1436 12.7198C53.4561 12.0842 53.8893 11.5906 54.4433 11.239C55.0008 10.8874 55.6489 10.7116 56.3875 10.7116C57.1262 10.7116 57.7725 10.8874 58.3264 11.239C58.884 11.5906 59.3172 12.0842 59.6262 12.7198C59.9387 13.3555 60.0949 14.0994 60.0949 14.9517C60.0949 15.7969 59.9387 16.5355 59.6262 17.1676C59.3172 17.7997 58.884 18.2915 58.3264 18.6431C57.7725 18.9947 57.1262 19.1705 56.3875 19.1705ZM56.3875 18.0412C56.9486 18.0412 57.4102 17.8974 57.7725 17.6097C58.1347 17.3221 58.4028 16.9439 58.5768 16.4751C58.7508 16.0064 58.8378 15.4986 58.8378 14.9517C58.8378 14.4048 58.7508 13.8952 58.5768 13.4229C58.4028 12.9506 58.1347 12.5689 57.7725 12.2777C57.4102 11.9865 56.9486 11.8409 56.3875 11.8409C55.8264 11.8409 55.3648 11.9865 55.0026 12.2777C54.6404 12.5689 54.3722 12.9506 54.1982 13.4229C54.0242 13.8952 53.9372 14.4048 53.9372 14.9517C53.9372 15.4986 54.0242 16.0064 54.1982 16.4751C54.3722 16.9439 54.6404 17.3221 55.0026 17.6097C55.3648 17.8974 55.8264 18.0412 56.3875 18.0412ZM63.271 14.0781V19H62.0138V10.8182H63.2283V12.0966H63.3349C63.5266 11.6811 63.8178 11.3473 64.2085 11.0952C64.5991 10.8395 65.1033 10.7116 65.7212 10.7116C66.2752 10.7116 66.7599 10.8253 67.1754 11.0526C67.5909 11.2763 67.9141 11.6172 68.1449 12.0753C68.3757 12.5298 68.4911 13.1051 68.4911 13.8011V19H67.234V13.8864C67.234 13.2436 67.0671 12.7429 66.7333 12.3842C66.3995 12.022 65.9414 11.8409 65.359 11.8409C64.9577 11.8409 64.5991 11.9279 64.283 12.1019C63.9705 12.2759 63.7237 12.5298 63.5426 12.8636C63.3615 13.1974 63.271 13.6023 63.271 14.0781ZM77.1856 10.8182L74.1601 19H72.8817L69.8561 10.8182H71.2197L73.4782 17.3381H73.5635L75.822 10.8182H77.1856ZM78.8449 19V10.8182H80.102V19H78.8449ZM79.4841 9.45455C79.2391 9.45455 79.0278 9.37109 78.8502 9.20419C78.6762 9.03729 78.5892 8.83665 78.5892 8.60227C78.5892 8.3679 78.6762 8.16726 78.8502 8.00035C79.0278 7.83345 79.2391 7.75 79.4841 7.75C79.7291 7.75 79.9387 7.83345 80.1127 8.00035C80.2902 8.16726 80.379 8.3679 80.379 8.60227C80.379 8.83665 80.2902 9.03729 80.1127 9.20419C79.9387 9.37109 79.7291 9.45455 79.4841 9.45455ZM85.494 19.1705C84.8121 19.1705 84.2102 18.9982 83.6882 18.6538C83.1662 18.3058 82.7578 17.8157 82.4631 17.1836C82.1683 16.5479 82.021 15.7969 82.021 14.9304C82.021 14.071 82.1683 13.3253 82.4631 12.6932C82.7578 12.0611 83.168 11.5728 83.6935 11.2283C84.2191 10.8839 84.8263 10.7116 85.5153 10.7116C86.0479 10.7116 86.4688 10.8004 86.7777 10.978C87.0902 11.152 87.3281 11.3509 87.4915 11.5746C87.6584 11.7947 87.788 11.9759 87.8803 12.1179H87.9869V8.09091H89.244V19H88.0295V17.7429H87.8803C87.788 17.892 87.6566 18.0803 87.4862 18.3075C87.3157 18.5312 87.0724 18.7319 86.7564 18.9094C86.4403 19.0835 86.0195 19.1705 85.494 19.1705ZM85.6644 18.0412C86.1687 18.0412 86.5948 17.9098 86.9428 17.647C87.2908 17.3807 87.5554 17.0131 87.7365 16.5444C87.9176 16.0721 88.0082 15.527 88.0082 14.9091C88.0082 14.2983 87.9194 13.7638 87.7418 13.3058C87.5643 12.8441 87.3015 12.4854 86.9535 12.2298C86.6055 11.9705 86.1758 11.8409 85.6644 11.8409C85.1317 11.8409 84.6879 11.9776 84.3327 12.2511C83.9812 12.521 83.7166 12.8885 83.5391 13.3537C83.3651 13.8153 83.2781 14.3338 83.2781 14.9091C83.2781 15.4915 83.3668 16.0206 83.5444 16.4964C83.7255 16.9687 83.9918 17.3452 84.3434 17.6257C84.6985 17.9027 85.1388 18.0412 85.6644 18.0412ZM94.1286 19.1918C93.6101 19.1918 93.1396 19.0941 92.717 18.8988C92.2944 18.6999 91.9588 18.4141 91.7102 18.0412C91.4616 17.6648 91.3374 17.2102 91.3374 16.6776C91.3374 16.2088 91.4297 15.8288 91.6143 15.5376C91.799 15.2429 92.0458 15.0121 92.3548 14.8452C92.6637 14.6783 93.0046 14.554 93.3775 14.4723C93.7539 14.3871 94.1321 14.3196 94.5121 14.2699C95.0092 14.206 95.4123 14.158 95.7212 14.1261C96.0337 14.0906 96.261 14.032 96.4031 13.9503C96.5487 13.8686 96.6214 13.7266 96.6214 13.5241V13.4815C96.6214 12.956 96.4776 12.5476 96.19 12.2564C95.9059 11.9652 95.4744 11.8196 94.8956 11.8196C94.2955 11.8196 93.8249 11.951 93.484 12.2138C93.1431 12.4766 92.9034 12.7571 92.7649 13.0554L91.5717 12.6293C91.7848 12.1321 92.0689 11.745 92.424 11.468C92.7827 11.1875 93.1733 10.9922 93.5959 10.8821C94.022 10.7685 94.4411 10.7116 94.853 10.7116C95.1158 10.7116 95.4176 10.7436 95.7585 10.8075C96.103 10.8679 96.435 10.994 96.7546 11.1857C97.0778 11.3775 97.3459 11.6669 97.5589 12.054C97.772 12.4411 97.8786 12.9595 97.8786 13.6094V19H96.6214V17.892H96.5575C96.4723 18.0696 96.3303 18.2596 96.1314 18.462C95.9325 18.6644 95.668 18.8366 95.3377 18.9787C95.0075 19.1207 94.6044 19.1918 94.1286 19.1918ZM94.3203 18.0625C94.8175 18.0625 95.2365 17.9648 95.5774 17.7695C95.9219 17.5742 96.1811 17.3221 96.3551 17.0131C96.5327 16.7042 96.6214 16.3793 96.6214 16.0384V14.8878C96.5682 14.9517 96.451 15.0103 96.2699 15.0636C96.0923 15.1133 95.8864 15.1577 95.652 15.1967C95.4212 15.2322 95.1957 15.2642 94.9755 15.2926C94.7589 15.3175 94.5831 15.3388 94.4482 15.3565C94.1214 15.3991 93.8161 15.4684 93.532 15.5643C93.2514 15.6566 93.0241 15.7969 92.8501 15.9851C92.6797 16.1697 92.5945 16.4219 92.5945 16.7415C92.5945 17.1783 92.756 17.5085 93.0792 17.7322C93.4059 17.9524 93.8196 18.0625 94.3203 18.0625ZM100.173 19V10.8182H101.388V12.054H101.473C101.622 11.6491 101.892 11.3207 102.282 11.0685C102.673 10.8164 103.113 10.6903 103.603 10.6903C103.696 10.6903 103.811 10.6921 103.95 10.6957C104.088 10.6992 104.193 10.7045 104.264 10.7116V11.9901C104.221 11.9794 104.124 11.9634 103.971 11.9421C103.822 11.9173 103.664 11.9048 103.497 11.9048C103.099 11.9048 102.744 11.9883 102.432 12.1552C102.123 12.3185 101.878 12.5458 101.696 12.837C101.519 13.1246 101.43 13.4531 101.43 13.8224V19H100.173ZM109.973 22.0682V10.8182H111.187V12.1179H111.336C111.429 11.9759 111.557 11.7947 111.72 11.5746C111.887 11.3509 112.125 11.152 112.434 10.978C112.746 10.8004 113.169 10.7116 113.702 10.7116C114.39 10.7116 114.998 10.8839 115.523 11.2283C116.049 11.5728 116.459 12.0611 116.754 12.6932C117.048 13.3253 117.196 14.071 117.196 14.9304C117.196 15.7969 117.048 16.5479 116.754 17.1836C116.459 17.8157 116.051 18.3058 115.529 18.6538C115.007 18.9982 114.405 19.1705 113.723 19.1705C113.197 19.1705 112.776 19.0835 112.46 18.9094C112.144 18.7319 111.901 18.5312 111.731 18.3075C111.56 18.0803 111.429 17.892 111.336 17.7429H111.23V22.0682H109.973ZM111.209 14.9091C111.209 15.527 111.299 16.0721 111.48 16.5444C111.661 17.0131 111.926 17.3807 112.274 17.647C112.622 17.9098 113.048 18.0412 113.552 18.0412C114.078 18.0412 114.517 17.9027 114.868 17.6257C115.223 17.3452 115.49 16.9687 115.667 16.4964C115.848 16.0206 115.939 15.4915 115.939 14.9091C115.939 14.3338 115.85 13.8153 115.672 13.3537C115.498 12.8885 115.234 12.521 114.879 12.2511C114.527 11.9776 114.085 11.8409 113.552 11.8409C113.041 11.8409 112.611 11.9705 112.263 12.2298C111.915 12.4854 111.653 12.8441 111.475 13.3058C111.297 13.7638 111.209 14.2983 111.209 14.9091ZM121.521 19.1918C121.003 19.1918 120.532 19.0941 120.11 18.8988C119.687 18.6999 119.351 18.4141 119.103 18.0412C118.854 17.6648 118.73 17.2102 118.73 16.6776C118.73 16.2088 118.822 15.8288 119.007 15.5376C119.192 15.2429 119.438 15.0121 119.747 14.8452C120.056 14.6783 120.397 14.554 120.77 14.4723C121.146 14.3871 121.525 14.3196 121.905 14.2699C122.402 14.206 122.805 14.158 123.114 14.1261C123.426 14.0906 123.654 14.032 123.796 13.9503C123.941 13.8686 124.014 13.7266 124.014 13.5241V13.4815C124.014 12.956 123.87 12.5476 123.583 12.2564C123.298 11.9652 122.867 11.8196 122.288 11.8196C121.688 11.8196 121.218 11.951 120.877 12.2138C120.536 12.4766 120.296 12.7571 120.157 13.0554L118.964 12.6293C119.177 12.1321 119.461 11.745 119.817 11.468C120.175 11.1875 120.566 10.9922 120.988 10.8821C121.415 10.7685 121.834 10.7116 122.246 10.7116C122.508 10.7116 122.81 10.7436 123.151 10.8075C123.496 10.8679 123.828 10.994 124.147 11.1857C124.47 11.3775 124.738 11.6669 124.952 12.054C125.165 12.4411 125.271 12.9595 125.271 13.6094V19H124.014V17.892H123.95C123.865 18.0696 123.723 18.2596 123.524 18.462C123.325 18.6644 123.061 18.8366 122.73 18.9787C122.4 19.1207 121.997 19.1918 121.521 19.1918ZM121.713 18.0625C122.21 18.0625 122.629 17.9648 122.97 17.7695C123.314 17.5742 123.574 17.3221 123.748 17.0131C123.925 16.7042 124.014 16.3793 124.014 16.0384V14.8878C123.961 14.9517 123.844 15.0103 123.662 15.0636C123.485 15.1133 123.279 15.1577 123.045 15.1967C122.814 15.2322 122.588 15.2642 122.368 15.2926C122.151 15.3175 121.976 15.3388 121.841 15.3565C121.514 15.3991 121.209 15.4684 120.925 15.5643C120.644 15.6566 120.417 15.7969 120.243 15.9851C120.072 16.1697 119.987 16.4219 119.987 16.7415C119.987 17.1783 120.149 17.5085 120.472 17.7322C120.798 17.9524 121.212 18.0625 121.713 18.0625ZM127.566 19V10.8182H128.78V12.054H128.865C129.014 11.6491 129.284 11.3207 129.675 11.0685C130.066 10.8164 130.506 10.6903 130.996 10.6903C131.088 10.6903 131.204 10.6921 131.342 10.6957C131.481 10.6992 131.585 10.7045 131.657 10.7116V11.9901C131.614 11.9794 131.516 11.9634 131.364 11.9421C131.214 11.9173 131.056 11.9048 130.889 11.9048C130.492 11.9048 130.137 11.9883 129.824 12.1552C129.515 12.3185 129.27 12.5458 129.089 12.837C128.911 13.1246 128.823 13.4531 128.823 13.8224V19H127.566ZM135.554 19.1918C135.036 19.1918 134.565 19.0941 134.143 18.8988C133.72 18.6999 133.385 18.4141 133.136 18.0412C132.887 17.6648 132.763 17.2102 132.763 16.6776C132.763 16.2088 132.855 15.8288 133.04 15.5376C133.225 15.2429 133.472 15.0121 133.781 14.8452C134.089 14.6783 134.43 14.554 134.803 14.4723C135.18 14.3871 135.558 14.3196 135.938 14.2699C136.435 14.206 136.838 14.158 137.147 14.1261C137.46 14.0906 137.687 14.032 137.829 13.9503C137.974 13.8686 138.047 13.7266 138.047 13.5241V13.4815C138.047 12.956 137.903 12.5476 137.616 12.2564C137.332 11.9652 136.9 11.8196 136.321 11.8196C135.721 11.8196 135.251 11.951 134.91 12.2138C134.569 12.4766 134.329 12.7571 134.191 13.0554L132.998 12.6293C133.211 12.1321 133.495 11.745 133.85 11.468C134.208 11.1875 134.599 10.9922 135.022 10.8821C135.448 10.7685 135.867 10.7116 136.279 10.7116C136.542 10.7116 136.843 10.7436 137.184 10.8075C137.529 10.8679 137.861 10.994 138.18 11.1857C138.504 11.3775 138.772 11.6669 138.985 12.054C139.198 12.4411 139.304 12.9595 139.304 13.6094V19H138.047V17.892H137.983C137.898 18.0696 137.756 18.2596 137.557 18.462C137.358 18.6644 137.094 18.8366 136.763 18.9787C136.433 19.1207 136.03 19.1918 135.554 19.1918ZM135.746 18.0625C136.243 18.0625 136.662 17.9648 137.003 17.7695C137.348 17.5742 137.607 17.3221 137.781 17.0131C137.958 16.7042 138.047 16.3793 138.047 16.0384V14.8878C137.994 14.9517 137.877 15.0103 137.696 15.0636C137.518 15.1133 137.312 15.1577 137.078 15.1967C136.847 15.2322 136.621 15.2642 136.401 15.2926C136.185 15.3175 136.009 15.3388 135.874 15.3565C135.547 15.3991 135.242 15.4684 134.958 15.5643C134.677 15.6566 134.45 15.7969 134.276 15.9851C134.105 16.1697 134.02 16.4219 134.02 16.7415C134.02 17.1783 134.182 17.5085 134.505 17.7322C134.832 17.9524 135.245 18.0625 135.746 18.0625ZM152.508 10.8182L149.482 19H148.204L145.178 10.8182H146.542L148.801 17.3381H148.886L151.144 10.8182H152.508ZM154.167 19V10.8182H155.424V19H154.167ZM154.806 9.45455C154.561 9.45455 154.35 9.37109 154.172 9.20419C153.998 9.03729 153.911 8.83665 153.911 8.60227C153.911 8.3679 153.998 8.16726 154.172 8.00035C154.35 7.83345 154.561 7.75 154.806 7.75C155.051 7.75 155.261 7.83345 155.435 8.00035C155.612 8.16726 155.701 8.3679 155.701 8.60227C155.701 8.83665 155.612 9.03729 155.435 9.20419C155.261 9.37109 155.051 9.45455 154.806 9.45455ZM160.134 19.1918C159.616 19.1918 159.145 19.0941 158.723 18.8988C158.3 18.6999 157.965 18.4141 157.716 18.0412C157.468 17.6648 157.343 17.2102 157.343 16.6776C157.343 16.2088 157.436 15.8288 157.62 15.5376C157.805 15.2429 158.052 15.0121 158.361 14.8452C158.67 14.6783 159.01 14.554 159.383 14.4723C159.76 14.3871 160.138 14.3196 160.518 14.2699C161.015 14.206 161.418 14.158 161.727 14.1261C162.04 14.0906 162.267 14.032 162.409 13.9503C162.555 13.8686 162.627 13.7266 162.627 13.5241V13.4815C162.627 12.956 162.483 12.5476 162.196 12.2564C161.912 11.9652 161.48 11.8196 160.901 11.8196C160.301 11.8196 159.831 11.951 159.49 12.2138C159.149 12.4766 158.909 12.7571 158.771 13.0554L157.578 12.6293C157.791 12.1321 158.075 11.745 158.43 11.468C158.789 11.1875 159.179 10.9922 159.602 10.8821C160.028 10.7685 160.447 10.7116 160.859 10.7116C161.122 10.7116 161.423 10.7436 161.764 10.8075C162.109 10.8679 162.441 10.994 162.76 11.1857C163.084 11.3775 163.352 11.6669 163.565 12.054C163.778 12.4411 163.884 12.9595 163.884 13.6094V19H162.627V17.892H162.563C162.478 18.0696 162.336 18.2596 162.137 18.462C161.938 18.6644 161.674 18.8366 161.344 18.9787C161.013 19.1207 160.61 19.1918 160.134 19.1918ZM160.326 18.0625C160.823 18.0625 161.242 17.9648 161.583 17.7695C161.928 17.5742 162.187 17.3221 162.361 17.0131C162.539 16.7042 162.627 16.3793 162.627 16.0384V14.8878C162.574 14.9517 162.457 15.0103 162.276 15.0636C162.098 15.1133 161.892 15.1577 161.658 15.1967C161.427 15.2322 161.202 15.2642 160.981 15.2926C160.765 15.3175 160.589 15.3388 160.454 15.3565C160.127 15.3991 159.822 15.4684 159.538 15.5643C159.257 15.6566 159.03 15.7969 158.856 15.9851C158.686 16.1697 158.6 16.4219 158.6 16.7415C158.6 17.1783 158.762 17.5085 159.085 17.7322C159.412 17.9524 159.825 18.0625 160.326 18.0625ZM166.179 10.8182H167.436V19.5966C167.436 20.1009 167.349 20.5376 167.175 20.907C167.005 21.2763 166.745 21.5621 166.397 21.7646C166.053 21.967 165.618 22.0682 165.092 22.0682C165.05 22.0682 165.007 22.0682 164.964 22.0682C164.922 22.0682 164.879 22.0682 164.837 22.0682V20.8963C164.879 20.8963 164.918 20.8963 164.954 20.8963C164.989 20.8963 165.028 20.8963 165.071 20.8963C165.454 20.8963 165.735 20.7827 165.913 20.5554C166.09 20.3317 166.179 20.0121 166.179 19.5966V10.8182ZM166.797 9.45455C166.552 9.45455 166.34 9.37109 166.163 9.20419C165.989 9.03729 165.902 8.83665 165.902 8.60227C165.902 8.3679 165.989 8.16726 166.163 8.00035C166.34 7.83345 166.552 7.75 166.797 7.75C167.042 7.75 167.251 7.83345 167.425 8.00035C167.603 8.16726 167.692 8.3679 167.692 8.60227C167.692 8.83665 167.603 9.03729 167.425 9.20419C167.251 9.37109 167.042 9.45455 166.797 9.45455ZM172.146 19.1918C171.628 19.1918 171.157 19.0941 170.735 18.8988C170.312 18.6999 169.976 18.4141 169.728 18.0412C169.479 17.6648 169.355 17.2102 169.355 16.6776C169.355 16.2088 169.447 15.8288 169.632 15.5376C169.817 15.2429 170.063 15.0121 170.372 14.8452C170.681 14.6783 171.022 14.554 171.395 14.4723C171.771 14.3871 172.15 14.3196 172.53 14.2699C173.027 14.206 173.43 14.158 173.739 14.1261C174.051 14.0906 174.279 14.032 174.421 13.9503C174.566 13.8686 174.639 13.7266 174.639 13.5241V13.4815C174.639 12.956 174.495 12.5476 174.208 12.2564C173.923 11.9652 173.492 11.8196 172.913 11.8196C172.313 11.8196 171.843 11.951 171.502 12.2138C171.161 12.4766 170.921 12.7571 170.782 13.0554L169.589 12.6293C169.802 12.1321 170.086 11.745 170.442 11.468C170.8 11.1875 171.191 10.9922 171.613 10.8821C172.04 10.7685 172.459 10.7116 172.871 10.7116C173.133 10.7116 173.435 10.7436 173.776 10.8075C174.121 10.8679 174.453 10.994 174.772 11.1857C175.095 11.3775 175.363 11.6669 175.577 12.054C175.79 12.4411 175.896 12.9595 175.896 13.6094V19H174.639V17.892H174.575C174.49 18.0696 174.348 18.2596 174.149 18.462C173.95 18.6644 173.686 18.8366 173.355 18.9787C173.025 19.1207 172.622 19.1918 172.146 19.1918ZM172.338 18.0625C172.835 18.0625 173.254 17.9648 173.595 17.7695C173.939 17.5742 174.199 17.3221 174.373 17.0131C174.55 16.7042 174.639 16.3793 174.639 16.0384V14.8878C174.586 14.9517 174.469 15.0103 174.287 15.0636C174.11 15.1133 173.904 15.1577 173.67 15.1967C173.439 15.2322 173.213 15.2642 172.993 15.2926C172.776 15.3175 172.601 15.3388 172.466 15.3565C172.139 15.3991 171.834 15.4684 171.55 15.5643C171.269 15.6566 171.042 15.7969 170.868 15.9851C170.697 16.1697 170.612 16.4219 170.612 16.7415C170.612 17.1783 170.774 17.5085 171.097 17.7322C171.423 17.9524 171.837 18.0625 172.338 18.0625ZM178.191 19V10.8182H179.405V12.054H179.49C179.639 11.6491 179.909 11.3207 180.3 11.0685C180.691 10.8164 181.131 10.6903 181.621 10.6903C181.713 10.6903 181.829 10.6921 181.967 10.6957C182.106 10.6992 182.21 10.7045 182.282 10.7116V11.9901C182.239 11.9794 182.141 11.9634 181.989 11.9421C181.839 11.9173 181.681 11.9048 181.514 11.9048C181.117 11.9048 180.762 11.9883 180.449 12.1552C180.14 12.3185 179.895 12.5458 179.714 12.837C179.536 13.1246 179.448 13.4531 179.448 13.8224V19H178.191Z" fill="#711AC7"/>
</svg>
