<svg width="34" height="33" viewBox="0 0 34 33" fill="none" xmlns="http://www.w3.org/2000/svg">
<path d="M16.9999 28.8406L15.5478 27.5687C13.0451 25.3458 10.9791 23.4265 9.34992 21.8109C7.72075 20.1953 6.42214 18.7516 5.45409 17.4797C4.48603 16.2078 3.80721 15.0562 3.41763 14.025C3.02804 12.9937 2.83325 11.951 2.83325 10.8969C2.83325 8.83436 3.54749 7.10988 4.97596 5.72342C6.40443 4.33697 8.16936 3.64374 10.2708 3.64374C11.6166 3.64374 12.8621 3.95311 14.0072 4.57186C15.1523 5.19061 16.1499 6.08436 16.9999 7.25311C17.9916 6.01561 19.0423 5.10468 20.152 4.5203C21.2617 3.93593 22.4541 3.64374 23.7291 3.64374C25.8305 3.64374 27.5954 4.33697 29.0239 5.72342C30.4523 7.10988 31.1666 8.83436 31.1666 10.8969C31.1666 11.951 30.9718 12.9937 30.5822 14.025C30.1926 15.0562 29.5138 16.2078 28.5458 17.4797C27.5777 18.7516 26.2791 20.1953 24.6499 21.8109C23.0208 23.4265 20.9548 25.3458 18.452 27.5687L16.9999 28.8406ZM16.9999 26.125C19.3846 23.9937 21.3503 22.1661 22.8968 20.6422C24.4433 19.1182 25.6711 17.7833 26.5801 16.6375C27.4892 15.4917 28.1267 14.4719 28.4926 13.5781C28.8586 12.6844 29.0416 11.7906 29.0416 10.8969C29.0416 9.38436 28.5458 8.14113 27.5541 7.16718C26.5624 6.19322 25.2874 5.70624 23.7291 5.70624C22.5249 5.70624 21.4034 6.06718 20.3645 6.78905C19.3256 7.51093 18.4874 8.52499 17.8499 9.83124H16.1145C15.5006 8.5479 14.6742 7.53957 13.6353 6.80624C12.5964 6.0729 11.4749 5.70624 10.2708 5.70624C8.71242 5.70624 7.43742 6.19322 6.44575 7.16718C5.45409 8.14113 4.95825 9.38436 4.95825 10.8969C4.95825 11.7906 5.14124 12.6901 5.50721 13.5953C5.87318 14.5005 6.51068 15.5318 7.41971 16.689C8.32874 17.8463 9.56242 19.1812 11.1208 20.6937C12.6791 22.2062 14.6388 24.0167 16.9999 26.125Z" fill="#711AC7"/>
</svg>
