<svg width="36" height="39" viewBox="0 0 36 39" fill="none" xmlns="http://www.w3.org/2000/svg">
<path d="M1.42505 32.5V28.6813C1.42505 27.7333 1.65005 26.8734 2.10005 26.1016C2.55005 25.3297 3.17505 24.7542 3.97505 24.375C5.80005 23.5083 7.4438 22.8854 8.9063 22.5063C10.3688 22.1271 11.875 21.9375 13.425 21.9375C14.975 21.9375 16.475 22.1271 17.925 22.5063C19.375 22.8854 21.0126 23.5083 22.8375 24.375C23.6376 24.7542 24.2688 25.3297 24.7313 26.1016C25.1938 26.8734 25.425 27.7333 25.425 28.6813V32.5H1.42505ZM27.675 32.5V28.6813C27.675 26.975 27.275 25.5734 26.475 24.4766C25.675 23.3797 24.625 22.4927 23.3251 21.8156C25.05 22.0323 26.675 22.3505 28.2 22.7703C29.725 23.1901 30.9625 23.6708 31.9125 24.2125C32.7375 24.7271 33.3875 25.3635 33.8625 26.1219C34.3375 26.8802 34.575 27.7333 34.575 28.6813V32.5H27.675ZM13.425 19.4594C11.775 19.4594 10.425 18.8906 9.37505 17.7531C8.32505 16.6156 7.80005 15.1531 7.80005 13.3656C7.80005 11.5781 8.32505 10.1156 9.37505 8.97813C10.425 7.84063 11.775 7.27188 13.425 7.27188C15.075 7.27188 16.425 7.84063 17.475 8.97813C18.525 10.1156 19.05 11.5781 19.05 13.3656C19.05 15.1531 18.525 16.6156 17.475 17.7531C16.425 18.8906 15.075 19.4594 13.425 19.4594ZM26.925 13.3656C26.925 15.1531 26.4 16.6156 25.35 17.7531C24.3 18.8906 22.95 19.4594 21.3 19.4594C21.025 19.4594 20.7188 19.4391 20.3813 19.3984C20.0438 19.3578 19.7375 19.2833 19.4625 19.175C20.0625 18.4979 20.5188 17.6651 20.8313 16.6766C21.1438 15.688 21.3 14.5844 21.3 13.3656C21.3 12.1469 21.1438 11.0703 20.8313 10.1359C20.5188 9.20157 20.0625 8.34167 19.4625 7.55626C19.7375 7.47501 20.0438 7.4073 20.3813 7.35313C20.7188 7.29896 21.025 7.27188 21.3 7.27188C22.95 7.27188 24.3 7.84063 25.35 8.97813C26.4 10.1156 26.925 11.5781 26.925 13.3656ZM3.67505 30.0625H23.175V28.6813C23.175 28.2479 23.0563 27.8281 22.8188 27.4219C22.5813 27.0156 22.2875 26.7313 21.9375 26.5688C20.1375 25.7021 18.625 25.1198 17.4 24.8219C16.175 24.524 14.85 24.375 13.425 24.375C12 24.375 10.6688 24.524 9.4313 24.8219C8.1938 25.1198 6.67505 25.7021 4.87505 26.5688C4.52505 26.7313 4.23755 27.0156 4.01255 27.4219C3.78755 27.8281 3.67505 28.2479 3.67505 28.6813V30.0625ZM13.425 17.0219C14.4 17.0219 15.2063 16.6766 15.8438 15.9859C16.4813 15.2953 16.8 14.4219 16.8 13.3656C16.8 12.3094 16.4813 11.4359 15.8438 10.7453C15.2063 10.0547 14.4 9.70938 13.425 9.70938C12.45 9.70938 11.6438 10.0547 11.0063 10.7453C10.3688 11.4359 10.05 12.3094 10.05 13.3656C10.05 14.4219 10.3688 15.2953 11.0063 15.9859C11.6438 16.6766 12.45 17.0219 13.425 17.0219Z" fill="#711AC7"/>
</svg>
