<svg width="21" height="17" viewBox="0 0 21 17" fill="none" xmlns="http://www.w3.org/2000/svg">
<path d="M1.575 17C1.12 17 0.74375 16.8495 0.44625 16.5484C0.14875 16.2474 0 15.8667 0 15.4062V11.3422C0.6475 11.2005 1.18562 10.8685 1.61437 10.3461C2.04312 9.8237 2.2575 9.20833 2.2575 8.5C2.2575 7.79167 2.04312 7.17188 1.61437 6.64062C1.18562 6.10938 0.6475 5.78177 0 5.65781V1.59375C0 1.13333 0.14875 0.752604 0.44625 0.451563C0.74375 0.150521 1.12 0 1.575 0H19.425C19.88 0 20.2563 0.150521 20.5537 0.451563C20.8512 0.752604 21 1.13333 21 1.59375V15.4062C21 15.8667 20.8512 16.2474 20.5537 16.5484C20.2563 16.8495 19.88 17 19.425 17H1.575ZM1.575 15.4062H19.425V1.59375H1.575V4.48906C2.2575 4.94948 2.80437 5.525 3.21562 6.21563C3.62687 6.90625 3.8325 7.66771 3.8325 8.5C3.8325 9.33229 3.62687 10.0938 3.21562 10.7844C2.80437 11.475 2.2575 12.0505 1.575 12.5109V15.4062ZM7.035 12.6172L16.695 9.93438C16.9925 9.84583 17.2112 9.70417 17.3512 9.50937C17.4912 9.31458 17.5175 9.06667 17.43 8.76562C17.3425 8.46458 17.185 8.25651 16.9575 8.14141C16.73 8.0263 16.4762 8.00417 16.1962 8.075L13.4925 8.79219L9.135 4.48906L7.77 4.80781L10.4738 9.61563L7.56 10.4391L6.195 9.29688L5.43375 9.5625L7.035 12.6172Z" fill="#711AC7"/>
</svg>
