<svg width="71" height="46" viewBox="0 0 71 46" fill="none" xmlns="http://www.w3.org/2000/svg">
<path d="M24.375 23.8563V21.7938H49.125V23.8563H24.375ZM26.5406 16.7062L23 10.6906L24.4781 10.4156L26.8844 12.5469L34.6531 10.45L28.775 0.584375L30.7688 0L40.5656 8.83437L47.9906 6.84062C48.6094 6.65729 49.1708 6.76615 49.675 7.16719C50.1792 7.56823 50.4313 8.10104 50.4313 8.76562C50.4313 9.20104 50.2995 9.59062 50.0359 9.93437C49.7724 10.2781 49.4344 10.5073 49.0219 10.6219L26.5406 16.7062Z" fill="#711AC7"/>
<path d="M66.0156 22.3847L59.8752 20.1178L60.2106 19.206L61.1381 19.5484L61.1616 19.4844C60.899 19.2602 60.727 18.9666 60.6457 18.6035C60.5644 18.2403 60.5914 17.8748 60.7267 17.5068C60.7522 17.4375 60.7854 17.3514 60.8264 17.2484C60.8673 17.1454 60.9002 17.0682 60.9251 17.0168L61.8846 17.371C61.8648 17.4001 61.8259 17.469 61.7677 17.5777C61.7078 17.6828 61.6549 17.798 61.6088 17.9233C61.4989 18.2219 61.4635 18.5117 61.5024 18.7925C61.5397 19.0698 61.6426 19.3167 61.8111 19.5334C61.9779 19.7464 62.1999 19.904 62.4771 20.0064L66.3628 21.4408L66.0156 22.3847Z" fill="#711AC7"/>
<path d="M60.3134 31.6251C59.9277 32.0727 59.4828 32.3735 58.9789 32.5274C58.4769 32.6792 57.953 32.6843 57.4073 32.5429C56.8635 32.3994 56.3359 32.1065 55.8244 31.6642C55.3087 31.2182 54.9392 30.7353 54.7159 30.2154C54.4945 29.6934 54.422 29.1725 54.4986 28.6528C54.5771 28.131 54.8091 27.6462 55.1949 27.1986C55.5806 26.751 56.0245 26.4513 56.5266 26.2995C57.0305 26.1456 57.5554 26.1414 58.1014 26.2868C58.6492 26.43 59.181 26.7247 59.6967 27.1707C60.2081 27.6129 60.5735 28.0942 60.7928 28.6143C61.0139 29.1323 61.0853 29.6523 61.0069 30.1741C60.9303 30.6938 60.6991 31.1775 60.3134 31.6251ZM59.6301 31.0342C59.9231 30.6941 60.0771 30.3391 60.0923 29.9691C60.1074 29.599 60.0185 29.2386 59.8258 28.8879C59.633 28.5371 59.3711 28.2187 59.0402 27.9325C58.7093 27.6463 58.3555 27.4324 57.9788 27.2907C57.6022 27.149 57.2312 27.1117 56.8658 27.1788C56.5004 27.2459 56.1712 27.4495 55.8782 27.7896C55.5852 28.1296 55.4322 28.4855 55.4192 28.8574C55.4063 29.2293 55.4973 29.5916 55.6922 29.9442C55.8871 30.2968 56.15 30.6162 56.481 30.9024C56.8119 31.1885 57.1646 31.4016 57.5391 31.5414C57.9136 31.6812 58.2825 31.7167 58.6457 31.6477C59.0089 31.5787 59.3371 31.3742 59.6301 31.0342Z" fill="#711AC7"/>
<path d="M51.5872 38.5144L48.2781 32.867L49.145 32.3572L52.4541 38.0046L51.5872 38.5144ZM48.1674 31.6666C47.9984 31.7659 47.8189 31.794 47.629 31.7508C47.4415 31.7062 47.3003 31.603 47.2055 31.4412C47.1108 31.2794 47.0896 31.1057 47.1421 30.9199C47.197 30.7327 47.309 30.5894 47.478 30.49C47.6469 30.3907 47.8252 30.3633 48.0127 30.408C48.2026 30.4512 48.345 30.5536 48.4398 30.7154C48.5346 30.8772 48.5545 31.0517 48.4996 31.2389C48.4471 31.4247 48.3363 31.5672 48.1674 31.6666Z" fill="#711AC7"/>
<path d="M41.8869 42.181L40.2716 35.838L41.2129 35.5974L41.4569 36.5555L41.523 36.5386C41.5587 36.1952 41.703 35.8871 41.956 35.6143C42.209 35.3414 42.5254 35.1565 42.9052 35.0594C42.9768 35.0411 43.0666 35.0196 43.1746 34.9949C43.2827 34.9702 43.3649 34.9536 43.4214 34.9451L43.6738 35.9361C43.6386 35.9363 43.5598 35.9433 43.4372 35.957C43.3167 35.9673 43.1918 35.989 43.0624 36.022C42.7542 36.1008 42.4954 36.2358 42.2861 36.4271C42.0789 36.615 41.9339 36.8397 41.851 37.1013C41.7701 37.3595 41.7662 37.6317 41.8391 37.9181L42.8613 41.932L41.8869 42.181Z" fill="#711AC7"/>
<path d="M32.167 42.8352C31.5391 42.7761 31.0104 42.5865 30.581 42.2665C30.1548 41.9439 29.842 41.5206 29.6429 40.9968C29.4469 40.4705 29.3802 39.8735 29.4428 39.206C29.5054 38.5385 29.6822 37.9616 29.9732 37.4754C30.2673 36.9866 30.6469 36.62 31.1121 36.3755C31.5804 36.1285 32.1087 36.0327 32.697 36.0881C33.0364 36.1201 33.3663 36.2082 33.6866 36.3524C34.0069 36.4967 34.2909 36.7089 34.5385 36.9891C34.7864 37.2663 34.9715 37.6205 35.0937 38.0514C35.216 38.4824 35.2486 39.0019 35.1915 39.6101L35.1517 40.0343L30.1285 39.5616L30.2097 38.6961L34.2147 39.073C34.2492 38.7053 34.2064 38.3703 34.0864 38.0679C33.9692 37.7658 33.7841 37.5187 33.531 37.3265C33.2808 37.1346 32.9747 37.0216 32.6126 36.9876C32.2138 36.95 31.8595 37.0166 31.5496 37.1871C31.2428 37.3552 30.9969 37.5888 30.8119 37.8881C30.6269 38.1875 30.5175 38.5167 30.4838 38.876L30.4297 39.453C30.3836 39.9451 30.4293 40.3703 30.5669 40.7285C30.7076 41.0842 30.9223 41.3655 31.2111 41.5724C31.5001 41.7766 31.8469 41.8976 32.2513 41.9357C32.5144 41.9605 32.7554 41.9461 32.9744 41.8925C33.1965 41.8363 33.3924 41.7406 33.562 41.6054C33.7319 41.4673 33.8699 41.2891 33.976 41.0708L34.9178 41.4334C34.7852 41.7519 34.5871 42.0243 34.3233 42.2506C34.0598 42.474 33.7448 42.6384 33.3782 42.7437C33.012 42.8462 32.6082 42.8767 32.167 42.8352Z" fill="#711AC7"/>
<path d="M24.8879 34.2879L24.5277 35.0603L21.4556 33.6222L21.8158 32.8499L24.8879 34.2879ZM23.3741 31.8478L24.285 32.2742L21.6477 37.928C21.5276 38.1855 21.4749 38.396 21.4894 38.5597C21.5078 38.722 21.5659 38.8527 21.6639 38.9519C21.7656 39.0497 21.8833 39.1299 22.0171 39.1925C22.1175 39.2395 22.2022 39.2729 22.2713 39.2927C22.3417 39.3099 22.3979 39.3237 22.4401 39.3341L22.2435 40.2395C22.1709 40.2338 22.0739 40.2166 21.9525 40.188C21.8298 40.1619 21.6836 40.1091 21.5138 40.0297C21.2565 39.9092 21.0302 39.7358 20.8348 39.5095C20.642 39.2844 20.5174 39.0206 20.461 38.7181C20.4071 38.4169 20.4607 38.0938 20.6216 37.7488L23.3741 31.8478Z" fill="#711AC7"/>
<path d="M14.8868 27.1905L14.1185 30.1981L17.1132 29.3995L17.936 30.2159L14.1346 31.0545L13.3341 34.8705L12.5113 34.0541L13.1837 31.1435L10.2849 31.8451L9.46205 31.0287L13.2392 30.1661L14.064 26.3741L14.8868 27.1905Z" fill="#711AC7"/>
<path d="M3.15265 19.6527L11.1891 16.2498L13.2367 21.1025L12.3734 21.4681L10.7367 17.589L8.02124 18.7389L9.55195 22.3667L8.68865 22.7322L7.15794 19.1044L4.42679 20.2609L6.09003 24.2028L5.22673 24.5683L3.15265 19.6527Z" fill="#711AC7"/>
</svg>
