<svg width="10" height="10" viewBox="0 0 10 10" fill="none" xmlns="http://www.w3.org/2000/svg">
<g clip-path="url(#clip0_17_452)">
<path d="M5.00004 8.73958L4.57296 8.35416C3.83685 7.68055 3.22921 7.09896 2.75004 6.60937C2.27087 6.11979 1.88893 5.68229 1.60421 5.29687C1.31949 4.91146 1.11983 4.5625 1.00525 4.25C0.890666 3.9375 0.833374 3.62153 0.833374 3.30208C0.833374 2.67708 1.04344 2.15451 1.46358 1.73437C1.88372 1.31423 2.40282 1.10416 3.02087 1.10416C3.41671 1.10416 3.78303 1.19791 4.11983 1.38541C4.45664 1.57291 4.75004 1.84375 5.00004 2.19791C5.29171 1.82291 5.60074 1.54687 5.92712 1.36979C6.25351 1.19271 6.60421 1.10416 6.97921 1.10416C7.59726 1.10416 8.11636 1.31423 8.5365 1.73437C8.95664 2.15451 9.16671 2.67708 9.16671 3.30208C9.16671 3.62153 9.10942 3.9375 8.99483 4.25C8.88025 4.5625 8.6806 4.91146 8.39587 5.29687C8.11115 5.68229 7.72921 6.11979 7.25004 6.60937C6.77087 7.09896 6.16324 7.68055 5.42712 8.35416L5.00004 8.73958ZM5.00004 7.91666C5.70143 7.27083 6.27955 6.71701 6.73442 6.25521C7.18928 5.7934 7.55039 5.38889 7.81775 5.04166C8.08511 4.69444 8.27261 4.38541 8.38025 4.11458C8.48789 3.84375 8.54171 3.57291 8.54171 3.30208C8.54171 2.84375 8.39587 2.46701 8.10421 2.17187C7.81254 1.87673 7.43754 1.72916 6.97921 1.72916C6.62504 1.72916 6.29518 1.83854 5.98962 2.05729C5.68407 2.27604 5.43754 2.58333 5.25004 2.97916H4.73962C4.55907 2.59028 4.31601 2.28472 4.01046 2.0625C3.7049 1.84028 3.37504 1.72916 3.02087 1.72916C2.56254 1.72916 2.18754 1.87673 1.89587 2.17187C1.60421 2.46701 1.45837 2.84375 1.45837 3.30208C1.45837 3.57291 1.51219 3.84548 1.61983 4.11979C1.72747 4.39409 1.91497 4.70659 2.18233 5.05729C2.44969 5.40798 2.81254 5.8125 3.27087 6.27083C3.72921 6.72916 4.3056 7.27778 5.00004 7.91666Z" fill="#711AC7"/>
<path d="M5.00004 8.73958L4.57296 8.35416C3.83685 7.68055 3.22921 7.09896 2.75004 6.60937C2.27087 6.11979 1.88893 5.68229 1.60421 5.29687C1.31949 4.91146 1.11983 4.5625 1.00525 4.25C0.890666 3.9375 0.833374 3.62153 0.833374 3.30208C0.833374 2.67708 1.04344 2.15451 1.46358 1.73437C1.88372 1.31423 2.40282 1.10416 3.02087 1.10416C3.41671 1.10416 3.78303 1.19791 4.11983 1.38541C4.45664 1.57291 4.75004 1.84375 5.00004 2.19791C5.29171 1.82291 5.60074 1.54687 5.92712 1.36979C6.25351 1.19271 6.60421 1.10416 6.97921 1.10416C7.59726 1.10416 8.11636 1.31423 8.5365 1.73437C8.95664 2.15451 9.16671 2.67708 9.16671 3.30208C9.16671 3.62153 9.10942 3.9375 8.99483 4.25C8.88025 4.5625 8.6806 4.91146 8.39587 5.29687C8.11115 5.68229 7.72921 6.11979 7.25004 6.60937C6.77087 7.09896 6.16324 7.68055 5.42712 8.35416L5.00004 8.73958ZM5.00004 7.91666C5.70143 7.27083 6.27955 6.71701 6.73442 6.25521C7.18928 5.7934 7.55039 5.38889 7.81775 5.04166C8.08511 4.69444 8.27261 4.38541 8.38025 4.11458C8.48789 3.84375 8.54171 3.57291 8.54171 3.30208C8.54171 2.84375 8.39587 2.46701 8.10421 2.17187C7.81254 1.87673 7.43754 1.72916 6.97921 1.72916C6.62504 1.72916 6.29518 1.83854 5.98962 2.05729C5.68407 2.27604 5.43754 2.58333 5.25004 2.97916H4.73962C4.55907 2.59028 4.31601 2.28472 4.01046 2.0625C3.7049 1.84028 3.37504 1.72916 3.02087 1.72916C2.56254 1.72916 2.18754 1.87673 1.89587 2.17187C1.60421 2.46701 1.45837 2.84375 1.45837 3.30208C1.45837 3.57291 1.51219 3.84548 1.61983 4.11979C1.72747 4.39409 1.91497 4.70659 2.18233 5.05729C2.44969 5.40798 2.81254 5.8125 3.27087 6.27083C3.72921 6.72916 4.3056 7.27778 5.00004 7.91666Z" fill="#711AC7"/>
<path d="M5.00004 7.86563L4.57296 7.51875C3.83685 6.9125 3.22921 6.38906 2.75004 5.94844C2.27087 5.50781 1.88893 5.11406 1.60421 4.76719C1.31949 4.42031 1.11983 4.10625 1.00525 3.825C0.890666 3.54375 0.833374 3.25938 0.833374 2.97188C0.833374 2.40938 1.04344 1.93906 1.46358 1.56094C1.88372 1.18281 2.40282 0.993752 3.02087 0.993752C3.41671 0.993752 3.78303 1.07813 4.11983 1.24688C4.45664 1.41563 4.75004 1.65938 5.00004 1.97813C5.29171 1.64063 5.60074 1.39219 5.92712 1.23281C6.25351 1.07344 6.60421 0.993752 6.97921 0.993752C7.59726 0.993752 8.11636 1.18281 8.5365 1.56094C8.95664 1.93906 9.16671 2.40938 9.16671 2.97188C9.16671 3.25938 9.10942 3.54375 8.99483 3.825C8.88025 4.10625 8.6806 4.42031 8.39587 4.76719C8.11115 5.11406 7.72921 5.50781 7.25004 5.94844C6.77087 6.38906 6.16323 6.9125 5.42712 7.51875L5.00004 7.86563Z" fill="#711AC7"/>
</g>
<defs>
<clipPath id="clip0_17_452">
<rect width="10" height="10" fill="white"/>
</clipPath>
</defs>
</svg>
