<svg width="62" height="50" viewBox="0 0 62 50" fill="none" xmlns="http://www.w3.org/2000/svg">
<path d="M18.2916 19.5417V0.651031H20.2291V13.3739H31.6281V3.39582H42.026C43.3177 3.39582 44.421 3.85329 45.3359 4.76822C46.2508 5.68315 46.7083 6.78645 46.7083 8.07811V19.5417H44.7708V15.3114H20.2291V19.5417H18.2916ZM25.7187 11.501C24.75 11.501 23.9373 11.1727 23.2807 10.5161C22.6241 9.85954 22.2958 9.04686 22.2958 8.07811C22.2958 7.10936 22.6241 6.29669 23.2807 5.64009C23.9373 4.9835 24.75 4.6552 25.7187 4.6552C26.6875 4.6552 27.5001 4.9835 28.1567 5.64009C28.8133 6.29669 29.1416 7.10936 29.1416 8.07811C29.1416 9.04686 28.8133 9.85954 28.1567 10.5161C27.5001 11.1727 26.6875 11.501 25.7187 11.501ZM33.5656 13.3739H44.7708V8.07811C44.7708 7.32464 44.5017 6.67881 43.9635 6.14061C43.4253 5.60242 42.7795 5.33332 42.026 5.33332H33.5656V13.3739ZM25.7187 9.56353C26.1277 9.56353 26.4776 9.41822 26.7682 9.12759C27.0588 8.83697 27.2041 8.48714 27.2041 8.07811C27.2041 7.66909 27.0588 7.31926 26.7682 7.02864C26.4776 6.73801 26.1277 6.5927 25.7187 6.5927C25.3097 6.5927 24.9599 6.73801 24.6692 7.02864C24.3786 7.31926 24.2333 7.66909 24.2333 8.07811C24.2333 8.48714 24.3786 8.83697 24.6692 9.12759C24.9599 9.41822 25.3097 9.56353 25.7187 9.56353V9.56353ZM33.5656 5.33332V13.3739V5.33332Z" fill="#711AC7"/>
<path d="M2.96143 32.6415L9.56763 26.9386L10.2582 27.7385L7.3164 30.2781L10.3572 33.8006L13.299 31.261L13.9896 32.061L7.38343 37.7639L6.69284 36.9639L9.64757 34.4132L6.60675 30.8907L3.65202 33.4415L2.96143 32.6415Z" fill="#711AC7"/>
<path d="M15.958 43.6593C15.4227 43.4092 15.0125 43.0623 14.7275 42.6187C14.445 42.1762 14.2976 41.673 14.2852 41.1091C14.2754 40.5463 14.4136 39.9586 14.6998 39.3461C14.9884 38.7284 15.3524 38.2415 15.7916 37.8854C16.2333 37.5305 16.7145 37.3195 17.2351 37.2523C17.7582 37.1863 18.2875 37.2784 18.8228 37.5286C19.3582 37.7787 19.7671 38.125 20.0495 38.5675C20.3345 39.0111 20.4813 39.5156 20.49 40.0809C20.5012 40.6474 20.3625 41.2396 20.0738 41.8573C19.7876 42.4698 19.4242 42.9523 18.9836 43.3046C18.5456 43.6581 18.0651 43.8678 17.5419 43.9338C17.0213 44.001 16.4934 43.9095 15.958 43.6593ZM16.3405 42.8409C16.7471 43.0309 17.1304 43.083 17.4904 42.9972C17.8503 42.9114 18.1727 42.7281 18.4576 42.4473C18.7425 42.1665 18.9775 41.8279 19.1627 41.4315C19.3479 41.0352 19.4575 40.6364 19.4913 40.2351C19.5251 39.8339 19.4601 39.4664 19.2962 39.1327C19.1323 38.7989 18.847 38.5371 18.4404 38.347C18.0337 38.157 17.6498 38.1062 17.2887 38.1946C16.9275 38.283 16.6039 38.4688 16.3178 38.7522C16.0318 39.0356 15.7961 39.3755 15.6109 39.7718C15.4257 40.1682 15.3168 40.5657 15.2841 40.9644C15.2515 41.363 15.3177 41.728 15.4828 42.0591C15.648 42.3903 15.9338 42.6508 16.3405 42.8409Z" fill="#711AC7"/>
<path d="M29.7492 40.3375L29.6827 41.1872L26.301 40.9227L26.3675 40.073L29.7492 40.3375ZM27.4754 38.5867L28.478 38.6651L27.9915 44.8847C27.9694 45.168 27.9938 45.3836 28.0649 45.5316C28.139 45.6771 28.2393 45.7789 28.3658 45.8373C28.4954 45.893 28.6338 45.9266 28.7811 45.9381C28.8915 45.9468 28.9826 45.9482 29.0543 45.9424C29.1262 45.9338 29.1838 45.9269 29.2269 45.9217L29.3604 46.8383C29.2904 46.8585 29.1935 46.8766 29.0698 46.8925C28.9458 46.9113 28.7903 46.9134 28.6034 46.8988C28.3201 46.8767 28.0473 46.794 27.785 46.651C27.5254 46.5082 27.3162 46.3051 27.1572 46.042C27.0011 45.779 26.9379 45.4577 26.9676 45.0782L27.4754 38.5867Z" fill="#711AC7"/>
<path d="M39.5788 45.7808C38.9702 45.9462 38.4087 45.9546 37.8943 45.8059C37.3819 45.6537 36.9405 45.3675 36.5701 44.947C36.2017 44.5232 35.9296 43.9877 35.7537 43.3407C35.5778 42.6938 35.5407 42.0915 35.6424 41.534C35.746 40.9729 35.9726 40.4962 36.3223 40.1038C36.674 39.708 37.1349 39.4325 37.7051 39.2775C38.0341 39.1881 38.3739 39.1546 38.7244 39.1771C39.075 39.1996 39.4154 39.2984 39.7456 39.4736C40.0751 39.6461 40.3728 39.9126 40.6386 40.2731C40.9044 40.6336 41.1174 41.1086 41.2776 41.698L41.3894 42.1092L36.5206 43.4326L36.2925 42.5937L40.1744 41.5386C40.0775 41.1822 39.9198 40.8835 39.7013 40.6427C39.4854 40.401 39.2253 40.2347 38.9209 40.1438C38.6193 40.0521 38.293 40.0539 37.9421 40.1493C37.5555 40.2544 37.2472 40.4412 37.017 40.7099C36.7888 40.9751 36.6406 41.2803 36.5725 41.6256C36.5045 41.9709 36.5178 42.3176 36.6124 42.6657L36.7644 43.225C36.8941 43.702 37.0862 44.084 37.3409 44.371C37.5975 44.6545 37.8974 44.8424 38.2404 44.9346C38.5827 45.0241 38.9498 45.0156 39.3418 44.909C39.5968 44.8397 39.8174 44.7415 40.0036 44.6143C40.1918 44.4837 40.3416 44.3252 40.4529 44.139C40.5634 43.9499 40.63 43.7346 40.6526 43.4929L41.6617 43.5012C41.6495 43.8461 41.5596 44.1708 41.3922 44.4754C41.224 44.7772 40.9868 45.0419 40.6807 45.2694C40.3737 45.4941 40.0065 45.6646 39.5788 45.7808ZM37.0015 38.6386L37.4863 36.4578L38.6212 36.1493L37.8569 38.4061L37.0015 38.6386Z" fill="#711AC7"/>
<path d="M48.4118 41.7432L44.8377 36.2597L45.6802 35.7105L49.2543 41.194L48.4118 41.7432ZM44.6704 35.0665C44.5062 35.1736 44.3281 35.2099 44.1362 35.1757C43.9467 35.1398 43.8007 35.0433 43.6983 34.8863C43.5959 34.7292 43.5666 34.5567 43.6103 34.3688C43.6564 34.1794 43.7616 34.0312 43.9258 33.9241C44.09 33.8171 44.2669 33.7815 44.4564 33.8174C44.6483 33.8517 44.7955 33.9473 44.8978 34.1044C45.0002 34.2615 45.0284 34.4348 44.9823 34.6242C44.9386 34.812 44.8346 34.9595 44.6704 35.0665Z" fill="#711AC7"/>
<path d="M53.9883 29.6491L53.6182 30.512C53.4654 30.4614 53.299 30.4344 53.1189 30.4311C52.9384 30.4237 52.7527 30.4634 52.5618 30.5501C52.3709 30.6368 52.1834 30.7938 51.9992 31.0211C51.747 31.3324 51.6086 31.6499 51.584 31.9736C51.5589 32.2933 51.6557 32.5417 51.8742 32.7188C52.0684 32.8762 52.2791 32.9298 52.5061 32.8797C52.7331 32.8297 53.0058 32.685 53.3241 32.4456L54.1211 31.8409C54.5999 31.4756 55.0433 31.2735 55.4513 31.2348C55.857 31.1943 56.2376 31.318 56.593 31.6059C56.8844 31.842 57.0769 32.1369 57.1705 32.4906C57.266 32.8422 57.2592 33.2206 57.1502 33.6259C57.0412 34.0312 56.8267 34.4314 56.5065 34.8265C56.0863 35.3452 55.6259 35.6834 55.1253 35.8409C54.6247 35.9984 54.1215 35.9472 53.6155 35.6871L54.031 34.7952C54.3619 34.9464 54.6754 34.9791 54.9714 34.8936C55.2692 34.8058 55.5478 34.6019 55.8071 34.2818C56.1022 33.9176 56.2592 33.5658 56.2782 33.2265C56.2967 32.8832 56.1967 32.623 55.9782 32.446C55.8016 32.3029 55.6036 32.2449 55.3843 32.2719C55.1627 32.2972 54.9184 32.4137 54.6514 32.6215L53.766 33.3081C53.2783 33.6845 52.83 33.888 52.4212 33.9188C52.0119 33.9455 51.6318 33.8167 51.2808 33.5324C50.9939 33.2999 50.8053 33.0136 50.7151 32.6737C50.6267 32.3315 50.6332 31.9693 50.7345 31.587C50.8376 31.2025 51.034 30.8315 51.3237 30.4739C51.7315 29.9706 52.1619 29.6649 52.6152 29.5568C53.0702 29.4465 53.5279 29.4772 53.9883 29.6491Z" fill="#711AC7"/>
</svg>
