<svg width="74" height="56" viewBox="0 0 74 56" fill="none" xmlns="http://www.w3.org/2000/svg">
<path d="M21.4167 17.5L29.9167 6.16667L36.823 15.375H48.3334L39.8334 4.07708L35.4063 9.95625L34.0605 8.18542L39.8334 0.5L52.5834 17.5H21.4167ZM25.6667 15.375H34.1667L29.9167 9.70833L25.6667 15.375ZM25.6667 15.375H34.1667H25.6667Z" fill="#711AC7"/>
<path d="M11.7341 15.1898L11.7856 16.4501L4.66817 19.7099L4.67234 19.812L12.0315 22.4792L12.0829 23.7395L3.36291 24.0965L3.32262 23.1086L9.94775 22.8374L9.94428 22.7523L3.208 20.2985L3.16909 19.3447L9.68307 16.3485L9.6796 16.2634L3.05447 16.5346L3.01417 15.5467L11.7341 15.1898Z" fill="#711AC7"/>
<path d="M6.8504 34.2045C6.57082 33.684 6.44931 33.1605 6.48586 32.6341C6.52376 32.1102 6.70614 31.6182 7.033 31.158C7.36121 30.7004 7.82292 30.3112 8.41811 29.9904C9.01831 29.6669 9.6007 29.4934 10.1653 29.4699C10.7312 29.4489 11.2428 29.5669 11.7001 29.8239C12.1587 30.0834 12.5278 30.4734 12.8074 30.994C13.0869 31.5146 13.2078 32.0368 13.1699 32.5607C13.1333 33.0871 12.9497 33.5798 12.619 34.0388C12.2896 34.5003 11.8249 34.8928 11.2247 35.2163C10.6295 35.537 10.0501 35.7073 9.48671 35.7269C8.92462 35.7491 8.41428 35.6304 7.95567 35.3709C7.4984 35.1139 7.12998 34.7251 6.8504 34.2045ZM7.64566 33.7759C7.85803 34.1714 8.13405 34.4422 8.47372 34.5883C8.81339 34.7344 9.18121 34.7798 9.57718 34.7245C9.97315 34.6693 10.3637 34.5378 10.7488 34.3303C11.134 34.1227 11.4599 33.868 11.7266 33.5661C11.9934 33.2642 12.1607 32.9303 12.2287 32.5645C12.2967 32.1987 12.2245 31.8181 12.0121 31.4226C11.7997 31.0272 11.5225 30.7571 11.1803 30.6123C10.8381 30.4675 10.4678 30.4235 10.0693 30.4801C9.67086 30.5367 9.27906 30.6688 8.89393 30.8764C8.50881 31.0839 8.18412 31.338 7.91987 31.6386C7.65563 31.9391 7.49077 32.2716 7.4253 32.6361C7.35984 33.0005 7.43329 33.3805 7.64566 33.7759Z" fill="#711AC7"/>
<path d="M16.661 40.5011L14.2145 43.5863L13.4275 42.96L17.4945 37.8314L18.2547 38.4364L17.6192 39.2377L17.6859 39.2908C18.0125 39.1259 18.3607 39.0617 18.7305 39.0982C19.1022 39.1326 19.4814 39.3036 19.8682 39.6114C20.2149 39.8874 20.4619 40.2001 20.609 40.5495C20.7579 40.8967 20.7907 41.2714 20.7075 41.6735C20.626 42.0735 20.4123 42.4916 20.0664 42.9278L17.4822 46.1867L16.6952 45.5605L19.2371 42.355C19.5566 41.9521 19.701 41.5551 19.6703 41.164C19.6414 40.7707 19.4447 40.429 19.0801 40.1389C18.8289 39.939 18.5611 39.8148 18.2768 39.7665C17.9947 39.7199 17.714 39.7561 17.4347 39.8751C17.1554 39.9941 16.8975 40.2028 16.661 40.5011Z" fill="#711AC7"/>
<path d="M29.5916 44.6855L29.3302 45.4967L26.1027 44.453L26.3641 43.6418L29.5916 44.6855ZM27.7857 42.4534L28.7426 42.7628L26.8293 48.7008C26.7421 48.9712 26.716 49.1867 26.7508 49.3472C26.7892 49.5059 26.8632 49.6284 26.9727 49.7146C27.0858 49.7989 27.2126 49.8638 27.3532 49.9093C27.4586 49.9433 27.5469 49.9659 27.6179 49.9769C27.6899 49.9853 27.7474 49.9919 27.7906 49.9969L27.7081 50.9197C27.6354 50.9231 27.537 50.9182 27.4129 50.9049C27.288 50.8944 27.1363 50.8602 26.9579 50.8026C26.6876 50.7151 26.4414 50.5714 26.2194 50.3712C26.0001 50.1719 25.8436 49.9257 25.75 49.6327C25.6591 49.3405 25.672 49.0133 25.7887 48.6509L27.7857 42.4534Z" fill="#711AC7"/>
<path d="M37.059 52.3008C36.6445 52.3138 36.2658 52.2475 35.923 52.1019C35.5801 51.9534 35.3047 51.7333 35.0966 51.4413C34.8885 51.1465 34.7778 50.7862 34.7645 50.3603C34.7528 49.9855 34.8171 49.6793 34.9575 49.4419C35.0979 49.2015 35.2894 49.0108 35.5323 48.8696C35.7752 48.7284 36.0447 48.6205 36.3408 48.5459C36.6397 48.4683 36.9404 48.4049 37.243 48.3556C37.6389 48.2921 37.96 48.2437 38.2063 48.2104C38.4552 48.1742 38.6355 48.1216 38.7471 48.0528C38.8614 47.9838 38.9161 47.8684 38.9111 47.7066L38.91 47.6725C38.8969 47.2522 38.7717 46.9293 38.5345 46.7036C38.3 46.4779 37.9514 46.3723 37.4886 46.3868C37.0087 46.4018 36.6357 46.5186 36.3697 46.7373C36.1036 46.9559 35.919 47.1862 35.8157 47.4282L34.851 47.1173C35.0089 46.7145 35.2264 46.3979 35.5035 46.1675C35.7833 45.9342 36.0908 45.7682 36.4259 45.6697C36.7638 45.5681 37.0975 45.5122 37.4269 45.5019C37.637 45.4953 37.8792 45.5133 38.1533 45.5559C38.4303 45.5956 38.6989 45.6881 38.9593 45.8334C39.2224 45.9787 39.444 46.2034 39.624 46.5075C39.8041 46.8117 39.9022 47.2236 39.9184 47.7433L40.0528 52.0537L39.0476 52.0851L39.02 51.1992L38.9689 51.2008C38.9051 51.3449 38.7963 51.5004 38.6423 51.6672C38.4884 51.834 38.2811 51.9784 38.0206 52.1002C37.76 52.222 37.4395 52.2889 37.059 52.3008ZM37.1842 51.3931C37.5817 51.3806 37.9144 51.292 38.1821 51.1273C38.4527 50.9626 38.6537 50.7545 38.7851 50.5031C38.9194 50.2516 38.9822 49.9895 38.9737 49.717L38.9451 48.7969C38.9041 48.8494 38.8118 48.8992 38.6683 48.9463C38.5276 48.9905 38.364 49.0311 38.1776 49.0682C37.9939 49.1024 37.8144 49.1336 37.639 49.1618C37.4664 49.1871 37.3264 49.2086 37.219 49.2261C36.9588 49.2684 36.7163 49.3314 36.4915 49.4152C36.2695 49.496 36.0913 49.6139 35.9569 49.7687C35.8252 49.9206 35.7633 50.1244 35.7713 50.3799C35.7822 50.7292 35.9196 50.9892 36.1836 51.16C36.4503 51.3279 36.7838 51.4056 37.1842 51.3931Z" fill="#711AC7"/>
<path d="M46.8558 46.4656L48.4645 50.0595L47.5471 50.4716L44.873 44.4973L45.7593 44.0992L46.1771 45.0326L46.2548 44.9977C46.259 44.6315 46.3624 44.2923 46.565 43.9801C46.7665 43.6654 47.0928 43.4067 47.5437 43.2042C47.9479 43.0226 48.3388 42.9467 48.7163 42.9764C49.0926 43.0036 49.4399 43.1466 49.758 43.4054C50.075 43.6617 50.3473 44.0439 50.5748 44.5521L52.2739 48.3483L51.3566 48.7604L49.6852 45.0264C49.4752 44.5571 49.1897 44.2462 48.8289 44.0937C48.4669 43.9387 48.0734 43.9566 47.6484 44.1475C47.3556 44.279 47.1223 44.4601 46.9485 44.6908C46.7773 44.9203 46.6802 45.1866 46.6571 45.4897C46.6341 45.7928 46.7003 46.1181 46.8558 46.4656Z" fill="#711AC7"/>
<path d="M57.007 40.1728L59.9034 42.8401L59.2234 43.5811L52.8037 37.6691L53.4836 36.9281L55.8409 39.0989L55.8985 39.0361C55.7535 38.6941 55.7116 38.3427 55.7728 37.9819C55.8338 37.6171 56.0381 37.2453 56.3858 36.8664C56.6874 36.5378 57.0173 36.3106 57.3756 36.1849C57.7318 36.0572 58.1072 36.0494 58.5016 36.1617C58.8959 36.2698 59.2999 36.5145 59.7136 36.8955L62.7731 39.713L62.0931 40.4539L59.0838 37.6827C58.7014 37.3305 58.3145 37.1576 57.923 37.164C57.5314 37.1664 57.1752 37.3423 56.8544 37.6919C56.6316 37.9347 56.483 38.1995 56.4087 38.4864C56.3363 38.7712 56.3475 39.0595 56.4421 39.3513C56.5386 39.6411 56.7269 39.9149 57.007 40.1728Z" fill="#711AC7"/>
<path d="M67.9956 30.8818C67.8524 31.2711 67.6492 31.5973 67.3859 31.8605C67.1199 32.1227 66.8127 32.2954 66.4642 32.3787C66.1131 32.4611 65.7376 32.4285 65.3378 32.2809C64.986 32.151 64.7264 31.9764 64.5588 31.7571C64.3886 31.5368 64.2836 31.2875 64.2436 31.0093C64.2037 30.7311 64.2046 30.4407 64.2463 30.1382C64.2863 29.8319 64.3401 29.5293 64.4077 29.2302C64.4971 28.8392 64.5724 28.5233 64.6338 28.2825C64.6934 28.0381 64.7122 27.8512 64.6902 27.7219C64.6691 27.59 64.5826 27.4959 64.4307 27.4399L64.3987 27.4281C64.0043 27.2824 63.6581 27.2773 63.3601 27.4126C63.0631 27.5452 62.8346 27.8288 62.6748 28.2634C62.509 28.714 62.4776 29.1037 62.5807 29.4324C62.6838 29.7612 62.8281 30.0189 63.0137 30.2055L62.3644 30.9833C62.0501 30.6856 61.8381 30.365 61.7283 30.0217C61.6168 29.6747 61.5781 29.3273 61.6122 28.9795C61.6446 28.6281 61.7177 28.2977 61.8315 27.9884C61.9041 27.7911 62.0114 27.5733 62.1535 27.3351C62.294 27.0932 62.4803 26.8788 62.7125 26.692C62.9457 26.5025 63.2369 26.3814 63.5863 26.3287C63.9356 26.2759 64.3541 26.3396 64.8418 26.5196L68.8875 28.0132L68.5403 28.957L67.7087 28.65L67.6911 28.698C67.8008 28.8112 67.9042 28.9705 68.0011 29.1759C68.0981 29.3813 68.1543 29.6276 68.1697 29.9149C68.1851 30.2023 68.1271 30.5245 67.9956 30.8818ZM67.2011 30.425C67.3384 30.0517 67.3809 29.71 67.3284 29.4C67.277 29.0872 67.1594 28.8227 66.9756 28.6065C66.7928 28.3876 66.5734 28.2309 66.3176 28.1364L65.4541 27.8177C65.4873 27.8754 65.4989 27.9796 65.4889 28.1303C65.4772 28.2774 65.4536 28.4444 65.4182 28.6312C65.3811 28.8143 65.3428 28.9925 65.3033 29.1656C65.2621 29.3352 65.2296 29.473 65.2056 29.5793C65.1474 29.8364 65.115 30.0849 65.1085 30.3247C65.1003 30.5609 65.1428 30.7704 65.236 30.9532C65.3275 31.1324 65.4932 31.2662 65.733 31.3548C66.0608 31.4758 66.3533 31.446 66.6105 31.2653C66.8659 31.081 67.0628 30.8009 67.2011 30.425Z" fill="#711AC7"/>
<path d="M65.0147 15.9453L65.2898 16.8429C65.1405 16.903 64.996 16.9899 64.8564 17.1038C64.7139 17.2149 64.5978 17.3651 64.5081 17.5546C64.4184 17.7441 64.3767 17.9851 64.383 18.2777C64.3917 18.6781 64.4912 19.0099 64.6815 19.2729C64.869 19.5331 65.1033 19.6601 65.3845 19.654C65.6345 19.6486 65.8299 19.5535 65.9708 19.3685C66.1118 19.1836 66.2264 18.897 66.3146 18.5086L66.5322 17.5321C66.6616 16.9439 66.8695 16.5033 67.1558 16.2101C67.4394 15.9169 67.8097 15.7654 68.267 15.7555C68.6419 15.7474 68.9794 15.8481 69.2795 16.0575C69.5794 16.2641 69.8188 16.5573 69.9975 16.9371C70.1761 17.3168 70.271 17.7609 70.2819 18.2693C70.2963 18.9368 70.1634 19.4923 69.8831 19.936C69.6029 20.3797 69.1856 20.6657 68.6315 20.7942L68.3723 19.8451C68.7225 19.7466 68.983 19.569 69.1536 19.3124C69.3242 19.053 69.405 18.7174 69.3962 18.3055C69.386 17.8369 69.2786 17.467 69.0738 17.1958C68.8662 16.9218 68.6218 16.7878 68.3406 16.7939C68.1134 16.7988 67.9248 16.8825 67.7748 17.0449C67.6221 17.2073 67.5109 17.4541 67.4413 17.7852L67.2092 18.8814C67.0801 19.4838 66.8695 19.9288 66.5773 20.2164C66.2823 20.5013 65.9089 20.6486 65.4573 20.6584C65.0881 20.6664 64.7593 20.5698 64.4708 20.3686C64.1822 20.1646 63.9531 19.8839 63.7834 19.5267C63.6137 19.1667 63.5238 18.7566 63.5139 18.2965C63.4999 17.6489 63.631 17.1374 63.907 16.762C64.183 16.3838 64.5523 16.1116 65.0147 15.9453Z" fill="#711AC7"/>
</svg>
