<svg width="28" height="28" viewBox="0 0 28 28" fill="none" xmlns="http://www.w3.org/2000/svg">
<path d="M23.1583 24.2667L15.4875 16.5958L16.8292 15.2542L24.5 22.925L23.1583 24.2667ZM6.53333 22.925C5.50278 21.7972 4.73958 20.5479 4.24375 19.1771C3.74792 17.8062 3.5 16.4111 3.5 14.9917C3.5 13.475 3.78194 11.9972 4.34583 10.5583C4.90972 9.11944 5.76528 7.82638 6.9125 6.67916C8.05972 5.53194 9.35764 4.67638 10.8062 4.1125C12.2549 3.54861 13.7375 3.26666 15.2542 3.26666C16.6736 3.26666 18.0688 3.51458 19.4396 4.01041C20.8104 4.50625 22.05 5.26944 23.1583 6.3L6.53333 22.925ZM6.62083 20.3292L8.63333 18.2875C8.32222 17.8597 8.01111 17.3979 7.7 16.9021C7.38889 16.4062 7.10208 15.8812 6.83958 15.3271C6.57708 14.7729 6.35833 14.1993 6.18333 13.6062C6.00833 13.0132 5.89167 12.4056 5.83333 11.7833C5.30833 13.2222 5.12847 14.6903 5.29375 16.1875C5.45903 17.6847 5.90139 19.0653 6.62083 20.3292ZM10.0333 16.975L17.2083 9.74166C16.3139 9.04166 15.4049 8.49236 14.4812 8.09375C13.5576 7.69513 12.6778 7.43263 11.8417 7.30625C11.0056 7.17986 10.2618 7.17986 9.61042 7.30625C8.95903 7.43263 8.45833 7.67083 8.10833 8.02083C7.75833 8.37083 7.53472 8.87152 7.4375 9.52291C7.34028 10.1743 7.36458 10.9035 7.51042 11.7104C7.65625 12.5174 7.93819 13.3729 8.35625 14.2771C8.77431 15.1812 9.33333 16.0806 10.0333 16.975ZM18.5208 8.4L20.6208 6.3875C19.3375 5.57083 17.9424 5.09444 16.4354 4.95833C14.9285 4.82222 13.4556 5.03611 12.0167 5.6C12.6 5.65833 13.1785 5.775 13.7521 5.95C14.3257 6.125 14.8896 6.33402 15.4437 6.57708C15.9979 6.82013 16.5326 7.09722 17.0479 7.40833C17.5632 7.71944 18.0542 8.05 18.5208 8.4Z" fill="#711AC7"/>
</svg>
