<svg width="60" height="56" viewBox="0 0 60 56" fill="none" xmlns="http://www.w3.org/2000/svg">
<path d="M38.2938 25.6L29.2531 16.5594L30.8344 14.9781L39.875 24.0188L38.2938 25.6ZM18.7 24.0188C17.4854 22.6896 16.5859 21.2172 16.0016 19.6016C15.4172 17.9859 15.125 16.3417 15.125 14.6688C15.125 12.8813 15.4573 11.1396 16.1219 9.44376C16.7865 7.74792 17.7948 6.22396 19.1469 4.87188C20.499 3.5198 22.0286 2.51146 23.7359 1.84688C25.4432 1.1823 27.1906 0.850006 28.9781 0.850006C30.651 0.850006 32.2953 1.14219 33.9109 1.72657C35.5266 2.31094 36.9875 3.21042 38.2938 4.42501L18.7 24.0188ZM18.8031 20.9594L21.175 18.5531C20.8083 18.049 20.4417 17.5047 20.075 16.9203C19.7083 16.3359 19.3703 15.7172 19.0609 15.0641C18.7516 14.4109 18.4938 13.7349 18.2875 13.0359C18.0813 12.337 17.9438 11.6208 17.875 10.8875C17.2563 12.5833 17.0443 14.3135 17.2391 16.0781C17.4339 17.8427 17.9552 19.4698 18.8031 20.9594V20.9594ZM22.825 17.0063L31.2812 8.48126C30.2271 7.65626 29.1557 7.00886 28.0672 6.53907C26.9786 6.06928 25.9417 5.7599 24.9562 5.61094C23.9708 5.46199 23.0943 5.46199 22.3266 5.61094C21.5589 5.7599 20.9687 6.04063 20.5562 6.45313C20.1437 6.86563 19.8802 7.45574 19.7656 8.22344C19.651 8.99115 19.6797 9.85053 19.8516 10.8016C20.0234 11.7526 20.3557 12.7609 20.8484 13.8266C21.3411 14.8922 22 15.9521 22.825 17.0063V17.0063ZM32.8281 6.90001L35.3031 4.52813C33.7906 3.56563 32.1464 3.00417 30.3703 2.84376C28.5943 2.68334 26.8583 2.93542 25.1625 3.60001C25.85 3.66876 26.5318 3.80626 27.2078 4.01251C27.8839 4.21876 28.5484 4.46511 29.2016 4.75157C29.8547 5.03803 30.4849 5.36459 31.0922 5.73126C31.6995 6.09792 32.2781 6.48751 32.8281 6.90001V6.90001Z" fill="#711AC7"/>
<path d="M2.95499 38.6877L9.52958 32.9484L11.4688 35.1699C11.9191 35.6857 12.1941 36.1886 12.2937 36.6785C12.3974 37.1688 12.361 37.6304 12.1847 38.0634C12.0083 38.4964 11.7265 38.882 11.3391 39.2202C10.9517 39.5583 10.5305 39.7865 10.0755 39.9046C9.62241 40.0249 9.15875 40.0035 8.68457 39.8405C8.21253 39.6756 7.75325 39.3374 7.30673 38.8259L5.91674 37.2336L6.62299 36.6171L7.99057 38.1837C8.29883 38.5368 8.60738 38.7671 8.91619 38.8746C9.22501 38.9822 9.52525 38.9935 9.81692 38.9085C10.1126 38.8239 10.3921 38.6667 10.6553 38.4369C10.9185 38.2071 11.111 37.9524 11.2326 37.6727C11.3562 37.3952 11.3824 37.0969 11.3114 36.778C11.2426 36.4572 11.0522 36.1181 10.7402 35.7607L9.51832 34.3611L3.64999 39.4839L2.95499 38.6877Z" fill="#711AC7"/>
<path d="M12.8753 47.6142L15.9544 41.8381L16.8118 42.2952L16.3467 43.1676L16.4069 43.1997C16.6645 42.97 16.9786 42.8397 17.3493 42.8087C17.7199 42.7777 18.0783 42.8544 18.4242 43.0388C18.4894 43.0736 18.5702 43.1183 18.6666 43.1729C18.7631 43.2275 18.835 43.2707 18.8825 43.3025L18.4014 44.205C18.3753 44.1814 18.3124 44.1334 18.2126 44.0609C18.1167 43.9872 18.0098 43.9189 17.892 43.8561C17.6112 43.7065 17.3291 43.6317 17.0457 43.632C16.7661 43.631 16.5076 43.6992 16.2701 43.8367C16.0365 43.9729 15.8502 44.1714 15.7113 44.4321L13.7628 48.0872L12.8753 47.6142Z" fill="#711AC7"/>
<path d="M24.4965 51.9786C24.0859 51.9198 23.7244 51.7892 23.4118 51.5866C23.0997 51.3812 22.8664 51.1168 22.7118 50.7933C22.5576 50.467 22.5107 50.093 22.5711 49.6711C22.6242 49.2999 22.7404 49.0095 22.9197 48.7998C23.0993 48.5873 23.321 48.4325 23.5845 48.3353C23.8481 48.2382 24.1322 48.1784 24.4367 48.156C24.7445 48.1312 25.0517 48.1206 25.3582 48.1243C25.7592 48.1301 26.0838 48.1378 26.3321 48.1475C26.5836 48.1548 26.7702 48.1342 26.8919 48.0856C27.0165 48.0374 27.0903 47.9332 27.1132 47.7729L27.118 47.7391C27.1776 47.3229 27.11 46.9832 26.9152 46.72C26.7233 46.4572 26.3981 46.293 25.9397 46.2274C25.4644 46.1593 25.0769 46.21 24.7772 46.3795C24.4774 46.549 24.2558 46.7439 24.1123 46.9645L23.2157 46.4917C23.4408 46.1222 23.7096 45.8478 24.0222 45.6688C24.3381 45.4872 24.6696 45.3769 25.0167 45.3376C25.3671 45.2959 25.7053 45.2984 26.0316 45.3451C26.2397 45.3749 26.4751 45.4344 26.7378 45.5237C27.0038 45.6106 27.2524 45.748 27.4838 45.9361C27.7179 46.1246 27.8975 46.3842 28.0223 46.7149C28.1472 47.0456 28.1728 47.4683 28.0991 47.9829L27.488 52.2519L26.4924 52.1094L26.618 51.2319L26.5674 51.2247C26.4798 51.3556 26.3458 51.49 26.1653 51.6278C25.9849 51.7655 25.7559 51.8719 25.4782 51.947C25.2006 52.022 24.8733 52.0326 24.4965 51.9786ZM24.7764 51.1061C25.1701 51.1624 25.513 51.1326 25.8051 51.0166C26.1001 50.9009 26.3339 50.7307 26.5068 50.5057C26.6824 50.2812 26.7895 50.0339 26.8282 49.764L26.9586 48.8528C26.9092 48.8974 26.8097 48.9305 26.6603 48.9521C26.514 48.9714 26.3459 48.9832 26.1559 48.9875C25.969 48.9895 25.7868 48.9893 25.6093 48.9868C25.4349 48.9819 25.2933 48.9789 25.1844 48.9776C24.9208 48.9743 24.6711 48.9946 24.4353 49.0383C24.2026 49.0796 24.0068 49.1649 23.8476 49.2942C23.6917 49.4211 23.5956 49.6112 23.5594 49.8643C23.5099 50.2102 23.6004 50.49 23.8309 50.7038C24.0647 50.9152 24.3799 51.0493 24.7764 51.1061Z" fill="#711AC7"/>
<path d="M35.0234 51.8548L33.8916 45.4079L34.8821 45.234L36.0139 51.6809L35.0234 51.8548ZM34.2066 44.245C34.0136 44.2789 33.8355 44.2424 33.6725 44.1354C33.5124 44.028 33.416 43.8819 33.3836 43.6972C33.3512 43.5126 33.392 43.3424 33.506 43.1869C33.6228 43.0308 33.7778 42.9358 33.9709 42.9019C34.1639 42.868 34.3406 42.9048 34.5008 43.0122C34.6637 43.1192 34.7615 43.265 34.7939 43.4497C34.8263 43.6343 34.7841 43.8047 34.6673 43.9608C34.5533 44.1164 34.3997 44.2111 34.2066 44.245Z" fill="#711AC7"/>
<path d="M44.9515 48.7999C44.5855 48.995 44.2165 49.1032 43.8447 49.1243C43.4715 49.143 43.1271 49.0674 42.8112 48.8978C42.4941 48.7256 42.2353 48.4515 42.0348 48.0754C41.8584 47.7445 41.7806 47.4415 41.8014 47.1664C41.8208 46.8889 41.9082 46.633 42.0635 46.3989C42.2188 46.1648 42.4127 45.9488 42.6452 45.7508C42.8788 45.549 43.1204 45.359 43.37 45.181C43.6969 44.9487 43.9634 44.7632 44.1695 44.6244C44.3767 44.4817 44.5151 44.3548 44.5847 44.2437C44.6567 44.1312 44.6546 44.0036 44.5785 43.8607L44.5624 43.8306C44.3646 43.4596 44.1094 43.2254 43.7968 43.1281C43.4866 43.0294 43.1273 43.089 42.7186 43.3068C42.2949 43.5327 42.0122 43.8025 41.8704 44.1163C41.7287 44.4301 41.665 44.7184 41.6795 44.9811L40.6768 45.1293C40.6401 44.6981 40.695 44.318 40.8415 43.9888C40.9891 43.6557 41.1914 43.3709 41.4483 43.1341C41.7063 42.8935 41.9808 42.6957 42.2716 42.5407C42.4571 42.4418 42.6822 42.3508 42.9469 42.2676C43.2128 42.1806 43.4947 42.1446 43.7925 42.1597C44.0928 42.1735 44.391 42.2769 44.687 42.47C44.9831 42.6631 45.2534 42.989 45.498 43.4478L47.5267 47.2533L46.6392 47.7264L46.2222 46.9442L46.1771 46.9683C46.1838 47.1257 46.155 47.3133 46.0908 47.531C46.0266 47.7488 45.9046 47.9699 45.7249 48.1945C45.5452 48.419 45.2874 48.6208 44.9515 48.7999ZM44.6619 47.9305C45.0128 47.7435 45.2719 47.5168 45.4391 47.2506C45.6088 46.9831 45.6969 46.7076 45.7035 46.424C45.7125 46.1391 45.6529 45.8763 45.5246 45.6356L45.0916 44.8233C45.0781 44.8885 45.0174 44.974 44.9096 45.0797C44.803 45.1817 44.6743 45.2905 44.5235 45.4063C44.3739 45.5182 44.2268 45.6256 44.082 45.7286C43.9385 45.8276 43.8224 45.9088 43.7338 45.9721C43.5192 46.1252 43.3297 46.289 43.1652 46.4636C43.0019 46.6343 42.8942 46.8189 42.8422 47.0172C42.7914 47.2118 42.8261 47.4218 42.9464 47.6474C43.1107 47.9558 43.3491 48.1281 43.6614 48.1645C43.9749 48.197 44.3084 48.119 44.6619 47.9305Z" fill="#711AC7"/>
<path d="M52.6249 35.6575L52.2369 36.5124C52.0852 36.4586 51.9194 36.4281 51.7393 36.421C51.559 36.4099 51.3725 36.4457 51.1799 36.5283C50.9872 36.611 50.7964 36.764 50.6075 36.9875C50.3489 37.2934 50.2039 37.6079 50.1725 37.931C50.1407 38.2502 50.2322 38.5006 50.447 38.6821C50.6379 38.8436 50.8474 38.9016 51.0754 38.8563C51.3034 38.811 51.5791 38.672 51.9023 38.4394L52.7118 37.8515C53.1981 37.4963 53.6457 37.3036 54.0544 37.2734C54.4609 37.2414 54.8388 37.3731 55.1881 37.6684C55.4744 37.9105 55.6607 38.2094 55.7469 38.565C55.835 38.9185 55.8203 39.2967 55.7028 39.6996C55.5854 40.1025 55.3625 40.4981 55.0342 40.8865C54.6031 41.3963 54.1357 41.7247 53.632 41.8717C53.1282 42.0187 52.6261 41.9569 52.1257 41.6863L52.5598 40.8033C52.8875 40.9614 53.2002 41.0007 53.498 40.9213C53.7976 40.8398 54.0803 40.6418 54.3463 40.3272C54.649 39.9693 54.8133 39.6209 54.8394 39.282C54.8651 38.9392 54.7706 38.677 54.5558 38.4954C54.3822 38.3487 54.1855 38.2865 53.9657 38.309C53.7436 38.3296 53.4969 38.4409 53.2256 38.643L52.326 39.311C51.8305 39.6771 51.3781 39.8712 50.9687 39.8933C50.559 39.9115 50.1817 39.7748 49.8367 39.4831C49.5547 39.2447 49.3722 38.9546 49.2891 38.6128C49.2079 38.2688 49.222 37.9068 49.3313 37.5267C49.4424 37.1445 49.6465 36.7777 49.9437 36.4262C50.3619 35.9316 50.7987 35.635 51.2541 35.5364C51.7113 35.4356 52.1682 35.476 52.6249 35.6575Z" fill="#711AC7"/>
</svg>
