<svg width="153" height="33" viewBox="0 0 153 33" fill="none" xmlns="http://www.w3.org/2000/svg">
<path d="M10 15.875C8.9 15.875 8 15.525 7.3 14.825C6.6 14.125 6.25 13.225 6.25 12.125C6.25 11.025 6.6 10.125 7.3 9.425C8 8.725 8.9 8.375 10 8.375C11.1 8.375 12 8.725 12.7 9.425C13.4 10.125 13.75 11.025 13.75 12.125C13.75 13.225 13.4 14.125 12.7 14.825C12 15.525 11.1 15.875 10 15.875ZM2 23.9V21.55C2 20.9667 2.14583 20.4417 2.4375 19.975C2.72917 19.5083 3.15 19.15 3.7 18.9C4.9 18.3667 6.0125 17.9833 7.0375 17.75C8.0625 17.5167 9.05 17.4 10 17.4H10.575C10.475 17.6333 10.4 17.8625 10.35 18.0875C10.3 18.3125 10.2583 18.5833 10.225 18.9H10C9.03333 18.9 8.0875 19.0042 7.1625 19.2125C6.2375 19.4208 5.28333 19.7667 4.3 20.25C4.03333 20.3833 3.83333 20.5708 3.7 20.8125C3.56667 21.0542 3.5 21.3 3.5 21.55V22.4H10.225C10.3083 22.7 10.4083 22.9708 10.525 23.2125C10.6417 23.4542 10.7833 23.6833 10.95 23.9H2ZM16.675 25L16.425 23.35C16.1417 23.2667 15.8542 23.1458 15.5625 22.9875C15.2708 22.8292 15.025 22.65 14.825 22.45L13.45 22.75L12.825 21.7L14 20.6C13.9667 20.45 13.95 20.2417 13.95 19.975C13.95 19.7083 13.9667 19.5 14 19.35L12.825 18.25L13.45 17.2L14.825 17.5C15.025 17.3 15.2708 17.1208 15.5625 16.9625C15.8542 16.8042 16.1417 16.6833 16.425 16.6L16.675 14.95H18.025L18.275 16.6C18.5583 16.6833 18.8458 16.8042 19.1375 16.9625C19.4292 17.1208 19.675 17.3 19.875 17.5L21.25 17.2L21.875 18.25L20.7 19.35C20.7333 19.5 20.75 19.7083 20.75 19.975C20.75 20.2417 20.7333 20.45 20.7 20.6L21.875 21.7L21.25 22.75L19.875 22.45C19.675 22.65 19.4292 22.8292 19.1375 22.9875C18.8458 23.1458 18.5583 23.2667 18.275 23.35L18.025 25H16.675ZM17.35 21.975C17.95 21.975 18.4333 21.7917 18.8 21.425C19.1667 21.0583 19.35 20.575 19.35 19.975C19.35 19.375 19.1667 18.8917 18.8 18.525C18.4333 18.1583 17.95 17.975 17.35 17.975C16.75 17.975 16.2667 18.1583 15.9 18.525C15.5333 18.8917 15.35 19.375 15.35 19.975C15.35 20.575 15.5333 21.0583 15.9 21.425C16.2667 21.7917 16.75 21.975 17.35 21.975ZM10 14.375C10.65 14.375 11.1875 14.1625 11.6125 13.7375C12.0375 13.3125 12.25 12.775 12.25 12.125C12.25 11.475 12.0375 10.9375 11.6125 10.5125C11.1875 10.0875 10.65 9.875 10 9.875C9.35 9.875 8.8125 10.0875 8.3875 10.5125C7.9625 10.9375 7.75 11.475 7.75 12.125C7.75 12.775 7.9625 13.3125 8.3875 13.7375C8.8125 14.1625 9.35 14.375 10 14.375Z" fill="#711AC7"/>
<path d="M31.72 23L31.6 22.36C31.9067 22.2133 32.2267 22.0867 32.56 21.98C32.9067 21.86 33.2467 21.7533 33.58 21.66L33.6 23H31.72ZM33.8 23L33.86 21.74L36.62 22.06L36.6 23H33.8ZM43.04 23L42.92 22.36C43.2267 22.2133 43.5467 22.0867 43.88 21.98C44.2267 21.86 44.5667 21.7533 44.9 21.66L44.92 23H43.04ZM45.6 23L45.66 21.74L48.42 22.06L48.4 23H45.6ZM33.34 23L33.8 10H36.22L34.68 10.96L35.12 14.6L34.92 23H33.34ZM38.96 23.14L34.54 10.9L36.22 10L40.36 21.54L40.7 22.68L38.96 23.14ZM40.7 22.68L39.6 22.28L43.96 10L45 10.74L40.7 22.68ZM44.66 23L44.52 14.6L44.84 10.82L43.96 10H46.24L46.46 23H44.66ZM34.94 11.26L32.18 10.94L32.2 10H35L34.94 11.26ZM45.76 11.34L45.74 10H47.62L47.74 10.64C47.4467 10.7733 47.1267 10.9 46.78 11.02C46.4333 11.1267 46.0933 11.2333 45.76 11.34ZM53.6242 23.3C52.8109 23.3 52.0976 23.1667 51.4842 22.9C50.8709 22.6333 50.3576 22.2733 49.9442 21.82C49.5309 21.3667 49.2242 20.8533 49.0242 20.28C48.8242 19.7067 48.7242 19.1067 48.7242 18.48C48.7242 17.8133 48.8309 17.1667 49.0442 16.54C49.2709 15.9133 49.5842 15.3533 49.9842 14.86C50.3842 14.3667 50.8642 13.9733 51.4242 13.68C51.9976 13.3867 52.6242 13.24 53.3042 13.24C53.8242 13.24 54.3042 13.3267 54.7442 13.5C55.1842 13.6733 55.5642 13.92 55.8842 14.24C56.2176 14.5467 56.4709 14.9133 56.6442 15.34C56.8176 15.7667 56.8976 16.2333 56.8842 16.74L55.1842 17.44C55.2509 16.8533 55.1642 16.3267 54.9242 15.86C54.6842 15.3933 54.3309 15.0333 53.8642 14.78C53.4109 14.5267 52.8909 14.42 52.3042 14.46C51.8909 14.6733 51.5576 14.98 51.3042 15.38C51.0642 15.78 50.8842 16.2133 50.7642 16.68C50.6576 17.1467 50.6042 17.6067 50.6042 18.06C50.6042 18.8467 50.7509 19.52 51.0442 20.08C51.3376 20.6267 51.7309 21.0467 52.2242 21.34C52.7176 21.6333 53.2709 21.78 53.8842 21.78C54.2842 21.78 54.6976 21.72 55.1242 21.6C55.5509 21.48 55.9909 21.32 56.4442 21.12L56.7442 21.98L53.6242 23.3ZM55.7442 17.86L50.4442 17.76V16.72L56.6642 16.44L56.8842 16.74L55.7442 17.86ZM61.1877 23.3C60.9343 23.2333 60.6943 23.1333 60.4677 23C60.241 22.8533 60.0343 22.6933 59.8477 22.52C59.6743 22.3333 59.5343 22.16 59.4277 22C59.3477 21.8667 59.281 21.7067 59.2277 21.52C59.1743 21.3333 59.1343 21.0933 59.1077 20.8C59.0943 20.5067 59.0877 20.1333 59.0877 19.68V14.06L60.0677 13.32L60.8677 14.02V19.8C60.8677 20.4933 60.9743 20.9933 61.1877 21.3C61.401 21.6067 61.7343 21.76 62.1877 21.76C62.6677 21.76 63.1877 21.6333 63.7477 21.38C64.321 21.1133 64.861 20.8133 65.3677 20.48L65.7277 21.34C65.2343 21.7267 64.6943 22.0667 64.1077 22.36C63.521 22.6533 62.961 22.88 62.4277 23.04C61.9077 23.2133 61.4943 23.3 61.1877 23.3ZM57.5877 14.88L57.3477 13.94C57.7477 13.7533 58.1943 13.6067 58.6877 13.5C59.1943 13.3933 59.6543 13.3333 60.0677 13.32L60.3277 13.82L59.4477 14.74L57.5877 14.88ZM66.4877 23.3C66.341 23.2867 66.161 23.1933 65.9477 23.02C65.7343 22.86 65.5343 22.6533 65.3477 22.4C65.1743 22.1467 65.0543 21.8933 64.9877 21.64V21.36V14.06L65.9677 13.32L66.7677 14.02V21.28C66.7677 21.4267 66.8143 21.5333 66.9077 21.6C67.0143 21.6533 67.141 21.68 67.2877 21.68C67.4343 21.68 67.5877 21.66 67.7477 21.62C67.921 21.58 68.0743 21.54 68.2077 21.5L68.5077 22.38L66.4877 23.3ZM63.4877 14.88L63.2477 13.94C63.6477 13.7533 64.0943 13.6067 64.5877 13.5C65.0943 13.3933 65.5543 13.3333 65.9677 13.32L66.2277 13.82L65.3477 14.74L63.4877 14.88ZM79.3478 23.38C78.8811 23.38 78.4011 23.3267 77.9078 23.22C77.4278 23.1133 76.9278 22.9533 76.4078 22.74L77.3078 20.96C77.4811 21.1467 77.7345 21.34 78.0678 21.54C78.4011 21.74 78.8078 21.8933 79.2878 22C79.7811 22.0933 80.3278 22.0933 80.9278 22C81.4745 21.6667 81.8945 21.1667 82.1878 20.5C82.4811 19.82 82.6278 19.12 82.6278 18.4C82.6278 17.8 82.5211 17.24 82.3078 16.72C82.1078 16.1867 81.8211 15.76 81.4478 15.44C81.0878 15.1067 80.6611 14.94 80.1678 14.94C79.6878 14.94 79.1878 15.0867 78.6678 15.38C78.1611 15.66 77.6545 15.98 77.1478 16.34L76.9678 15.4L80.0678 13.38C80.7345 13.2333 81.3345 13.26 81.8678 13.46C82.4145 13.66 82.8811 13.9867 83.2678 14.44C83.6678 14.88 83.9745 15.4067 84.1878 16.02C84.4011 16.6333 84.5078 17.2933 84.5078 18C84.5078 18.7733 84.3811 19.4867 84.1278 20.14C83.8745 20.7933 83.5145 21.3667 83.0478 21.86C82.5945 22.34 82.0545 22.7133 81.4278 22.98C80.8011 23.2467 80.1078 23.38 79.3478 23.38ZM74.8078 27.08L74.7078 26.42C74.9478 26.3 75.2678 26.1733 75.6678 26.04C76.0811 25.9067 76.4145 25.8067 76.6678 25.74L76.3878 27.08H74.8078ZM77.4678 27.08L77.4878 25.74C77.8345 25.7667 78.1878 25.8067 78.5478 25.86C78.9211 25.9267 79.2211 26.0133 79.4478 26.12L79.3278 27.08H77.4678ZM76.0278 27.08V14.06L77.0278 13.32L77.8078 14.02V27.08H76.0278ZM74.5478 14.88L74.3078 13.94C74.7078 13.7533 75.1545 13.6067 75.6478 13.5C76.1545 13.3933 76.6145 13.3333 77.0278 13.32L77.2878 13.82L76.4078 14.74L74.5478 14.88ZM90.3039 23.3C89.4906 23.3 88.7772 23.1667 88.1639 22.9C87.5506 22.6333 87.0372 22.2733 86.6239 21.82C86.2106 21.3667 85.9039 20.8533 85.7039 20.28C85.5039 19.7067 85.4039 19.1067 85.4039 18.48C85.4039 17.8133 85.5106 17.1667 85.7239 16.54C85.9506 15.9133 86.2639 15.3533 86.6639 14.86C87.0639 14.3667 87.5439 13.9733 88.1039 13.68C88.6772 13.3867 89.3039 13.24 89.9839 13.24C90.5039 13.24 90.9839 13.3267 91.4239 13.5C91.8639 13.6733 92.2439 13.92 92.5639 14.24C92.8972 14.5467 93.1506 14.9133 93.3239 15.34C93.4972 15.7667 93.5772 16.2333 93.5639 16.74L91.8639 17.44C91.9306 16.8533 91.8439 16.3267 91.6039 15.86C91.3639 15.3933 91.0106 15.0333 90.5439 14.78C90.0906 14.5267 89.5706 14.42 88.9839 14.46C88.5706 14.6733 88.2372 14.98 87.9839 15.38C87.7439 15.78 87.5639 16.2133 87.4439 16.68C87.3372 17.1467 87.2839 17.6067 87.2839 18.06C87.2839 18.8467 87.4306 19.52 87.7239 20.08C88.0172 20.6267 88.4106 21.0467 88.9039 21.34C89.3972 21.6333 89.9506 21.78 90.5639 21.78C90.9639 21.78 91.3772 21.72 91.8039 21.6C92.2306 21.48 92.6706 21.32 93.1239 21.12L93.4239 21.98L90.3039 23.3ZM92.4239 17.86L87.1239 17.76V16.72L93.3439 16.44L93.5639 16.74L92.4239 17.86ZM95.872 23V14.06L96.852 13.32L97.652 14.02V23H95.872ZM97.072 18.04L96.672 16.88L99.752 13.6C100.205 13.4133 100.619 13.34 100.992 13.38C101.379 13.42 101.732 13.54 102.052 13.74C102.065 13.9933 102.065 14.26 102.052 14.54C102.039 14.8067 102.019 15.08 101.992 15.36C101.965 15.64 101.925 15.92 101.872 16.2C101.819 16.4667 101.759 16.7267 101.692 16.98H100.612L100.392 14.78C100.059 14.9667 99.6854 15.22 99.272 15.54C98.872 15.86 98.472 16.2333 98.072 16.66C97.6854 17.0733 97.352 17.5333 97.072 18.04ZM94.372 14.88L94.132 13.94C94.532 13.7533 94.9787 13.6067 95.472 13.5C95.9787 13.3933 96.4387 13.3333 96.852 13.32L97.112 13.82L96.232 14.74L94.372 14.88ZM94.512 23L94.412 22.34C94.652 22.22 94.972 22.0933 95.372 21.96C95.7854 21.8267 96.1187 21.7267 96.372 21.66L96.092 23H94.512ZM97.332 23L97.352 21.66C97.5787 21.66 97.8454 21.68 98.152 21.72C98.472 21.76 98.772 21.8067 99.052 21.86C99.3454 21.9133 99.5654 21.9733 99.712 22.04L99.592 23H97.332ZM104.027 23V11.74C104.027 10.9533 104.187 10.28 104.507 9.72C104.827 9.16 105.234 8.73333 105.727 8.44C106.234 8.13333 106.767 7.98 107.327 7.98C107.714 7.98 108.101 8.06 108.487 8.22C108.887 8.36667 109.254 8.61333 109.587 8.96L108.467 10.56C108.014 10.1067 107.514 9.81333 106.967 9.68C106.434 9.53333 105.927 9.55333 105.447 9.74L105.927 13.84L105.807 14.3V23H104.027ZM102.767 23L102.667 22.34C102.907 22.22 103.227 22.0933 103.627 21.96C104.041 21.8267 104.374 21.7267 104.627 21.66L104.347 23H102.767ZM105.647 23L105.667 21.66C106.014 21.6867 106.367 21.7333 106.727 21.8C107.101 21.8533 107.401 21.9333 107.627 22.04L107.507 23H105.647ZM102.787 15.18L102.667 14.2C103.067 14.0133 103.454 13.88 103.827 13.8C104.214 13.72 104.581 13.6667 104.927 13.64L105.367 14.12L104.507 15.12L102.787 15.18ZM104.927 15.18V13.64H108.007L108.067 14.2L107.127 15.18H104.927ZM110.927 23V14.06L111.907 13.32L112.707 14.02V23H110.927ZM109.507 23L109.407 22.34C109.647 22.22 109.967 22.0933 110.367 21.96C110.781 21.8267 111.114 21.7267 111.367 21.66L111.087 23H109.507ZM112.167 23L112.187 21.66C112.534 21.6867 112.887 21.7333 113.247 21.8C113.621 21.8533 113.921 21.9333 114.147 22.04L114.027 23H112.167ZM109.427 14.88L109.187 13.94C109.587 13.7533 110.034 13.6067 110.527 13.5C111.034 13.3933 111.494 13.3333 111.907 13.32L112.167 13.82L111.287 14.74L109.427 14.88ZM111.907 11.54C111.654 11.4333 111.374 11.2667 111.067 11.04C110.761 10.8 110.527 10.5667 110.367 10.34C110.514 10.0333 110.701 9.74 110.927 9.46C111.154 9.16667 111.374 8.95333 111.587 8.82C111.867 8.92667 112.147 9.10667 112.427 9.36C112.721 9.6 112.941 9.82 113.087 10.02C112.994 10.2867 112.827 10.5667 112.587 10.86C112.361 11.1533 112.134 11.38 111.907 11.54ZM116.595 23V9.04L117.575 8.3L118.375 9V23H116.595ZM115.175 23L115.075 22.34C115.315 22.22 115.635 22.0933 116.035 21.96C116.448 21.8267 116.781 21.7267 117.035 21.66L116.755 23H115.175ZM117.835 23L117.855 21.66C118.201 21.6867 118.555 21.7333 118.915 21.8C119.288 21.8533 119.588 21.9333 119.815 22.04L119.695 23H117.835ZM115.095 9.86L114.855 8.92C115.255 8.73333 115.701 8.58667 116.195 8.48C116.701 8.37333 117.161 8.31333 117.575 8.3L117.835 8.8L116.955 9.72L115.095 9.86Z" fill="#711AC7"/>
</svg>
