<svg width="259" height="33" viewBox="0 0 259 33" fill="none" xmlns="http://www.w3.org/2000/svg">
<path d="M5.72925 24.9167C5.29522 24.9167 4.9263 24.7648 4.62248 24.4609C4.31866 24.1571 4.16675 23.7882 4.16675 23.3542V12.0521C4.16675 11.6181 4.31866 11.2491 4.62248 10.9453C4.9263 10.6415 5.29522 10.4896 5.72925 10.4896H7.55216V7.98958C7.55216 6.61806 8.03394 5.45052 8.99748 4.48698C9.96102 3.52344 11.1286 3.04167 12.5001 3.04167C13.8716 3.04167 15.0391 3.52344 16.0027 4.48698C16.9662 5.45052 17.448 6.61806 17.448 7.98958V10.4896H19.2709C19.7049 10.4896 20.0739 10.6415 20.3777 10.9453C20.6815 11.2491 20.8334 11.6181 20.8334 12.0521V23.3542C20.8334 23.7882 20.6815 24.1571 20.3777 24.4609C20.0739 24.7648 19.7049 24.9167 19.2709 24.9167H5.72925ZM5.72925 23.3542H19.2709V12.0521H5.72925V23.3542ZM12.5001 19.7083C13.0556 19.7083 13.5287 19.5174 13.9194 19.1354C14.31 18.7535 14.5053 18.2934 14.5053 17.7552C14.5053 17.2344 14.31 16.7613 13.9194 16.3359C13.5287 15.9106 13.0556 15.6979 12.5001 15.6979C11.9445 15.6979 11.4714 15.9106 11.0808 16.3359C10.6902 16.7613 10.4949 17.2344 10.4949 17.7552C10.4949 18.2934 10.6902 18.7535 11.0808 19.1354C11.4714 19.5174 11.9445 19.7083 12.5001 19.7083ZM9.11466 10.4896H15.8855V7.98958C15.8855 7.05208 15.5556 6.25347 14.8959 5.59375C14.2362 4.93403 13.4376 4.60417 12.5001 4.60417C11.5626 4.60417 10.764 4.93403 10.1042 5.59375C9.44453 6.25347 9.11466 7.05208 9.11466 7.98958V10.4896ZM5.72925 23.3542V12.0521V23.3542Z" fill="#711AC7"/>
<path d="M31.3 23V10H33.16V23H31.3ZM29.72 23L29.6 22.36C29.9067 22.2133 30.2267 22.0867 30.56 21.98C30.9067 21.86 31.2467 21.7533 31.58 21.66L31.6 23H29.72ZM32.28 23L32.34 21.74L35.1 22.06L35.08 23H32.28ZM32.52 11.26L29.76 10.94L29.78 10H32.58L32.52 11.26ZM32.88 11.34L32.86 10H34.74L34.86 10.64C34.5667 10.7733 34.2467 10.9 33.9 11.02C33.5533 11.1267 33.2133 11.2333 32.88 11.34ZM37.0361 23V14.06L38.0161 13.32L38.8161 14.02V23H37.0361ZM43.2161 23V17.08C43.2161 16.2667 43.0894 15.7067 42.8361 15.4C42.5828 15.08 42.2828 14.92 41.9361 14.92C41.6694 14.92 41.3494 15 40.9761 15.16C40.6161 15.3067 40.2428 15.4933 39.8561 15.72C39.4694 15.9467 39.1161 16.1867 38.7961 16.44L38.4361 15.6C39.0628 15.16 39.6694 14.7733 40.2561 14.44C40.8561 14.0933 41.3828 13.82 41.8361 13.62C42.3028 13.42 42.6561 13.32 42.8961 13.32C43.1494 13.36 43.3961 13.4533 43.6361 13.6C43.8761 13.7467 44.0894 13.9133 44.2761 14.1C44.4761 14.2867 44.6228 14.4733 44.7161 14.66C44.7828 14.78 44.8361 14.9333 44.8761 15.12C44.9161 15.3067 44.9428 15.5533 44.9561 15.86C44.9828 16.1533 44.9961 16.5333 44.9961 17V23H43.2161ZM35.5361 14.88L35.2961 13.94C35.6961 13.7533 36.1428 13.6067 36.6361 13.5C37.1428 13.3933 37.6028 13.3333 38.0161 13.32L38.2761 13.82L37.3961 14.74L35.5361 14.88ZM35.7161 23L35.6161 22.34C35.8561 22.22 36.1761 22.0933 36.5761 21.96C36.9894 21.8267 37.3228 21.7267 37.5761 21.66L37.2961 23H35.7161ZM38.1361 23L38.1561 21.66C38.5028 21.6867 38.8561 21.7333 39.2161 21.8C39.5894 21.8533 39.8894 21.9333 40.1161 22.04L39.9961 23H38.1361ZM42.1761 23L42.0761 22.34C42.3161 22.22 42.6361 22.0933 43.0361 21.96C43.4494 21.8267 43.7828 21.7267 44.0361 21.66L43.7561 23H42.1761ZM44.3361 23L44.3561 21.66C44.7028 21.6867 45.0694 21.7333 45.4561 21.8C45.8561 21.8533 46.1694 21.9333 46.3961 22.04L46.2761 23H44.3361ZM48.453 23V11.74C48.453 10.9533 48.613 10.28 48.933 9.72C49.253 9.16 49.6596 8.73333 50.153 8.44C50.6596 8.13333 51.193 7.98 51.753 7.98C52.1396 7.98 52.5263 8.06 52.913 8.22C53.313 8.36667 53.6796 8.61333 54.013 8.96L52.893 10.56C52.4396 10.1067 51.9396 9.81333 51.393 9.68C50.8596 9.53333 50.353 9.55333 49.873 9.74L50.353 13.84L50.233 14.3V23H48.453ZM47.193 23L47.093 22.34C47.333 22.22 47.653 22.0933 48.053 21.96C48.4663 21.8267 48.7996 21.7267 49.053 21.66L48.773 23H47.193ZM50.073 23L50.093 21.66C50.4396 21.6867 50.793 21.7333 51.153 21.8C51.5263 21.8533 51.8263 21.9333 52.053 22.04L51.933 23H50.073ZM47.213 15.18L47.093 14.2C47.493 14.0133 47.8796 13.88 48.253 13.8C48.6396 13.72 49.0063 13.6667 49.353 13.64L49.793 14.12L48.933 15.12L47.213 15.18ZM49.353 15.18V13.64H52.433L52.493 14.2L51.553 15.18H49.353ZM57.7686 23.4C56.9286 23.4 56.1619 23.1933 55.4686 22.78C54.7886 22.3533 54.2419 21.76 53.8286 21C53.4153 20.2267 53.2086 19.32 53.2086 18.28C53.2086 17.2133 53.4153 16.3067 53.8286 15.56C54.2553 14.8 54.8086 14.2267 55.4886 13.84C56.1819 13.44 56.9286 13.24 57.7286 13.24C58.5553 13.24 59.2953 13.4467 59.9486 13.86C60.6153 14.26 61.1419 14.8467 61.5286 15.62C61.9286 16.38 62.1286 17.3067 62.1286 18.4C62.1286 19.5067 61.9286 20.4333 61.5286 21.18C61.1286 21.9133 60.5953 22.4667 59.9286 22.84C59.2753 23.2133 58.5553 23.4 57.7686 23.4ZM57.9886 22.1C58.2953 22.1 58.6153 22.0533 58.9486 21.96C59.3219 21.7067 59.6019 21.3867 59.7886 21C59.9753 20.6133 60.0953 20.2067 60.1486 19.78C60.2153 19.3533 60.2486 18.9667 60.2486 18.62C60.2486 17.8867 60.1553 17.2067 59.9686 16.58C59.7953 15.9533 59.5086 15.4467 59.1086 15.06C58.7219 14.6733 58.2086 14.48 57.5686 14.48C57.2619 14.48 56.9753 14.5267 56.7086 14.62C56.4419 14.7 56.2219 14.8 56.0486 14.92C55.7019 15.3333 55.4553 15.8267 55.3086 16.4C55.1753 16.96 55.1086 17.5133 55.1086 18.06C55.1086 18.7533 55.2086 19.4133 55.4086 20.04C55.6086 20.6533 55.9219 21.1533 56.3486 21.54C56.7753 21.9133 57.3219 22.1 57.9886 22.1ZM64.6728 23V14.06L65.6528 13.32L66.4528 14.02V23H64.6728ZM65.8728 18.04L65.4728 16.88L68.5528 13.6C69.0061 13.4133 69.4195 13.34 69.7928 13.38C70.1795 13.42 70.5328 13.54 70.8528 13.74C70.8661 13.9933 70.8661 14.26 70.8528 14.54C70.8395 14.8067 70.8195 15.08 70.7928 15.36C70.7661 15.64 70.7261 15.92 70.6728 16.2C70.6195 16.4667 70.5595 16.7267 70.4928 16.98H69.4128L69.1928 14.78C68.8595 14.9667 68.4861 15.22 68.0728 15.54C67.6728 15.86 67.2728 16.2333 66.8728 16.66C66.4861 17.0733 66.1528 17.5333 65.8728 18.04ZM63.1728 14.88L62.9328 13.94C63.3328 13.7533 63.7795 13.6067 64.2728 13.5C64.7795 13.3933 65.2395 13.3333 65.6528 13.32L65.9128 13.82L65.0328 14.74L63.1728 14.88ZM63.3128 23L63.2128 22.34C63.4528 22.22 63.7728 22.0933 64.1728 21.96C64.5861 21.8267 64.9195 21.7267 65.1728 21.66L64.8928 23H63.3128ZM66.1328 23L66.1528 21.66C66.3795 21.66 66.6461 21.68 66.9528 21.72C67.2728 21.76 67.5728 21.8067 67.8528 21.86C68.1461 21.9133 68.3661 21.9733 68.5128 22.04L68.3928 23H66.1328ZM73.208 23V14.06L74.188 13.32L74.988 14.02V23H73.208ZM79.168 23V17.08C79.168 16.2667 79.0413 15.7067 78.788 15.4C78.5346 15.08 78.2346 14.92 77.888 14.92C77.6213 14.92 77.3013 15 76.928 15.16C76.568 15.3067 76.1946 15.4933 75.808 15.72C75.4213 15.9467 75.068 16.1867 74.748 16.44L74.388 15.6C75.0146 15.16 75.6213 14.7733 76.208 14.44C76.808 14.0933 77.3346 13.82 77.788 13.62C78.2546 13.42 78.608 13.32 78.848 13.32C79.1013 13.36 79.348 13.4533 79.588 13.6C79.828 13.7467 80.0413 13.9133 80.228 14.1C80.428 14.2867 80.5746 14.4733 80.668 14.66C80.7346 14.78 80.788 14.9333 80.828 15.12C80.868 15.3067 80.8946 15.5533 80.908 15.86C80.9346 16.1533 80.948 16.5333 80.948 17V23H79.168ZM85.148 23V17.08C85.148 16.2667 85.0213 15.7067 84.768 15.4C84.5146 15.08 84.2146 14.92 83.868 14.92C83.6013 14.92 83.2813 15 82.908 15.16C82.548 15.3067 82.1746 15.4933 81.788 15.72C81.4013 15.9467 81.048 16.1867 80.728 16.44L80.368 15.6C80.9946 15.16 81.6013 14.7733 82.188 14.44C82.788 14.0933 83.3146 13.82 83.768 13.62C84.2346 13.42 84.588 13.32 84.828 13.32C85.0813 13.36 85.328 13.4533 85.568 13.6C85.808 13.7467 86.0213 13.9133 86.208 14.1C86.408 14.2867 86.5546 14.4733 86.648 14.66C86.7146 14.78 86.768 14.9333 86.808 15.12C86.848 15.3067 86.8746 15.5533 86.888 15.86C86.9146 16.1533 86.928 16.5333 86.928 17V23H85.148ZM71.708 14.88L71.468 13.94C71.868 13.7533 72.3146 13.6067 72.808 13.5C73.3146 13.3933 73.7746 13.3333 74.188 13.32L74.448 13.82L73.568 14.74L71.708 14.88ZM71.888 23L71.788 22.34C72.028 22.22 72.348 22.0933 72.748 21.96C73.1613 21.8267 73.4946 21.7267 73.748 21.66L73.468 23H71.888ZM74.308 23L74.328 21.66C74.6746 21.6867 75.028 21.7333 75.388 21.8C75.7613 21.8533 76.0613 21.9333 76.288 22.04L76.168 23H74.308ZM78.128 23L78.028 22.34C78.268 22.22 78.588 22.0933 78.988 21.96C79.4013 21.8267 79.7346 21.7267 79.988 21.66L79.708 23H78.128ZM80.288 23L80.308 21.66C80.6546 21.6867 81.0213 21.7333 81.408 21.8C81.808 21.8533 82.1213 21.9333 82.348 22.04L82.228 23H80.288ZM84.108 23L84.008 22.34C84.248 22.22 84.568 22.0933 84.968 21.96C85.3813 21.8267 85.7146 21.7267 85.968 21.66L85.688 23H84.108ZM86.268 23L86.288 21.66C86.6346 21.6867 87.0013 21.7333 87.388 21.8C87.788 21.8533 88.1013 21.9333 88.328 22.04L88.208 23H86.268ZM96.2536 23.3C96.1069 23.2867 95.9269 23.1933 95.7136 23.02C95.5003 22.86 95.3003 22.6533 95.1136 22.4C94.9269 22.1467 94.8003 21.8933 94.7336 21.64V21.36V16.62C94.7336 15.9933 94.6603 15.5267 94.5136 15.22C94.3669 14.9 94.1136 14.6533 93.7536 14.48C93.3803 14.4933 92.9736 14.5333 92.5336 14.6C92.1069 14.6667 91.7603 14.74 91.4936 14.82L91.3336 16.9L90.2736 16.98C90.1003 16.6467 89.9669 16.2667 89.8736 15.84C89.7803 15.4133 89.7203 14.9933 89.6936 14.58C90.0003 14.4067 90.3603 14.24 90.7736 14.08C91.2003 13.9067 91.6336 13.7533 92.0736 13.62C92.5136 13.4733 92.9203 13.36 93.2936 13.28C93.6669 13.1867 93.9536 13.14 94.1536 13.14C94.4469 13.14 94.7336 13.22 95.0136 13.38C95.3069 13.5267 95.5669 13.7133 95.7936 13.94C96.0336 14.1533 96.2003 14.3533 96.2936 14.54C96.3869 14.7133 96.4469 14.9267 96.4736 15.18C96.5136 15.4333 96.5336 15.9133 96.5336 16.62V21.28C96.5336 21.4267 96.5803 21.5333 96.6736 21.6C96.7803 21.6533 96.9069 21.68 97.0536 21.68C97.2003 21.68 97.3536 21.66 97.5136 21.62C97.6869 21.58 97.8403 21.54 97.9736 21.5L98.2736 22.38L96.2536 23.3ZM92.5736 23.28C91.8403 23.36 91.2403 23.28 90.7736 23.04C90.3203 22.8 89.9803 22.4867 89.7536 22.1C89.5403 21.7 89.4336 21.3067 89.4336 20.92C89.4336 20.5333 89.5403 20.1533 89.7536 19.78C89.9803 19.3933 90.3403 19.06 90.8336 18.78L95.2336 18.66L95.1536 19.74L94.8336 19.72C94.4603 19.68 94.0669 19.6667 93.6536 19.68C93.2536 19.68 92.8736 19.72 92.5136 19.8C92.1669 19.8667 91.8803 19.9933 91.6536 20.18C91.4269 20.3533 91.3136 20.6 91.3136 20.92C91.3136 21.0933 91.3536 21.2667 91.4336 21.44C91.5269 21.6 91.6603 21.7333 91.8336 21.84C92.2203 21.8533 92.6203 21.8067 93.0336 21.7C93.4469 21.5933 93.8269 21.4667 94.1736 21.32C94.5336 21.1733 94.8136 21.0533 95.0136 20.96V21.8L92.5736 23.28ZM103.73 23.3C102.944 23.3133 102.25 23.1933 101.65 22.94C101.064 22.6733 100.57 22.3133 100.17 21.86C99.7703 21.3933 99.4703 20.86 99.2703 20.26C99.0703 19.6467 98.9703 19 98.9703 18.32C98.9703 17.32 99.1636 16.44 99.5503 15.68C99.9503 14.92 100.497 14.3267 101.19 13.9C101.884 13.46 102.664 13.24 103.53 13.24C103.944 13.24 104.324 13.2933 104.67 13.4C105.017 13.4933 105.344 13.64 105.65 13.84C105.97 14.0267 106.277 14.2667 106.57 14.56L105.51 15.98C105.004 15.58 104.45 15.2467 103.85 14.98C103.25 14.7 102.657 14.54 102.07 14.5C101.657 14.9933 101.344 15.52 101.13 16.08C100.93 16.64 100.83 17.2533 100.83 17.92C100.83 18.6667 100.95 19.3333 101.19 19.92C101.444 20.5067 101.81 20.9733 102.29 21.32C102.77 21.6533 103.35 21.82 104.03 21.82C104.324 21.82 104.65 21.7867 105.01 21.72C105.384 21.64 105.75 21.52 106.11 21.36L106.45 22.2L103.73 23.3ZM101.97 28.3L101.71 27.62C102.377 27.42 102.89 27.1667 103.25 26.86C103.624 26.5667 103.83 26.2733 103.87 25.98C103.924 25.7 103.824 25.4733 103.57 25.3C103.317 25.1267 102.904 25.06 102.33 25.1L101.79 24.32L103.05 22.88H104.03L103.19 24.18C103.79 24.18 104.264 24.28 104.61 24.48C104.97 24.6933 105.224 24.9467 105.37 25.24C105.517 25.5467 105.557 25.8467 105.49 26.14C105.424 26.4733 105.244 26.7733 104.95 27.04C104.67 27.32 104.277 27.56 103.77 27.76C103.277 27.9733 102.677 28.1533 101.97 28.3ZM111.831 23.4C110.991 23.4 110.224 23.1933 109.531 22.78C108.851 22.3533 108.304 21.76 107.891 21C107.478 20.2267 107.271 19.32 107.271 18.28C107.271 17.2133 107.478 16.3067 107.891 15.56C108.318 14.8 108.871 14.2267 109.551 13.84C110.244 13.44 110.991 13.24 111.791 13.24C112.618 13.24 113.358 13.4467 114.011 13.86C114.678 14.26 115.204 14.8467 115.591 15.62C115.991 16.38 116.191 17.3067 116.191 18.4C116.191 19.5067 115.991 20.4333 115.591 21.18C115.191 21.9133 114.658 22.4667 113.991 22.84C113.338 23.2133 112.618 23.4 111.831 23.4ZM112.051 22.1C112.358 22.1 112.678 22.0533 113.011 21.96C113.384 21.7067 113.664 21.3867 113.851 21C114.038 20.6133 114.158 20.2067 114.211 19.78C114.278 19.3533 114.311 18.9667 114.311 18.62C114.311 17.8867 114.218 17.2067 114.031 16.58C113.858 15.9533 113.571 15.4467 113.171 15.06C112.784 14.6733 112.271 14.48 111.631 14.48C111.324 14.48 111.038 14.5267 110.771 14.62C110.504 14.7 110.284 14.8 110.111 14.92C109.764 15.3333 109.518 15.8267 109.371 16.4C109.238 16.96 109.171 17.5133 109.171 18.06C109.171 18.7533 109.271 19.4133 109.471 20.04C109.671 20.6533 109.984 21.1533 110.411 21.54C110.838 21.9133 111.384 22.1 112.051 22.1ZM113.511 12.12C113.311 12.12 113.071 12.04 112.791 11.88C112.511 11.7067 112.224 11.5133 111.931 11.3C111.638 11.0867 111.364 10.9 111.111 10.74C110.858 10.5667 110.658 10.48 110.511 10.48C110.378 10.48 110.178 10.5867 109.911 10.8C109.658 11.0133 109.298 11.3867 108.831 11.92L108.111 11.34C108.444 10.82 108.751 10.38 109.031 10.02C109.311 9.66 109.578 9.38667 109.831 9.2C110.084 9.01333 110.331 8.92 110.571 8.92C110.731 8.92 110.964 9.00667 111.271 9.18C111.578 9.35333 111.924 9.57333 112.311 9.84C112.698 10.1067 113.084 10.38 113.471 10.66L114.951 9.12L115.651 9.64C115.251 10.3333 114.871 10.92 114.511 11.4C114.164 11.88 113.831 12.12 113.511 12.12ZM121.995 23.3C121.182 23.3 120.469 23.1667 119.855 22.9C119.242 22.6333 118.729 22.2733 118.315 21.82C117.902 21.3667 117.595 20.8533 117.395 20.28C117.195 19.7067 117.095 19.1067 117.095 18.48C117.095 17.8133 117.202 17.1667 117.415 16.54C117.642 15.9133 117.955 15.3533 118.355 14.86C118.755 14.3667 119.235 13.9733 119.795 13.68C120.369 13.3867 120.995 13.24 121.675 13.24C122.195 13.24 122.675 13.3267 123.115 13.5C123.555 13.6733 123.935 13.92 124.255 14.24C124.589 14.5467 124.842 14.9133 125.015 15.34C125.189 15.7667 125.269 16.2333 125.255 16.74L123.555 17.44C123.622 16.8533 123.535 16.3267 123.295 15.86C123.055 15.3933 122.702 15.0333 122.235 14.78C121.782 14.5267 121.262 14.42 120.675 14.46C120.262 14.6733 119.929 14.98 119.675 15.38C119.435 15.78 119.255 16.2133 119.135 16.68C119.029 17.1467 118.975 17.6067 118.975 18.06C118.975 18.8467 119.122 19.52 119.415 20.08C119.709 20.6267 120.102 21.0467 120.595 21.34C121.089 21.6333 121.642 21.78 122.255 21.78C122.655 21.78 123.069 21.72 123.495 21.6C123.922 21.48 124.362 21.32 124.815 21.12L125.115 21.98L121.995 23.3ZM124.115 17.86L118.815 17.76V16.72L125.035 16.44L125.255 16.74L124.115 17.86ZM129.759 23.4C129.225 23.4 128.665 23.3133 128.079 23.14C127.492 22.98 126.872 22.72 126.219 22.36L126.959 20.6C127.465 20.9333 128.065 21.2533 128.759 21.56C129.452 21.8533 130.172 22.0533 130.919 22.16C131.092 22.0133 131.225 21.8467 131.319 21.66C131.412 21.46 131.459 21.24 131.459 21C131.459 20.6133 131.339 20.2933 131.099 20.04C130.859 19.7867 130.552 19.5667 130.179 19.38C129.805 19.1933 129.405 19.0133 128.979 18.84C128.552 18.6667 128.152 18.4667 127.779 18.24C127.405 18.0133 127.099 17.7333 126.859 17.4C126.619 17.0533 126.499 16.62 126.499 16.1C126.499 15.4733 126.679 14.9467 127.039 14.52C127.399 14.0933 127.865 13.7733 128.439 13.56C129.025 13.3467 129.645 13.24 130.299 13.24C130.765 13.24 131.212 13.2933 131.639 13.4C132.079 13.5067 132.485 13.6533 132.859 13.84L132.239 15.44C131.785 15.0533 131.232 14.78 130.579 14.62C129.939 14.46 129.352 14.4067 128.819 14.46C128.565 14.62 128.392 14.8067 128.299 15.02C128.219 15.22 128.179 15.4133 128.179 15.6C128.179 15.96 128.299 16.26 128.539 16.5C128.779 16.7267 129.085 16.9333 129.459 17.12C129.845 17.2933 130.252 17.4733 130.679 17.66C131.119 17.8333 131.525 18.04 131.899 18.28C132.285 18.5067 132.599 18.8 132.839 19.16C133.079 19.52 133.199 19.9667 133.199 20.5C133.199 21.3533 132.879 22.0533 132.239 22.6C131.599 23.1333 130.772 23.4 129.759 23.4ZM131.439 16.42L131.219 13.96L132.859 13.84C132.885 14.2667 132.872 14.7 132.819 15.14C132.765 15.58 132.665 16.0067 132.519 16.42H131.439ZM144.731 23.38C144.264 23.38 143.784 23.3267 143.291 23.22C142.811 23.1133 142.311 22.9533 141.791 22.74L142.691 20.96C142.864 21.1467 143.117 21.34 143.451 21.54C143.784 21.74 144.191 21.8933 144.671 22C145.164 22.0933 145.711 22.0933 146.311 22C146.857 21.6667 147.277 21.1667 147.571 20.5C147.864 19.82 148.011 19.12 148.011 18.4C148.011 17.8 147.904 17.24 147.691 16.72C147.491 16.1867 147.204 15.76 146.831 15.44C146.471 15.1067 146.044 14.94 145.551 14.94C145.071 14.94 144.571 15.0867 144.051 15.38C143.544 15.66 143.037 15.98 142.531 16.34L142.351 15.4L145.451 13.38C146.117 13.2333 146.717 13.26 147.251 13.46C147.797 13.66 148.264 13.9867 148.651 14.44C149.051 14.88 149.357 15.4067 149.571 16.02C149.784 16.6333 149.891 17.2933 149.891 18C149.891 18.7733 149.764 19.4867 149.511 20.14C149.257 20.7933 148.897 21.3667 148.431 21.86C147.977 22.34 147.437 22.7133 146.811 22.98C146.184 23.2467 145.491 23.38 144.731 23.38ZM140.191 27.08L140.091 26.42C140.331 26.3 140.651 26.1733 141.051 26.04C141.464 25.9067 141.797 25.8067 142.051 25.74L141.771 27.08H140.191ZM142.851 27.08L142.871 25.74C143.217 25.7667 143.571 25.8067 143.931 25.86C144.304 25.9267 144.604 26.0133 144.831 26.12L144.711 27.08H142.851ZM141.411 27.08V14.06L142.411 13.32L143.191 14.02V27.08H141.411ZM139.931 14.88L139.691 13.94C140.091 13.7533 140.537 13.6067 141.031 13.5C141.537 13.3933 141.997 13.3333 142.411 13.32L142.671 13.82L141.791 14.74L139.931 14.88ZM155.687 23.3C154.873 23.3 154.16 23.1667 153.547 22.9C152.933 22.6333 152.42 22.2733 152.007 21.82C151.593 21.3667 151.287 20.8533 151.087 20.28C150.887 19.7067 150.787 19.1067 150.787 18.48C150.787 17.8133 150.893 17.1667 151.107 16.54C151.333 15.9133 151.647 15.3533 152.047 14.86C152.447 14.3667 152.927 13.9733 153.487 13.68C154.06 13.3867 154.687 13.24 155.367 13.24C155.887 13.24 156.367 13.3267 156.807 13.5C157.247 13.6733 157.627 13.92 157.947 14.24C158.28 14.5467 158.533 14.9133 158.707 15.34C158.88 15.7667 158.96 16.2333 158.947 16.74L157.247 17.44C157.313 16.8533 157.227 16.3267 156.987 15.86C156.747 15.3933 156.393 15.0333 155.927 14.78C155.473 14.5267 154.953 14.42 154.367 14.46C153.953 14.6733 153.62 14.98 153.367 15.38C153.127 15.78 152.947 16.2133 152.827 16.68C152.72 17.1467 152.667 17.6067 152.667 18.06C152.667 18.8467 152.813 19.52 153.107 20.08C153.4 20.6267 153.793 21.0467 154.287 21.34C154.78 21.6333 155.333 21.78 155.947 21.78C156.347 21.78 156.76 21.72 157.187 21.6C157.613 21.48 158.053 21.32 158.507 21.12L158.807 21.98L155.687 23.3ZM157.807 17.86L152.507 17.76V16.72L158.727 16.44L158.947 16.74L157.807 17.86ZM163.45 23.4C162.917 23.4 162.357 23.3133 161.77 23.14C161.183 22.98 160.563 22.72 159.91 22.36L160.65 20.6C161.157 20.9333 161.757 21.2533 162.45 21.56C163.143 21.8533 163.863 22.0533 164.61 22.16C164.783 22.0133 164.917 21.8467 165.01 21.66C165.103 21.46 165.15 21.24 165.15 21C165.15 20.6133 165.03 20.2933 164.79 20.04C164.55 19.7867 164.243 19.5667 163.87 19.38C163.497 19.1933 163.097 19.0133 162.67 18.84C162.243 18.6667 161.843 18.4667 161.47 18.24C161.097 18.0133 160.79 17.7333 160.55 17.4C160.31 17.0533 160.19 16.62 160.19 16.1C160.19 15.4733 160.37 14.9467 160.73 14.52C161.09 14.0933 161.557 13.7733 162.13 13.56C162.717 13.3467 163.337 13.24 163.99 13.24C164.457 13.24 164.903 13.2933 165.33 13.4C165.77 13.5067 166.177 13.6533 166.55 13.84L165.93 15.44C165.477 15.0533 164.923 14.78 164.27 14.62C163.63 14.46 163.043 14.4067 162.51 14.46C162.257 14.62 162.083 14.8067 161.99 15.02C161.91 15.22 161.87 15.4133 161.87 15.6C161.87 15.96 161.99 16.26 162.23 16.5C162.47 16.7267 162.777 16.9333 163.15 17.12C163.537 17.2933 163.943 17.4733 164.37 17.66C164.81 17.8333 165.217 18.04 165.59 18.28C165.977 18.5067 166.29 18.8 166.53 19.16C166.77 19.52 166.89 19.9667 166.89 20.5C166.89 21.3533 166.57 22.0533 165.93 22.6C165.29 23.1333 164.463 23.4 163.45 23.4ZM165.13 16.42L164.91 13.96L166.55 13.84C166.577 14.2667 166.563 14.7 166.51 15.14C166.457 15.58 166.357 16.0067 166.21 16.42H165.13ZM171.829 23.4C171.296 23.4 170.736 23.3133 170.149 23.14C169.562 22.98 168.942 22.72 168.289 22.36L169.029 20.6C169.536 20.9333 170.136 21.2533 170.829 21.56C171.522 21.8533 172.242 22.0533 172.989 22.16C173.162 22.0133 173.296 21.8467 173.389 21.66C173.482 21.46 173.529 21.24 173.529 21C173.529 20.6133 173.409 20.2933 173.169 20.04C172.929 19.7867 172.622 19.5667 172.249 19.38C171.876 19.1933 171.476 19.0133 171.049 18.84C170.622 18.6667 170.222 18.4667 169.849 18.24C169.476 18.0133 169.169 17.7333 168.929 17.4C168.689 17.0533 168.569 16.62 168.569 16.1C168.569 15.4733 168.749 14.9467 169.109 14.52C169.469 14.0933 169.936 13.7733 170.509 13.56C171.096 13.3467 171.716 13.24 172.369 13.24C172.836 13.24 173.282 13.2933 173.709 13.4C174.149 13.5067 174.556 13.6533 174.929 13.84L174.309 15.44C173.856 15.0533 173.302 14.78 172.649 14.62C172.009 14.46 171.422 14.4067 170.889 14.46C170.636 14.62 170.462 14.8067 170.369 15.02C170.289 15.22 170.249 15.4133 170.249 15.6C170.249 15.96 170.369 16.26 170.609 16.5C170.849 16.7267 171.156 16.9333 171.529 17.12C171.916 17.2933 172.322 17.4733 172.749 17.66C173.189 17.8333 173.596 18.04 173.969 18.28C174.356 18.5067 174.669 18.8 174.909 19.16C175.149 19.52 175.269 19.9667 175.269 20.5C175.269 21.3533 174.949 22.0533 174.309 22.6C173.669 23.1333 172.842 23.4 171.829 23.4ZM173.509 16.42L173.289 13.96L174.929 13.84C174.956 14.2667 174.942 14.7 174.889 15.14C174.836 15.58 174.736 16.0067 174.589 16.42H173.509ZM181.128 23.4C180.288 23.4 179.521 23.1933 178.828 22.78C178.148 22.3533 177.601 21.76 177.188 21C176.775 20.2267 176.568 19.32 176.568 18.28C176.568 17.2133 176.775 16.3067 177.188 15.56C177.615 14.8 178.168 14.2267 178.848 13.84C179.541 13.44 180.288 13.24 181.088 13.24C181.915 13.24 182.655 13.4467 183.308 13.86C183.975 14.26 184.501 14.8467 184.888 15.62C185.288 16.38 185.488 17.3067 185.488 18.4C185.488 19.5067 185.288 20.4333 184.888 21.18C184.488 21.9133 183.955 22.4667 183.288 22.84C182.635 23.2133 181.915 23.4 181.128 23.4ZM181.348 22.1C181.655 22.1 181.975 22.0533 182.308 21.96C182.681 21.7067 182.961 21.3867 183.148 21C183.335 20.6133 183.455 20.2067 183.508 19.78C183.575 19.3533 183.608 18.9667 183.608 18.62C183.608 17.8867 183.515 17.2067 183.328 16.58C183.155 15.9533 182.868 15.4467 182.468 15.06C182.081 14.6733 181.568 14.48 180.928 14.48C180.621 14.48 180.335 14.5267 180.068 14.62C179.801 14.7 179.581 14.8 179.408 14.92C179.061 15.3333 178.815 15.8267 178.668 16.4C178.535 16.96 178.468 17.5133 178.468 18.06C178.468 18.7533 178.568 19.4133 178.768 20.04C178.968 20.6533 179.281 21.1533 179.708 21.54C180.135 21.9133 180.681 22.1 181.348 22.1ZM193.422 23.3C193.275 23.2867 193.095 23.1933 192.882 23.02C192.668 22.86 192.468 22.6533 192.282 22.4C192.095 22.1467 191.968 21.8933 191.902 21.64V21.36V16.62C191.902 15.9933 191.828 15.5267 191.682 15.22C191.535 14.9 191.282 14.6533 190.922 14.48C190.548 14.4933 190.142 14.5333 189.702 14.6C189.275 14.6667 188.928 14.74 188.662 14.82L188.502 16.9L187.442 16.98C187.268 16.6467 187.135 16.2667 187.042 15.84C186.948 15.4133 186.888 14.9933 186.862 14.58C187.168 14.4067 187.528 14.24 187.942 14.08C188.368 13.9067 188.802 13.7533 189.242 13.62C189.682 13.4733 190.088 13.36 190.462 13.28C190.835 13.1867 191.122 13.14 191.322 13.14C191.615 13.14 191.902 13.22 192.182 13.38C192.475 13.5267 192.735 13.7133 192.962 13.94C193.202 14.1533 193.368 14.3533 193.462 14.54C193.555 14.7133 193.615 14.9267 193.642 15.18C193.682 15.4333 193.702 15.9133 193.702 16.62V21.28C193.702 21.4267 193.748 21.5333 193.842 21.6C193.948 21.6533 194.075 21.68 194.222 21.68C194.368 21.68 194.522 21.66 194.682 21.62C194.855 21.58 195.008 21.54 195.142 21.5L195.442 22.38L193.422 23.3ZM189.742 23.28C189.008 23.36 188.408 23.28 187.942 23.04C187.488 22.8 187.148 22.4867 186.922 22.1C186.708 21.7 186.602 21.3067 186.602 20.92C186.602 20.5333 186.708 20.1533 186.922 19.78C187.148 19.3933 187.508 19.06 188.002 18.78L192.402 18.66L192.322 19.74L192.002 19.72C191.628 19.68 191.235 19.6667 190.822 19.68C190.422 19.68 190.042 19.72 189.682 19.8C189.335 19.8667 189.048 19.9933 188.822 20.18C188.595 20.3533 188.482 20.6 188.482 20.92C188.482 21.0933 188.522 21.2667 188.602 21.44C188.695 21.6 188.828 21.7333 189.002 21.84C189.388 21.8533 189.788 21.8067 190.202 21.7C190.615 21.5933 190.995 21.4667 191.342 21.32C191.702 21.1733 191.982 21.0533 192.182 20.96V21.8L189.742 23.28ZM197.388 23V14.06L198.368 13.32L199.168 14.02V23H197.388ZM195.968 23L195.868 22.34C196.108 22.22 196.428 22.0933 196.828 21.96C197.241 21.8267 197.574 21.7267 197.828 21.66L197.548 23H195.968ZM198.628 23L198.648 21.66C198.994 21.6867 199.348 21.7333 199.708 21.8C200.081 21.8533 200.381 21.9333 200.608 22.04L200.488 23H198.628ZM195.888 14.88L195.648 13.94C196.048 13.7533 196.494 13.6067 196.988 13.5C197.494 13.3933 197.954 13.3333 198.368 13.32L198.628 13.82L197.748 14.74L195.888 14.88ZM198.368 11.54C198.114 11.4333 197.834 11.2667 197.528 11.04C197.221 10.8 196.988 10.5667 196.828 10.34C196.974 10.0333 197.161 9.74 197.388 9.46C197.614 9.16667 197.834 8.95333 198.048 8.82C198.328 8.92667 198.608 9.10667 198.888 9.36C199.181 9.6 199.401 9.82 199.548 10.02C199.454 10.2867 199.288 10.5667 199.048 10.86C198.821 11.1533 198.594 11.38 198.368 11.54ZM205.052 23.4C204.518 23.4 203.958 23.3133 203.372 23.14C202.785 22.98 202.165 22.72 201.512 22.36L202.252 20.6C202.758 20.9333 203.358 21.2533 204.052 21.56C204.745 21.8533 205.465 22.0533 206.212 22.16C206.385 22.0133 206.518 21.8467 206.612 21.66C206.705 21.46 206.752 21.24 206.752 21C206.752 20.6133 206.632 20.2933 206.392 20.04C206.152 19.7867 205.845 19.5667 205.472 19.38C205.098 19.1933 204.698 19.0133 204.272 18.84C203.845 18.6667 203.445 18.4667 203.072 18.24C202.698 18.0133 202.392 17.7333 202.152 17.4C201.912 17.0533 201.792 16.62 201.792 16.1C201.792 15.4733 201.972 14.9467 202.332 14.52C202.692 14.0933 203.158 13.7733 203.732 13.56C204.318 13.3467 204.938 13.24 205.592 13.24C206.058 13.24 206.505 13.2933 206.932 13.4C207.372 13.5067 207.778 13.6533 208.152 13.84L207.532 15.44C207.078 15.0533 206.525 14.78 205.872 14.62C205.232 14.46 204.645 14.4067 204.112 14.46C203.858 14.62 203.685 14.8067 203.592 15.02C203.512 15.22 203.472 15.4133 203.472 15.6C203.472 15.96 203.592 16.26 203.832 16.5C204.072 16.7267 204.378 16.9333 204.752 17.12C205.138 17.2933 205.545 17.4733 205.972 17.66C206.412 17.8333 206.818 18.04 207.192 18.28C207.578 18.5067 207.892 18.8 208.132 19.16C208.372 19.52 208.492 19.9667 208.492 20.5C208.492 21.3533 208.172 22.0533 207.532 22.6C206.892 23.1333 206.065 23.4 205.052 23.4ZM206.732 16.42L206.512 13.96L208.152 13.84C208.178 14.2667 208.165 14.7 208.112 15.14C208.058 15.58 207.958 16.0067 207.812 16.42H206.732Z" fill="#711AC7"/>
</svg>
