<svg width="101" height="103" viewBox="0 0 101 103" fill="none" xmlns="http://www.w3.org/2000/svg">
<path d="M17.9275 80.4688C23.23 76.6921 28.4904 73.7952 33.7088 71.7781C38.9271 69.761 44.5242 68.7525 50.5 68.7525C56.4758 68.7525 62.094 69.761 67.3544 71.7781C72.6148 73.7952 77.8963 76.6921 83.1988 80.4688C86.9021 75.8337 89.5323 71.1558 91.0894 66.435C92.6465 61.7142 93.425 56.7358 93.425 51.5C93.425 39.0542 89.3219 28.6469 81.1156 20.2781C72.9094 11.9094 62.7042 7.725 50.5 7.725C38.2958 7.725 28.0906 11.9094 19.8844 20.2781C11.6781 28.6469 7.575 39.0542 7.575 51.5C7.575 56.7358 8.37458 61.7142 9.97375 66.435C11.5729 71.1558 14.2242 75.8337 17.9275 80.4688ZM50.5 55.3625C45.6183 55.3625 41.5152 53.6673 38.1906 50.2769C34.866 46.8865 33.2038 42.7021 33.2038 37.7238C33.2038 32.7454 34.866 28.561 38.1906 25.1706C41.5152 21.7802 45.6183 20.085 50.5 20.085C55.3817 20.085 59.4848 21.7802 62.8094 25.1706C66.134 28.561 67.7963 32.7454 67.7963 37.7238C67.7963 42.7021 66.134 46.8865 62.8094 50.2769C59.4848 53.6673 55.3817 55.3625 50.5 55.3625ZM50.5 103C43.5983 103 37.0754 101.648 30.9313 98.9444C24.7871 96.2406 19.4215 92.5498 14.8344 87.8719C10.2473 83.194 6.62812 77.7221 3.97687 71.4563C1.32562 65.1904 0 58.5383 0 51.5C0 44.3758 1.32562 37.7023 3.97687 31.4794C6.62812 25.2565 10.2473 19.806 14.8344 15.1281C19.4215 10.4502 24.7871 6.75937 30.9313 4.05562C37.0754 1.35187 43.5983 0 50.5 0C57.4858 0 64.0298 1.35187 70.1319 4.05562C76.234 6.75937 81.5785 10.4502 86.1656 15.1281C90.7527 19.806 94.3719 25.2565 97.0231 31.4794C99.6744 37.7023 101 44.3758 101 51.5C101 58.5383 99.6744 65.1904 97.0231 71.4563C94.3719 77.7221 90.7527 83.194 86.1656 87.8719C81.5785 92.5498 76.234 96.2406 70.1319 98.9444C64.0298 101.648 57.4858 103 50.5 103ZM50.5 95.275C55.1292 95.275 59.6531 94.5883 64.0719 93.215C68.4906 91.8417 72.8463 89.4383 77.1387 86.005C72.8463 82.915 68.4696 80.5546 64.0088 78.9238C59.5479 77.2929 55.045 76.4775 50.5 76.4775C45.955 76.4775 41.4521 77.2929 36.9912 78.9238C32.5304 80.5546 28.1538 82.915 23.8612 86.005C28.1538 89.4383 32.5094 91.8417 36.9281 93.215C41.3469 94.5883 45.8708 95.275 50.5 95.275ZM50.5 47.6375C53.3617 47.6375 55.6973 46.7148 57.5069 44.8694C59.3165 43.024 60.2213 40.6421 60.2213 37.7238C60.2213 34.8054 59.3165 32.4235 57.5069 30.5781C55.6973 28.7327 53.3617 27.81 50.5 27.81C47.6383 27.81 45.3027 28.7327 43.4931 30.5781C41.6835 32.4235 40.7788 34.8054 40.7788 37.7238C40.7788 40.6421 41.6835 43.024 43.4931 44.8694C45.3027 46.7148 47.6383 47.6375 50.5 47.6375Z" fill="#711AC7"/>
</svg>
